<svg xmlns="http://www.w3.org/2000/svg">
  <path d="m 33.090909 40.727273 7.636364 0 0 -7.636364 5.454545 0 0 7.636364 7.636364 0 0 5.454545 -7.636364 0 0 7.636364 -5.454545 0 0 -7.636364 -7.636364 0 0 -5.454545 z m -8.727273 -22.909091 7.636364 0 0 -7.636364 5.454545 0 0 7.636364 7.636364 0 0 5.454545 -7.636364 0 0 7.636364 -5.454545 0 0 -7.636364 -7.636364 0 0 -5.454545 z m -14.181818 15.272727 7.636364 0 0 -7.636364 5.454545 0 0 7.636364 7.636364 0 0 5.454546 -7.636364 0 0 7.636363 -5.454545 0 0 -7.636363 -7.636364 0 0 -5.454546 z"/>
</svg>
