<svg xmlns="http://www.w3.org/2000/svg">
  <path d="m 20.929695 11.801074 c -0.522914 0.529278 -0.947088 1.167048 -1.171146 1.966643 l -9.302874 34.316775 c -0.10513 0.895509 -0.150262 1.395598 0.04419 2.121318 0.626154 2.336843 3.010651 3.719748 5.347494 3.093593 l 34.82501 -9.32497 c 2.336842 -0.626156 3.69765 -3.032752 3.071494 -5.369592 -0.194341 -0.725288 -0.477118 -1.13287 -1.016466 -1.856156 L 27.492529 11.690589 c -1.188105 -1.160768 -2.66236 -1.44069 -4.24264 -1.281631 l -0.419845 0.110486 c -0.724479 0.326311 -1.377467 0.752323 -1.900349 1.28163 z m 2.541164 7.137358 c 0.356973 -0.361357 0.787028 -0.616914 1.281631 -0.839688 l 0.287262 -0.110486 c 1.07886 -0.108591 2.105692 0.09143 2.916816 0.883883 l 17.21363 17.125242 c 0.368218 0.493786 0.574431 0.742282 0.707107 1.237437 0.427476 1.595366 -0.525954 3.240638 -2.121319 3.668118 l -23.75437 6.386056 c -1.595365 0.427477 -3.240638 -0.525951 -3.668116 -2.121321 -0.132754 -0.495448 -0.07177 -0.847039 10e-7 -1.458405 l 6.341864 -23.400815 c 0.152965 -0.545886 0.438523 -1.008662 0.795494 -1.370022 z"/>
</svg>
