<svg xmlns="http://www.w3.org/2000/svg">
  <path d="m 42.963447 51.630845 c 0.522914 -0.529277 0.947088 -1.167046 1.171146 -1.966641 l 9.302874 -34.316775 c 0.10513 -0.89551 0.150262 -1.3956 -0.04419 -2.12132 -0.626155 -2.336842 -3.010652 -3.7197481 -5.347495 -3.093592 l -34.825009 9.32497 c -2.336842 0.626155 -3.6976501 3.032751 -3.071495 5.369592 0.194341 0.725288 0.477118 1.13287 1.016466 1.856156 l 25.234869 25.058096 c 1.188104 1.160768 2.66236 1.44069 4.24264 1.281631 l 0.419845 -0.110486 c 0.724479 -0.326311 1.377467 -0.752323 1.900349 -1.281631 z m -2.541164 -7.137358 c -0.356974 0.361357 -0.787028 0.616915 -1.281631 0.839689 l -0.287262 0.110485 c -1.078861 0.108591 -2.105693 -0.09143 -2.916816 -0.883883 L 18.722944 27.434536 c -0.368218 -0.493786 -0.57443 -0.742282 -0.707107 -1.237437 -0.427476 -1.595367 0.525954 -3.240639 2.12132 -3.668117 l 23.754369 -6.386058 c 1.595366 -0.427477 3.240639 0.525953 3.668116 2.121321 0.132755 0.495449 0.07177 0.847041 0 1.458407 l -6.341864 23.400815 c -0.152965 0.545885 -0.438523 1.008661 -0.795495 1.37002 z"/>
</svg>
