<svg xmlns="http://www.w3.org/2000/svg">
  <path d="m 54.255945 45.471001 c -0.0045 -0.744011 -0.155534 -1.494918 -0.5625 -2.21875 L 36.005946 12.408501 c -0.558883 -0.707559 -0.880587 -1.093089 -1.53125 -1.46875 -2.095155 -1.2096382 -4.759111 -0.501406 -5.96875 1.59375 l -18.03125 31.21875 c -1.209639 2.095155 -0.470155 4.759112 1.625 5.96875 0.650275 0.375436 1.138433 0.463686 2.03125 0.59375 l 35.5625 -0.125 c 1.660903 -0.01933 2.901294 -0.863851 3.906249 -2.09375 l 0.21875 -0.375 c 0.281547 -0.743021 0.442044 -1.505989 0.4375 -2.25 z m -6.843749 -3.25 c 0.0031 0.507937 -0.120288 0.992738 -0.3125 1.5 l -0.125 0.28125 c -0.686085 0.839655 -1.5536 1.424299 -2.6875 1.4375 l -24.28125 0.0625 c -0.609528 -0.08879 -0.931056 -0.118689 -1.375 -0.375 -1.430366 -0.825823 -1.919572 -2.663383 -1.09375 -4.09375 l 12.28125 -21.3125 c 0.825822 -1.430366 2.663383 -1.919573 4.09375 -1.09375 0.444208 0.256464 0.649698 0.5482 1.03125 1.03125 l 12.0625 21.03125 c 0.277836 0.494161 0.403148 1.023313 0.40625 1.53125 z"/>
</svg>
