<svg xmlns="http://www.w3.org/2000/svg">
  <path d="M210 77.5c-3.8 0-7.3-2.2-9-5.7-1.6-3.5-1.1-7.6 1.3-10.6L248.2 4.7c4-4.9 11.5-4.9 15.5 0l45.9 56.5c2.5 3 3 7.1 1.3 10.6-1.6 3.5-5.1 5.7-9 5.7H290.7V131c0 5.5-4.5 10-10 10H231.3c-5.5 0-10-4.5-10-10V77.5H210.1ZM72.8 83.8c-.6-6.3 4.7-11.6 11-11l72.4 7.5c3.8.4 7.1 3 8.4 6.6 1.2 3.6.3 7.7-2.4 10.4l-7.9 7.9L192 143.1c3.9 3.9 3.9 10.2 0 14.1l-34.9 34.9c-3.9 3.9-10.2 3.9-14.1 0l-37.8-37.8-7.9 7.9c-2.7 2.8-6.8 3.7-10.4 2.4s-6.2-4.6-6.6-8.4Zm4.7 218.1c0 5.5-4.5 10-10 10-2.2 0-4.5-.7-6.3-2.2L4.7 263.8c-4.9-4-4.9-11.5 0-15.5l56.5-45.9c3-2.5 7.1-3 10.6-1.3 3.5 1.6 5.7 5.1 5.7 9v11.2H131c5.5 0 10 4.5 10 10v49.4c0 5.5-4.5 10-10 10H77.5v11.2Zm114.6 53c3.9 3.9 3.9 10.2 0 14.1l-37.8 37.8 7.9 7.9c2.8 2.7 3.7 6.8 2.4 10.4s-4.6 6.2-8.4 6.6l-72.4 7.5c-6.4.6-11.7-4.7-11-11l7.5-72.4c.4-3.8 3-7.1 6.6-8.4 3.6-1.2 7.7-.3 10.4 2.4l7.9 7.9 37.9-37.9c3.9-3.9 10.2-3.9 14.1 0ZM302 434.6c3.8 0 7.3 2.2 9 5.7 1.6 3.5 1.1 7.6-1.3 10.6l-45.9 56.5c-4 4.9-11.5 4.9-15.5 0l-45.9-56.5c-2.5-3-3-7.1-1.3-10.6 1.6-3.5 5.1-5.7 9-5.7h11.2V381.1c0-5.5 4.5-10 10-10h49.4c5.5 0 10 4.5 10 10v53.5h11.2Zm137.3-6.4c.6 6.3-4.7 11.6-11 11l-72.4-7.5c-3.8-.4-7.1-3-8.4-6.6-1.2-3.6-.3-7.7 2.4-10.4l7.9-7.9L320 369c-3.9-3.9-3.9-10.2 0-14.1L354.9 320c3.9-3.9 10.2-3.9 14.1 0l37.8 37.8 7.9-7.9c2.7-2.8 6.8-3.7 10.4-2.4 3.6 1.3 6.2 4.6 6.6 8.4Zm68-180c4.9 4 4.9 11.5 0 15.5l-56.5 45.9c-2.9 2.4-7.1 3-10.6 1.3-3.5-1.6-5.7-5.1-5.7-9V290.7H381c-5.5 0-10-4.5-10-10V231.3c0-5.5 4.5-10 10-10h53.5V210.1c0-3.8 2.2-7.3 5.7-9 3.5-1.6 7.6-1.1 10.6 1.3l56.5 45.9Zm-187.5-91c-3.9-3.9-3.9-10.2 0-14.1l37.8-37.8-7.9-7.9c-2.8-2.7-3.7-6.8-2.4-10.4 1.3-3.6 4.6-6.2 8.4-6.6l72.4-7.5c6.3-.6 11.7 4.7 11 11l-7.5 72.4c-.4 3.8-3 7.1-6.6 8.4-3.6 1.2-7.7.3-10.4-2.4l-7.9-7.9-37.8 37.8c-3.9 3.9-10.2 3.9-14.1 0ZM341 256a85 85 0 00-85-85 85 85 0 00-85 85 85 85 0 0085 85 85 85 0 0085-85Z"/>
</svg>
