<svg xmlns="http://www.w3.org/2000/svg">
  <path d="m 30.78908 10.045863 c -1.699143 0.250533 -2.7859 0.928815 -4.010171 2.163615 L 13.396117 25.708552 c -2.913595 2.938906 -2.913595 7.691029 0 10.629935 l 13.382792 13.452039 c 1.224043 1.234567 2.311577 1.899639 4.010171 2.163615 l 0 -4.750544 C 30.502834 47.05349 30.233906 46.878717 29.949743 46.592139 L 16.566951 33.140099 c -1.165524 -1.175502 -1.165524 -3.104542 0 -4.280194 l 13.382792 -13.45204 c 0.284163 -0.286579 0.553091 -0.469349 0.839337 -0.611458 l 0 -4.750545 z m 9.80467 0.141637 c -1.699143 0.250276 -2.775729 0.922721 -4 2.15625 l -13.375 13.46875 c -2.913595 2.935879 -2.913595 7.689122 0 10.625 l 13.375 13.40625 c 1.124642 1.133143 2.150999 1.759399 3.625 2.0625 0.130279 0.02679 0.237062 0.07234 0.375 0.09375 L 55 52 c 4.015917 0.0033 7.28125 -3.344582 7.28125 -7.46875 l 0 -26.875 C 62.28125 13.532082 59.015918 10.1875 55 10.1875 l -14.40625 0 z m 0 4.46875 0.03125 0 14.375 0 c 1.60643 0 2.90625 1.350274 2.90625 3 l 0 26.875 c 0 1.64958 -1.29982 3 -2.90625 3 l -14.375 0 C 40.33876 47.381298 40.065413 46.973783 39.78125 46.6875 L 26.375 33.25 c -1.165524 -1.174291 -1.165524 -3.106809 0 -4.28125 l 13.40625 -13.4375 c 0.277443 -0.279514 0.533629 -0.722333 0.8125 -0.875 z M 21.654201 10.129086 c -1.699143 0.250533 -2.7859 0.928815 -4.010171 2.163615 L 4.2612387 25.791775 c -2.913595 2.938906 -2.913595 7.691029 0 10.629935 L 17.64403 49.873749 c 1.224043 1.234567 2.311577 1.899639 4.010171 2.163615 l 0 -4.750544 C 21.367955 47.136713 21.099027 46.96194 20.814864 46.675362 L 7.4320727 33.223322 c -1.165524 -1.175502 -1.165524 -3.104542 0 -4.280194 L 20.814864 15.491088 c 0.284163 -0.286579 0.553091 -0.469349 0.839337 -0.611458 l 0 -4.750545 z m 33.274289 26.838097 -5.80829 -5.785364 5.80829 -5.78548 -3.02571 -3.013715 -5.80817 5.78548 -5.80829 -5.78548 -3.02559 3.013715 5.80828 5.78548 -5.80828 5.785364 3.02559 3.013831 5.80829 -5.78548 5.80817 5.78548 3.02571 -3.013831 z"/>
</svg>
