<svg xmlns="http://www.w3.org/2000/svg">
  <path d="M 7.6804306 27.95286 24.89479 10.738501 c 1.833485 -1.8334857 4.806249 -1.8334857 6.639734 0 1.833486 1.833486 1.833486 4.806249 0 6.639735 l -9.199979 9.199354 h 24.6591 0 c 3.203749 0 6.408123 1.222532 8.852562 3.666971 4.888879 4.888878 4.888879 12.816247 0 17.705125 -1.833485 1.833486 -4.806249 1.833486 -6.639734 0 -1.833486 -1.833486 -1.833486 -4.806249 0 -6.639735 1.222532 -1.222532 1.222532 -3.203748 0 -4.426281 -0.610954 -0.610953 -1.411578 -0.91643 -2.212828 -0.91643 h 0 v 0 h -24.6591 l 9.199979 9.19998 c 1.833486 1.833485 1.833486 4.806249 0 6.639735 -1.833485 1.833485 -4.806249 1.833485 -6.639734 0 L 13.213439 40.124977 7.6804306 34.591969 c -1.833486 -1.833485 -1.833486 -4.805623 0 -6.639109 z"/>
</svg>
