<svg xmlns="http://www.w3.org/2000/svg">
  <path d="M340.5 156.3s0 0 0 0Zm-169.1.1s0 0 0 0Zm84.8 221.8c-4.9 0-9.7 1.3-14 3.9L121.9 454 153 317.1c2.3-9.7-1-19.9-8.6-26.5L38.9 198.1l139.6-12.7c10-.9 18.6-7.2 22.5-16.4L256.1 39.9l55.1 129c3.9 9.3 12.6 15.6 22.6 16.5l139.5 12.7-105.5 92.5c-7.5 6.6-10.8 16.8-8.6 26.5L390.3 454 270 382.1c-4.4-2.6-9.2-3.9-14-3.9ZM114.4 491.1c4.9 0 9.7-1.3 14-3.9L255.8 411l127.4 76.2c9.3 5.6 21.1 5.1 29.9-1.3 8.9-6.4 13-17.4 10.6-28.1L390.8 312.7l111.7-97.9c8.3-7.2 11.4-18.5 8-28.9-3.3-10.4-12.5-17.7-23.4-18.7L339.3 153.8 280.9 17C276.6 7 266.8.5 255.9.5S235.2 7 230.9 17L172.5 153.7 24.7 167.1c-10.9 1-20 8.3-23.4 18.7-3.3 10.4-.2 21.7 8 28.9l111.7 98L88.1 457.8c-2.4 10.7 1.7 21.7 10.6 28.1 4.7 3.4 10.3 5.2 15.9 5.2Z"/>
</svg>
