<svg xmlns="http://www.w3.org/2000/svg">
  <path d="M600.414,406.63L415.065,221.252c-12.516-12.486-28.898-18.742-45.297-18.742s-32.785,6.243-45.313,18.742 c-25.016,25.045-25.016,65.595,0,90.624L484.53,471.937L324.456,631.989c-25.016,25.03-25.016,65.581,0,90.617 c25.029,25.009,65.566,25.009,90.609,0l204.797-204.788l2.474-3.043l43.284-43.298l-65.034-65.035L600.414,406.63z M886.556,288.444c-22.986-54.317-55.898-103.126-97.787-145.027c-41.903-41.904-90.711-74.816-145.057-97.804 c-56.26-23.792-116.028-35.86-177.624-35.86c-61.595,0-121.349,12.068-177.652,35.86c-54.316,22.987-103.111,55.899-145.027,97.804 c-41.889,41.901-74.801,90.71-97.789,145.027C21.827,344.731,9.745,404.486,9.745,466.097c0,61.588,12.082,121.357,35.875,177.63 c22.988,54.339,55.9,103.14,97.789,145.042c41.916,41.896,90.711,74.809,145.027,97.796c56.303,23.8,116.057,35.861,177.652,35.861 c61.596,0,121.364-12.062,177.624-35.861c54.346-22.987,103.153-55.899,145.057-97.796c41.889-41.902,74.801-90.702,97.787-145.041 c23.808-56.273,35.877-116.043,35.877-177.631C922.433,404.486,910.364,344.731,886.556,288.444z M466.088,882.329 c-229.523,0-416.238-186.723-416.238-416.232c0-229.523,186.715-416.239,416.238-416.239 c229.524,0,416.239,186.716,416.239,416.239C882.328,695.607,695.613,882.329,466.088,882.329z"/>
</svg>
