<svg xmlns="http://www.w3.org/2000/svg">
  <path d="M875.765,638.806H92.414V293.374h783.351c19.882,0,36-16.118,36-36s-16.118-36-36-36H90.72 c-38.767,0-70.306,31.539-70.306,70.306V640.5c0,38.768,31.539,70.307,70.306,70.307h785.045c19.882,0,36-16.118,36-36 S895.647,638.806,875.765,638.806z M456.699,411.232l-21.203,59.811l-21.206-59.812c-0.006-0.017-0.014-0.032-0.021-0.049 c-0.124-0.345-0.271-0.682-0.419-1.017c-0.055-0.124-0.1-0.253-0.157-0.375c-0.012-0.026-0.028-0.05-0.041-0.076 c-0.352-0.73-0.766-1.414-1.219-2.062c-0.08-0.114-0.15-0.234-0.233-0.346c-0.176-0.238-0.37-0.459-0.559-0.686 c-0.125-0.15-0.243-0.307-0.375-0.453c-0.157-0.173-0.328-0.331-0.492-0.496c-0.183-0.185-0.36-0.374-0.554-0.549 c-0.124-0.112-0.256-0.21-0.383-0.317c-0.248-0.21-0.494-0.422-0.756-0.616c-0.073-0.054-0.151-0.099-0.225-0.152 c-0.835-0.595-1.744-1.107-2.716-1.53c-0.305-0.133-0.609-0.268-0.922-0.38c-0.019-0.007-0.036-0.016-0.054-0.022 c-0.155-0.055-0.313-0.09-0.469-0.14c-0.298-0.095-0.595-0.192-0.899-0.269c-0.226-0.057-0.452-0.095-0.679-0.141 c-0.252-0.051-0.504-0.107-0.759-0.146c-0.258-0.039-0.514-0.059-0.771-0.084c-0.228-0.022-0.455-0.05-0.685-0.061 c-0.276-0.014-0.549-0.01-0.824-0.008c-0.213,0.001-0.426-0.004-0.64,0.006c-0.292,0.014-0.581,0.046-0.87,0.078 c-0.197,0.021-0.393,0.035-0.589,0.064c-0.319,0.047-0.634,0.114-0.948,0.182c-0.166,0.035-0.331,0.062-0.497,0.103 c-0.371,0.093-0.735,0.208-1.097,0.328c-0.099,0.033-0.199,0.054-0.297,0.089c-0.012,0.004-0.023,0.01-0.036,0.015 c-0.413,0.148-0.816,0.318-1.214,0.501c-0.059,0.027-0.122,0.048-0.18,0.075c-0.439,0.208-0.868,0.438-1.285,0.688 c-0.252,0.152-0.489,0.322-0.73,0.487c-0.161,0.11-0.328,0.21-0.485,0.326c-0.218,0.162-0.421,0.341-0.629,0.513 c-0.169,0.14-0.344,0.272-0.507,0.42c-0.166,0.15-0.316,0.313-0.474,0.47c-0.191,0.189-0.387,0.373-0.568,0.573 c-0.112,0.124-0.211,0.257-0.319,0.385c-0.209,0.247-0.42,0.491-0.613,0.752c-0.065,0.088-0.12,0.182-0.183,0.271 c-0.464,0.656-0.884,1.351-1.244,2.091c-0.02,0.04-0.044,0.077-0.063,0.117c-0.056,0.118-0.1,0.245-0.153,0.365 c-0.151,0.339-0.298,0.679-0.424,1.028c-0.006,0.016-0.014,0.031-0.02,0.047l-21.205,59.813l-21.205-59.813 c-2.769-7.809-11.343-11.893-19.15-9.125c-7.808,2.768-11.894,11.342-9.125,19.15l35.343,99.69 c2.123,5.987,7.786,9.988,14.138,9.988s12.015-4.001,14.138-9.988l21.205-59.813l21.206,59.814 c2.123,5.986,7.786,9.987,14.138,9.987s12.016-4.001,14.138-9.988l35.34-99.691c2.769-7.808-1.317-16.382-9.126-19.149 C468.04,399.336,459.468,403.424,456.699,411.232z M635.985,411.232l-21.206,59.813l-21.206-59.813c-0.006-0.017-0.014-0.031-0.02-0.047 c-0.124-0.347-0.271-0.684-0.421-1.021c-0.406-0.917-0.895-1.775-1.456-2.57c-0.065-0.093-0.122-0.191-0.19-0.283 c-0.189-0.256-0.396-0.496-0.602-0.738c-0.111-0.132-0.215-0.271-0.331-0.4c-0.174-0.192-0.362-0.368-0.545-0.55 c-0.166-0.165-0.324-0.336-0.498-0.494c-0.148-0.134-0.308-0.253-0.46-0.381c-0.224-0.187-0.443-0.378-0.679-0.553 c-0.118-0.087-0.244-0.162-0.365-0.246c-0.444-0.311-0.91-0.596-1.395-0.859c-0.241-0.131-0.478-0.271-0.726-0.389 c-0.114-0.054-0.236-0.096-0.353-0.147c-0.342-0.152-0.686-0.302-1.038-0.428c-0.018-0.006-0.032-0.014-0.049-0.02 c-0.134-0.047-0.269-0.077-0.402-0.12c-0.323-0.105-0.646-0.209-0.977-0.292c-0.197-0.05-0.395-0.082-0.592-0.124 c-0.283-0.059-0.564-0.12-0.852-0.163c-0.225-0.034-0.449-0.051-0.674-0.073c-0.262-0.027-0.521-0.057-0.785-0.07 c-0.239-0.012-0.477-0.007-0.715-0.007c-0.251,0-0.501-0.005-0.752,0.008c-0.25,0.012-0.495,0.042-0.742,0.066 c-0.24,0.024-0.479,0.042-0.72,0.078c-0.265,0.04-0.525,0.098-0.787,0.151c-0.22,0.045-0.439,0.082-0.658,0.137 c-0.293,0.074-0.579,0.168-0.867,0.259c-0.167,0.053-0.335,0.091-0.502,0.15c-0.021,0.007-0.04,0.018-0.061,0.025 c-0.276,0.1-0.544,0.221-0.814,0.336c-1.054,0.45-2.036,0.999-2.931,1.648c-0.034,0.025-0.071,0.046-0.105,0.072 c-0.285,0.21-0.552,0.438-0.818,0.667c-0.106,0.091-0.219,0.173-0.322,0.267c-0.209,0.189-0.401,0.393-0.599,0.593 c-0.149,0.15-0.305,0.294-0.447,0.451c-0.146,0.162-0.276,0.334-0.415,0.501c-0.176,0.211-0.356,0.417-0.521,0.639 c-0.099,0.133-0.184,0.275-0.277,0.412c-0.184,0.265-0.37,0.527-0.537,0.806c-0.248,0.413-0.476,0.837-0.682,1.272 c-0.051,0.106-0.091,0.222-0.139,0.33c-0.156,0.349-0.309,0.7-0.438,1.061c-0.006,0.016-0.014,0.031-0.02,0.047l-21.204,59.813 l-21.206-59.813c-2.768-7.808-11.34-11.893-19.15-9.125c-7.808,2.768-11.894,11.342-9.125,19.15l35.344,99.691 c2.122,5.986,7.786,9.987,14.138,9.987c6.353,0,12.016-4.001,14.138-9.988l21.204-59.813l21.206,59.813 c2.122,5.986,7.786,9.987,14.138,9.987s12.016-4.001,14.138-9.987l35.344-99.691c2.769-7.808-1.317-16.382-9.125-19.15 C647.327,399.34,638.753,403.423,635.985,411.232z M280.427,411.232l-21.204,59.811l-21.205-59.812c-0.006-0.017-0.014-0.032-0.021-0.049 c-0.125-0.347-0.272-0.685-0.421-1.022c-0.054-0.122-0.098-0.25-0.154-0.369c-0.061-0.127-0.136-0.247-0.2-0.372 c-0.312-0.61-0.661-1.19-1.044-1.741c-0.085-0.123-0.161-0.252-0.25-0.372c-0.171-0.231-0.359-0.445-0.542-0.665 c-0.131-0.158-0.255-0.321-0.393-0.474c-0.15-0.166-0.313-0.316-0.471-0.475c-0.19-0.192-0.374-0.388-0.575-0.57 c-0.113-0.102-0.235-0.192-0.351-0.291c-0.258-0.22-0.515-0.44-0.79-0.644c-0.05-0.037-0.103-0.067-0.153-0.103 c-0.868-0.625-1.817-1.159-2.834-1.597c-0.288-0.125-0.574-0.252-0.87-0.359c-0.02-0.007-0.038-0.017-0.057-0.023 c-0.163-0.058-0.329-0.095-0.492-0.147c-0.29-0.092-0.579-0.187-0.874-0.262c-0.23-0.058-0.46-0.097-0.691-0.144 c-0.249-0.05-0.496-0.106-0.748-0.144c-0.259-0.039-0.519-0.06-0.778-0.084c-0.226-0.022-0.451-0.049-0.679-0.061 c-0.276-0.014-0.55-0.01-0.825-0.008c-0.213,0.001-0.426-0.004-0.64,0.006c-0.292,0.014-0.581,0.046-0.87,0.078 c-0.197,0.021-0.393,0.035-0.589,0.064c-0.319,0.047-0.633,0.114-0.947,0.181c-0.166,0.036-0.332,0.063-0.498,0.104 c-0.371,0.093-0.734,0.208-1.096,0.328c-0.099,0.033-0.199,0.054-0.298,0.089c-0.012,0.004-0.023,0.01-0.036,0.015 c-0.413,0.148-0.816,0.318-1.214,0.501c-0.059,0.027-0.122,0.048-0.18,0.075c-0.439,0.208-0.868,0.438-1.285,0.688 c-0.252,0.152-0.489,0.322-0.73,0.487c-0.161,0.11-0.328,0.21-0.485,0.326c-0.217,0.161-0.418,0.338-0.625,0.51 c-0.171,0.142-0.348,0.275-0.512,0.424c-0.163,0.147-0.311,0.308-0.466,0.462c-0.194,0.192-0.393,0.378-0.576,0.581 c-0.109,0.121-0.206,0.25-0.31,0.375c-0.212,0.25-0.426,0.498-0.622,0.763c-0.06,0.08-0.109,0.167-0.167,0.249 c-0.574,0.809-1.073,1.685-1.486,2.622c-0.146,0.33-0.291,0.66-0.412,1c-0.006,0.017-0.015,0.032-0.021,0.049l-21.205,59.813 l-21.206-59.813c-2.768-7.809-11.346-11.893-19.15-9.125c-7.808,2.768-11.894,11.342-9.125,19.15l35.344,99.691 c2.123,5.986,7.786,9.987,14.138,9.987s12.016-4.001,14.138-9.988l21.205-59.812l21.205,59.813 c2.123,5.986,7.786,9.987,14.138,9.987s12.016-4.001,14.138-9.988l35.341-99.69c2.768-7.809-1.317-16.382-9.126-19.15 C291.77,399.338,283.195,403.424,280.427,411.232z M765.48,382.694c-37.484,0-67.98,30.496-67.98,67.979s30.496,67.98,67.98,67.98c12.917,0,25.004-3.623,35.299-9.904 l36.343,36.343c2.929,2.929,6.768,4.394,10.606,4.394s7.678-1.465,10.606-4.394c5.858-5.857,5.858-15.355,0-21.213l-36.001-36.001 c7.024-10.698,11.127-23.478,11.127-37.205C833.46,413.19,802.964,382.694,765.48,382.694z M727.5,450.674 c0-20.942,17.038-37.979,37.98-37.979s37.98,17.038,37.98,37.979s-17.038,37.98-37.98,37.98S727.5,471.616,727.5,450.674z"/>
</svg>
