<svg xmlns="http://www.w3.org/2000/svg">
  <path d="M12.9 3A3.6 3.6 0 009.4 5.5L8.9 7H4.7A3.7 3.7 0 001 10.7V25.4A3.7 3.7 0 004.7 29H27.4A3.7 3.7 0 0031 25.3V10.6A3.7 3.7 0 0027.3 7H23.1l-.5-1.5A3.6 3.6 0 0019.1 3H12.9zm0 2h6.2a1.6 1.6 0 011.6 1.1l.7 2.2a1 1 0 00.9.7h5A1.7 1.7 0 0129 10.7V25.3A1.7 1.7 0 0127.3 27H4.7A1.7 1.7 0 013 25.3V10.6A1.7 1.7 0 014.7 9h5a1 1 0 00.9-.7l.7-2.2A1.6 1.6 0 0112.9 5zM16 10a7.5 7.5 0 107.5 7.5A7.5 7.5 0 0016 10zm10 1a1 1 0 00-1 1 1 1 0 001 1 1 1 0 001-1 1 1 0 00-1-1zm-9.7 1a5.5 5.5 0 015.2 5.5A5.5 5.5 0 0116 23a5.5 5.5 0 11.3-11z"/>
</svg>
