<svg xmlns="http://www.w3.org/2000/svg">
  <path d="M 45.520,179.090 C 45.520,172.000 39.770,166.250 32.680,166.250 C 25.590,166.250 19.840,172.000 19.840,179.090 C 19.840,186.180 25.590,191.930 32.680,191.930 C 39.770,191.930 45.520,186.180 45.520,179.090 Z M 45.800,305.779 C 45.800,298.699 40.050,292.949 32.950,292.949 C 25.870,292.949 20.110,298.699 20.110,305.779 C 20.110,312.869 25.870,318.619 32.950,318.619 C 40.050,318.619 45.800,312.869 45.800,305.779 Z M 45.800,241.470 C 45.800,234.378 40.050,228.619 32.950,228.619 C 25.870,228.619 20.110,234.378 20.110,241.470 C 20.110,248.550 25.870,254.311 32.950,254.311 C 40.050,254.311 45.800,248.550 45.800,241.470 Z M 620.330,443.510 L 620.330,439.410 L 620.330,87.110 C 620.330,72.420 608.881,60.520 594.740,60.520 L 91.060,60.520 C 76.940,60.520 65.490,72.420 65.490,87.110 L 65.490,441.070 L 65.490,443.510 C 65.490,445.627 65.730,447.689 66.180,449.656 C 68.850,461.367 78.980,470.098 91.060,470.098 L 97.280,470.098 L 177.420,470.098 L 287.430,470.098 L 397.449,470.098 L 507.471,470.098 L 588.529,470.098 L 594.740,470.098 C 604.881,470.098 613.641,463.967 617.779,455.086 C 619.410,451.590 620.330,447.660 620.330,443.510 Z M 664.311,180.190 C 664.311,173.110 658.551,167.350 651.461,167.350 C 644.369,167.350 638.619,173.110 638.619,180.190 C 638.619,187.290 644.369,193.040 651.461,193.040 C 658.551,193.040 664.311,187.290 664.311,180.190 Z M 664.580,306.891 C 664.580,299.811 658.830,294.051 651.730,294.051 C 644.650,294.051 638.891,299.811 638.891,306.891 C 638.891,313.980 644.650,319.730 651.730,319.730 C 658.830,319.730 664.580,313.980 664.580,306.891 Z M 664.580,242.580 C 664.580,235.490 658.830,229.730 651.730,229.730 C 644.650,229.730 638.891,235.490 638.891,242.580 C 638.891,249.660 644.650,255.410 651.730,255.410 C 658.830,255.410 664.580,249.660 664.580,242.580 Z M 686.131,25.650 L 686.131,495.240 C 686.131,509.129 674.869,520.391 660.980,520.391 L 501.480,520.391 L 469.320,520.391 L 210.940,520.391 L 178.790,520.391 L 25.640,520.391 C 11.760,520.391 0.500,509.127 0.500,495.240 L 0.500,25.650 C 0.500,11.760 11.760,0.500 25.640,0.500 L 230.350,0.500 L 455.461,0.500 L 660.980,0.500 C 674.869,0.500 686.131,11.760 686.131,25.650 ZM 606.518,452.012 L 606.748,452.132 C 603.438,459.236 596.430,464.140 588.317,464.140 L 583.349,464.140 L 518.502,464.140 L 518.502,459.947 L 518.502,416.460 L 606.518,416.460 L 606.518,452.012 L 606.518,452.012 Z M 518.473,361.594 L 606.488,361.594 L 606.488,405.066 L 518.473,405.066 L 518.473,361.594 Z M 518.473,307.245 L 606.488,307.245 L 606.488,350.726 L 518.473,350.726 L 518.473,307.245 Z M 518.473,252.895 L 606.488,252.895 L 606.488,296.375 L 518.473,296.375 L 518.473,252.895 Z M 518.473,198.545 L 606.488,198.545 L 606.488,242.024 L 518.473,242.024 L 518.473,198.545 Z M 386.447,459.947 L 386.447,464.140 L 298.432,464.140 L 298.432,459.947 L 298.432,416.460 L 386.447,416.460 L 386.447,459.947 Z M 298.432,361.594 L 386.447,361.594 L 386.447,405.066 L 298.432,405.066 L 298.432,361.594 Z M 298.432,307.245 L 386.447,307.245 L 386.447,350.726 L 298.432,350.726 L 298.432,307.245 Z M 298.432,252.895 L 386.447,252.895 L 386.447,296.375 L 298.432,296.375 L 298.432,252.895 Z M 496.469,459.947 L 496.469,464.140 L 408.451,464.140 L 408.451,459.947 L 408.451,416.460 L 496.469,416.460 L 496.469,459.947 Z M 408.451,361.594 L 496.469,361.594 L 496.469,405.066 L 408.451,405.066 L 408.451,361.594 Z M 408.451,307.245 L 496.469,307.245 L 496.469,350.726 L 408.451,350.726 L 408.451,307.245 Z M 408.451,252.895 L 496.469,252.895 L 496.469,296.375 L 408.451,296.375 L 408.451,252.895 Z M 408.451,198.545 L 496.469,198.545 L 496.469,242.024 L 408.451,242.024 L 408.451,198.545 Z M 298.432,198.545 L 386.447,198.545 L 386.447,242.024 L 298.432,242.024 L 298.432,198.545 Z M 276.429,459.947 L 276.429,464.140 L 188.421,464.140 L 188.421,459.947 L 188.421,416.460 L 276.429,416.460 L 276.429,459.947 Z M 188.421,361.594 L 276.429,361.594 L 276.429,405.066 L 188.421,405.066 L 188.421,361.594 Z M 188.421,307.245 L 276.429,307.245 L 276.429,350.726 L 188.421,350.726 L 188.421,307.245 Z M 188.421,252.895 L 276.429,252.895 L 276.429,296.375 L 188.421,296.375 L 188.421,252.895 Z M 188.421,198.545 L 276.429,198.545 L 276.429,242.024 L 188.421,242.024 L 188.421,198.545 Z M 166.296,459.947 L 166.296,464.140 L 102.184,464.140 L 97.208,464.140 C 87.544,464.140 79.440,457.155 77.304,447.788 L 78.280,447.572 L 78.280,416.460 L 166.296,416.460 L 166.296,459.947 Z M 78.402,361.594 L 166.418,361.594 L 166.418,405.066 L 78.402,405.066 L 78.402,361.594 Z M 78.402,307.245 L 166.418,307.245 L 166.418,350.726 L 78.402,350.726 L 78.402,307.245 Z M 78.402,252.895 L 166.418,252.895 L 166.418,296.375 L 78.402,296.375 L 78.402,252.895 Z M 78.402,198.545 L 166.418,198.545 L 166.418,242.024 L 78.402,242.024 L 78.402,198.545 Z"/>
</svg>
