<svg xmlns="http://www.w3.org/2000/svg">
  <path d="M 5.8736393,5.9284225 C 5.6592725,5.9500054 5.5374842,6.1483344 5.3707862,6.2563816 4.9084347,6.6386537 4.435673,7.0111876 3.9798299,7.3995491 3.8746461,7.5721707 3.9461185,7.7841326 3.9251275,7.9742746 c 0.00366,1.157027 -0.00731,2.3149174 0.00548,3.4714044 0.039749,0.208622 0.2905953,0.214067 0.4695065,0.200873 0.6369068,0 1.2738136,0 1.9107202,0 0.00365,0.454551 -0.0073,0.909968 0.00548,1.363982 0.037206,0.199576 0.2759093,0.216567 0.4501397,0.200871 1.2127903,-0.0033 2.4264437,0.0066 3.6386951,-0.0048 0.214284,-0.03377 0.234028,-0.256114 0.216765,-0.418533 -9.56e-4,-1.68966 0.0019,-3.3794094 -0.0014,-5.0690117 -0.01478,-0.1926677 -0.23992,-0.2504064 -0.41305,-0.225701 -0.657481,7.591e-4 -1.3150412,-0.00152 -1.9724747,0.00115 C 8.2314971,7.0399424 8.2419377,6.584572 8.2297053,6.1305067 8.1935158,5.9308082 7.9548971,5.9124096 7.7805901,5.928494 c -0.6356501,0 -1.2712995,0 -1.9069492,0 z m 0.101079,0.5027052 c 0.5735933,0 1.1471866,0 1.7207801,0 0,0.4800096 0,0.9600192 0,1.4400289 -0.4417762,0.3654892 -0.8932916,0.721832 -1.3289772,1.093041 -0.106797,0.1722 -0.034493,0.384737 -0.055684,0.574931 0,0.5349064 0,1.0698124 0,1.6047174 -0.6154049,0 -1.2308101,0 -1.8462151,0 0,-1.1593604 0,-2.3187224 0,-3.4780835 0.5033656,-0.411545 1.0067313,-0.82309 1.5100962,-1.2346348 z m 2.3869274,1.564854 c 0.5735925,0 1.1471862,0 1.7207793,0 0,1.5709059 0,3.1418123 0,4.7127193 -1.0773653,0 -2.1547294,0 -3.2320941,0 0,-0.354051 0,-0.7081 0,-1.062149 0.3980022,-0.0075 0.799189,0.01502 1.1951936,-0.01137 0.2408196,-0.06787 0.1852123,-0.32867 0.1894674,-0.507953 0,-1.009326 0,-2.0186534 0,-3.0279807 0.042222,-0.034422 0.084435,-0.068843 0.1266538,-0.1032649 z M 7.6954984,8.5406735 c 0,0.8677241 0,1.7354485 0,2.6031725 -0.2817226,0 -0.563445,0 -0.8451675,0 0,-0.637742 0,-1.2754864 0,-1.9132294 0.2817225,-0.229981 0.5634449,-0.459962 0.8451675,-0.6899431 z"/>
</svg>
