<svg xmlns="http://www.w3.org/2000/svg">
  <path d="M92.3 302.2c2.8-2.8 4.4-6.6 4.4-10.6s-1.6-7.8-4.4-10.6c-2.8-2.8-6.6-4.4-10.6-4.4s-7.8 1.6-10.6 4.4c-2.8 2.8-4.4 6.6-4.4 10.6s1.6 7.8 4.4 10.6c2.8 2.8 6.6 4.4 10.6 4.4s7.8-1.6 10.6-4.4Zm14.1-35.4c6.7 6.6 10.3 15.4 10.3 24.7s-3.7 18.1-10.3 24.7c-6.6 6.7-15.4 10.3-24.7 10.3S63.6 322.8 57 316.2c-6.7-6.6-10.3-15.4-10.3-24.7s3.7-18.1 10.3-24.7c6.6-6.7 15.4-10.3 24.7-10.3s18.1 3.7 24.7 10.3Zm381-111.3-163.5 48.8L308.8 255l172.5-77.9ZM356.8 24.6l-21.7 6.1L222.4 280.5l3.6 36.7 9.4-24.1c2-5.1 7.8-7.7 12.9-5.7s7.7 7.8 5.7 12.9l-23.9 61.5c-.1.3-.3.6-.4.9-.4 1.4-1.1 2.7-2.1 3.8-1.8 2.1-4.4 3.3-7.2 3.4-26.2.9-48.9 18.5-56.4 43.6-9.7 32.3 8.7 66.4 41 76 5.7 1.7 11.6 2.6 17.5 2.6 26.8 0 50.8-17.9 58.5-43.6 7.6-25.3-1.9-52.4-23.5-67.5-3.6-2.5-5.1-7-3.9-11.1Zm-136 210.5-78.7 23.5c-4.2 1.2-8.6-.4-11.1-3.9-15.1-21.6-42.2-31-67.5-23.5-32.2 9.7-50.6 43.7-41 76 9.7 32.2 43.7 50.6 76 41 25.2-7.5 42.7-30.2 43.6-56.4.1-2.8 1.3-5.4 3.4-7.2 2.1-1.8 4.9-2.7 7.6-2.4l49.7 4.9-.7-7.2c-.2-1.8.1-3.5.8-5.1ZM509.2 133.5c2.6 2.5 3.6 6.3 2.6 9.8L499.4 187c-.8 2.8-2.8 5.2-5.5 6.4L301.3 280.3 274.8 369c24.5 20.7 34.7 54 25.4 85.2-5.1 17-15.4 31.6-29.7 42.1-13.9 10.2-30.9 15.8-48 15.8-7.8 0-15.6-1.1-23.2-3.4-42.8-12.8-67.3-58.1-54.5-100.9 8.9-30 34-51.8 64.2-56.8l-4.3-43.7L161 303c-5.1 30.1-26.9 55.3-56.8 64.2-7.7 2.3-15.4 3.4-23.1 3.4-34.9 0-67.2-22.8-77.7-57.9-12.8-42.8 11.7-88.1 54.5-100.8 31.2-9.4 64.5.8 85.2 25.4l88.6-26.5L318.6 18.3c1.2-2.7 3.6-4.7 6.4-5.5L368.7.4c3.5-1 7.2 0 9.8 2.6 2.6 2.6 3.5 6.4 2.5 9.9L330.7 181.3 499.1 131c3.5-1 7.3-.1 9.9 2.5ZM233.1 441.6c5.8-5.8 5.8-15.4 0-21.2-2.8-2.8-6.6-4.4-10.6-4.4s-7.8 1.6-10.6 4.4-4.4 6.6-4.4 10.6 1.6 7.8 4.4 10.6c2.8 2.8 6.6 4.4 10.6 4.4s7.8-1.6 10.6-4.4Zm14.1-35.5c13.6 13.6 13.6 35.9 0 49.5-6.6 6.7-15.4 10.3-24.7 10.3-9.3 0-18.1-3.7-24.7-10.3-6.7-6.6-10.3-15.4-10.3-24.7s3.7-18.1 10.3-24.7c6.6-6.7 15.4-10.3 24.7-10.3 9.3 0 18.1 3.7 24.7 10.3ZM259 259.4c5.1 2 7.7 7.8 5.7 12.9l-.1.3c-1.5 4-5.3 6.4-9.3 6.4-1.2 0-2.4-.2-3.6-.7-5.1-2-7.7-7.8-5.7-12.9l.1-.3c2-5.1 7.7-7.7 12.9-5.7Z"/>
</svg>
