<svg xmlns="http://www.w3.org/2000/svg">
  <path d="M13 13c-.3 0-.5-.1-.7-.3L10 10.4l-2.3 2.3c-.4.4-1 .4-1.4 0-.4-.4-.4-1-0-1.4L8.6 9l-2.3-2.3c-.4-.4-.4-1-0-1.4.4-.4 1-.4 1.4-0L10 7.6l2.3-2.3c.4-.4 1-.4 1.4-0 .4.4.4 1 0 1.4L11.4 9 13.7 11.3c.4.4.4 1 0 1.4-.2.2-.4.3-.7.3ZM15.3 16c.9-0 1.6-.3 2-.9.1-0 .1-0 .1-0L20.8 11.7s0 0 0 0C21.6 11 22 10 22 9s-.4-2-1.1-2.7l-3.4-3.4c-.6-.6-1.4-.9-2.1-.9H5c-1.6 0-3 1.4-3 3V13c0 1.6 1.4 3 3 3H15.3Zm0 2H5c-2.8 0-5-2.2-5-5v-8c-0-2.8 2.2-5 5-5H15.4c1.3-0 2.5.5 3.5 1.5L22.3 4.9C23.4 6 24 7.4 24 9S23.4 12 22.2 13.1L18.8 16.5C17.9 17.5 16.6 18 15.3 18Z"/>
</svg>
