<svg xmlns="http://www.w3.org/2000/svg">
  <path d="M48.9 38.1a18.1 18.1 0 015.1 5.9 19.9 19.9 0 00-2.4-5.9 18.5 18.5 0 00-6.6-6.2 24.4 24.4 0 00-9.1-2.9A29.5 29.5 0 0024 30a12.9 12.9 0 014.6 3.2 28.1 28.1 0 0111.6.7 26 26 0 018.6 4.1ZM17 20.9a28.4 28.4 0 0112-1.3 33.2 33.2 0 019.9 2.6 33.6 33.6 0 017.2 4.2 16.4 16.4 0 00-1.9-1.7 30.3 30.3 0 00-8.5-4.6A31.4 31.4 0 0024.3 18.3 23.3 23.3 0 0012.3 21.8 16.9 16.9 0 007.5 26.6 14.5 14.5 0 005.5 30.8a9.6 9.6 0 00-.4 2.7 13.3 13.3 0 011.8-4.9 16.6 16.6 0 013.9-4.4 21.1 21.1 0 016.2-3.4ZM12.5 31.7a5.9 5.9 0 01-2.2 1.9 2.1 2.1 0 001.3-.3 2.3 2.3 0 00.9-1.6ZM9.7 33.3a5.8 5.8 0 012.7-2 1.9 1.9 0 00-2 .1 2.2 2.2 0 00-.7 1.9Zm7 3.8a30.2 30.2 0 004.3-1.3A17.1 17.1 0 0119.1 33.8a6.8 6.8 0 00-4.1-.9 6.6 6.6 0 00-3.7 1.6 12.7 12.7 0 00-1.4 1.5A37.5 37.5 0 013.2 41.4a6 6 0 01-2 1 4.8 4.8 0 003-.6 31.7 31.7 0 007.9-5.4c-.2.5-.5 1-.7 1.5a49.6 49.6 0 005.2-.8Zm46.8 1.2c0 .2-.1.4-.3.5a5.7 5.7 0 01-1.1.4 5.5 5.5 0 00-2.7 1.7 2.9 2.9 0 00-.8 2 3.2 3.2 0 001 1.5 2.4 2.4 0 01.7 1.8.5.5 0 01-.5.5 11.5 11.5 0 01-1.9-.4 4.7 4.7 0 00-2.9.5 6 6 0 00-2.4 2.1 23.6 23.6 0 00-1.7 3.8 2 2 0 01-.7.9c-.4.1-.7-.2-.8-.5a7.2 7.2 0 01-.7-3.4 15.5 15.5 0 012.6-7.9 20.3 20.3 0 00-6.7-5A28 28 0 0033.5 34.1a20.1 20.1 0 00-3.7.2 11.7 11.7 0 003.3 1.6c.3.1.8.2.9.6.1.3-.2.5-.5.6a9.3 9.3 0 01-3.7.9 13.1 13.1 0 01-7.6-1.5 28.7 28.7 0 01-4.4 1.4 47.7 47.7 0 01-6.7 1c-.2 0-.3.1-.4.2A27.9 27.9 0 017 41.7 16.7 16.7 0 013.2 43.4a2.8 2.8 0 01-1.8-.1A1.5 1.5 0 01.5 41.9a2.4 2.4 0 01.8-1.5 17.3 17.3 0 002.8-3.3 15.3 15.3 0 012.9-11.9 18.2 18.2 0 015.2-4.7 27.2 27.2 0 0111.8-3.6c1-.1 2-.1 3-.1a15.8 15.8 0 016.9-5.8 8.8 8.8 0 015.5-.6c.2.1.6.2.5.5-.2.4-.6.6-.9.8a5.8 5.8 0 00-2.2 2.2 3.2 3.2 0 000 3 6.6 6.6 0 001.1 1.4 2.1 2.1 0 00.6.3 27.7 27.7 0 017.4 4.9 28 28 0 015.5 7.2 33.8 33.8 0 012.9 7.1 7.7 7.7 0 014.1-1.2 8.6 8.6 0 014.3 1.1 1.5 1.5 0 01.6.6Z"/>
</svg>
