<svg xmlns="http://www.w3.org/2000/svg">
  <path d="M466.09,677.314L299.684,510.909c-3.904-3.905-9.023-5.857-14.142-5.857s-10.237,1.953-14.143,5.858 c-7.81,7.81-7.81,20.474,0,28.284L451.948,719.74c3.75,3.751,8.837,5.858,14.142,5.858c5.304,0,10.392-2.107,14.142-5.858 l180.546-180.546c7.811-7.811,7.811-20.475,0-28.285s-20.474-7.811-28.284,0.001L466.09,677.314z M451.946,600.918c7.812,7.809,20.474,7.809,28.285,0l115.523-115.523c7.811-7.811,7.811-20.475,0-28.285 c-7.811-7.809-20.474-7.809-28.284,0L466.089,558.492L364.708,457.11c-3.905-3.904-9.024-5.857-14.143-5.857 s-10.237,1.953-14.143,5.857c-7.811,7.811-7.811,20.475,0,28.285L451.946,600.918z"/>
</svg>
