<svg xmlns="http://www.w3.org/2000/svg">
  <path d="m 30.118354 21.59225 c 2.771821 1.273418 -0.55976 5.388823 -1.78606 9.637493 h 12.279867 c 0.136567 -0.133263 0.273697 -0.266527 0.423191 -0.388441 l 0.02361 -15.01299 c 0 -2.124827 1.959159 -3.843447 4.376354 -3.843447 h 2.187895 c 2.416633 0 4.375792 1.71862 4.375792 3.843447 0 0 0 11.698652 0 19.214278 0 3.183542 -2.938739 5.76443 -6.563687 5.76443 l -17.142917 0.03356 c 1.192017 4.57887 4.850126 7.496377 1.827086 9.573822 -2.287366 1.572034 -20.118746 -12.24898 -20.118746 -14.167987 0 -1.918516 17.645354 -15.790366 20.117626 -14.654163 z"/>
</svg>
