<svg xmlns="http://www.w3.org/2000/svg">
  <path d="m311.8 123c-6.2-6.2-6.2-16.4 0-22.6 6.2-6.2 16.4-6.2 22.6 0l75.5 75.5c6.2 6.2 6.2 16.4 0 22.6-3.1 3.1-7.2 4.7-11.3 4.7s-8.2-1.6-11.3-4.7zM512 494.3c0 8.8-7.2 16-16 16 0 0-315.4.1-315.4.1-17 0-34.1-5.4-48.4-14.4-6.3-4-12.2-8.7-17.5-13.9 0 0-86.4-86.4-86.4-86.4-34.6-34.6-38-87.5-7.6-117.9L275.9 22.6c30.4-30.4 83.3-27 117.9 7.6l86.4 86.4c34.6 34.6 38 87.5 7.6 117.9l-244 244h252.1c8.8 0 16 7.2 16 16zM106.2 237.5l166.6 166.6 192.4-192.4c17.9-17.9 14.6-50.5-7.6-72.7l-86.4-86.4C358.6 40 342.7 33.5 328 33.5c-11.2 0-21.7 3.8-29.4 11.5zm31.2 221.9c22.1 22.1 54.7 25.5 72.7 7.6l40.2-40.2-166.6-166.6-40.2 40.2c-17.9 17.9-14.6 50.5 7.6 72.7z"/>
</svg>
