<svg xmlns="http://www.w3.org/2000/svg">
  <path d="m 45.905685,21.734856 6.457405,0 0,4.304932 -6.457405,0 z m -8.464069,-0.0057 6.457404,0 0,4.304932 -6.457404,0 z m -8.464027,0 6.457404,0 0,4.304932 -6.457404,0 z m -8.441943,0 6.457405,0 0,4.304932 -6.457405,0 z m -8.468591,4.27e-4 6.457404,0 0,4.304933 -6.457404,0 z M 59.53329,51.066582 4.8860683,51.0665 l 0,-38.905796 54.6472217,8.4e-5 0,38.905794 z m -4.751899,-5.985551 -6.7e-5,-26.934776 -45.1433516,0 0,26.934776 45.1434186,0 z M 20.043162,28.159172 c -2.401283,2.401283 -3.556694,5.576688 -3.466186,8.72289 l -4.151991,-4.15199 3.4e-5,4.57091 6.094502,6.094536 6.094578,-6.094537 -4.2e-5,-4.570915 -4.258757,4.258757 c -0.122718,-2.215108 0.662046,-4.471107 2.354226,-6.163288 l 0.812149,-0.711474 -2.682552,-2.682554 -0.795961,0.727664 z"/>
</svg>
