<svg xmlns="http://www.w3.org/2000/svg">
  <path d="M226 320c-9.9 0-18 8.1-18 18V464h96V338c0-9.9-8.1-18-18-18H226ZM256 48c-10.8 0-21.5 4.1-29.7 12.3L72 214.6V450c0 7.7 6.3 14 14 14h90V338c0-27.6 22.4-50 50-50h60c27.6 0 50 22.4 50 50V464h90c7.7 0 14-6.3 14-14V214.6L285.7 60.3C277.5 52.1 266.8 48 256 48Zm0-32c18.9 0 37.9 7.2 52.3 21.7l199 198.9c6.3 6.3 6.3 16.4 0 22.7-3.1 3.1-7.2 4.7-11.3 4.7s-8.2-1.6-11.3-4.7L472 246.6V450c0 25.3-20.6 46-46 46H320 192 86c-25.4 0-46-20.7-46-46V246.6L27.3 259.3c-6.2 6.2-16.4 6.2-22.6 0-6.3-6.3-6.3-16.4 0-22.7l199-198.9C218.1 23.2 237.1 16 256 16Z"/>
</svg>
