<svg xmlns="http://www.w3.org/2000/svg">
  <path d="M8.8 4.6c-2.7 0-4.9 2.1-4.9 4.8v1.1V23.3 41.5c0 2.7 2.2 4.9 4.9 4.9H40.9c2.7 0 4.9-2.2 4.9-4.9V23.3 16.9 10.5 9.4c0-2.7-2.2-4.8-4.9-4.8H8.8zm0 3.2H40.9c.9 0 1.6.7 1.6 1.6v1.1 4.8H7.2V10.5 9.4c0-.9.7-1.6 1.6-1.6zM7.2 18.5H42.5v4.8V41.5c0 .9-.7 1.7-1.6 1.7H8.8c-.9 0-1.6-.8-1.6-1.7V23.3 18.5zm11.1 6.6c-2.9 0-5.3 2.3-5.3 5.2s2.4 5.3 5.3 5.3c2.8 0 5.2-2.4 5.2-5.3 0-.1 0-.2 0-.3 1-.5 2-.5 3 0 0 .1 0 .2 0 .3 0 2.9 2.4 5.3 5.2 5.3 2.9 0 5.3-2.4 5.3-5.3s-2.4-5.2-5.3-5.2c-1.9 0-3.6 1.1-4.5 2.7-1.4-.5-3-.5-4.4 0-.9-1.6-2.6-2.7-4.5-2.7zm0 2.2c1.6 0 3 1.4 3 3 0 1.7-1.4 3-3 3-1.7 0-3-1.3-3-3 0-1.6 1.3-3 3-3zm13.4 0c1.7 0 3 1.4 3 3 0 1.7-1.3 3-3 3-1.6 0-3-1.3-3-3 0-1.6 1.4-3 3-3z"/>
</svg>
