<svg xmlns="http://www.w3.org/2000/svg">
  <path d="M 0 0 L 0 2.5253906 L 0 37.794922 L 18.011719 37.794922 L 18.011719 43.431641 L 11.945312 43.431641 L 11.945312 47.091797 L 18.011719 47.091797 L 18.011719 47.132812 L 42.460938 47.132812 L 42.460938 47.091797 L 48.527344 47.091797 L 48.527344 43.431641 L 42.460938 43.431641 L 42.460938 37.794922 L 60.472656 37.794922 L 60.472656 0 L 0 0 z M 5.0488281 5.0488281 L 14.617188 5.0488281 L 14.617188 9.9042969 A 3.7795276 3.7795276 0 0 1 15.564453 9.78125 A 3.7795276 3.7795276 0 0 1 16.507812 9.9042969 L 16.507812 5.0488281 L 55.423828 5.0488281 L 55.423828 12.615234 L 19.220703 12.615234 A 3.7795276 3.7795276 0 0 1 19.34375 13.560547 A 3.7795276 3.7795276 0 0 1 19.21875 14.505859 L 55.423828 14.505859 L 55.423828 32.746094 L 16.507812 32.746094 L 16.507812 17.216797 A 3.7795276 3.7795276 0 0 1 15.564453 17.339844 A 3.7795276 3.7795276 0 0 1 14.617188 17.212891 L 14.617188 32.746094 L 5.0488281 32.746094 L 5.0488281 14.505859 L 11.908203 14.505859 A 3.7795276 3.7795276 0 0 1 11.785156 13.560547 A 3.7795276 3.7795276 0 0 1 11.908203 12.615234 L 5.0488281 12.615234 L 5.0488281 5.0488281 z M 15.5625 11.671875 A 1.8897638 1.8897638 0 0 0 13.673828 13.560547 A 1.8897638 1.8897638 0 0 0 15.5625 15.451172 A 1.8897638 1.8897638 0 0 0 17.453125 13.560547 A 1.8897638 1.8897638 0 0 0 15.5625 11.671875 z M 21.791016 38.3125 L 38.681641 38.3125 L 38.681641 43.353516 L 21.791016 43.353516 L 21.791016 38.3125 z"/>
</svg>
