<svg xmlns="http://www.w3.org/2000/svg">
  <path d="M -0.00390625 0.00390625 L -0.00390625 2.1445312 L -0.00390625 45.357422 L 60.46875 45.357422 L 60.46875 12.523438 L 60.472656 12.523438 L 60.472656 8.234375 L 60.46875 8.234375 L 60.46875 0.00390625 L -0.00390625 0.00390625 z M 4.2929688 4.2929688 L 56.179688 4.2929688 L 56.179688 8.234375 L 4.2929688 8.234375 L 4.2929688 4.2929688 z M 4.2929688 12.523438 L 56.179688 12.523438 L 56.179688 41.060547 L 4.2929688 41.060547 L 4.2929688 12.523438 z M 16.912109 15.140625 A 2.1408203 2.1408203 0 0 0 14.771484 17.28125 A 2.1408203 2.1408203 0 0 0 16.912109 19.421875 A 2.1408203 2.1408203 0 0 0 19.052734 17.28125 A 2.1408203 2.1408203 0 0 0 16.912109 15.140625 z M 21.054688 16.212891 A 4.2816404 4.2816404 0 0 1 21.193359 17.28125 A 4.2816404 4.2816404 0 0 1 21.082031 18.238281 L 42.359375 18.238281 L 42.359375 32.558594 A 4.2816404 4.2816404 0 0 1 43.316406 32.445312 A 4.2816404 4.2816404 0 0 1 44.384766 32.587891 L 44.384766 16.212891 L 21.054688 16.212891 z M 15.839844 21.421875 L 15.839844 37.621094 L 39.134766 37.621094 A 4.2816404 4.2816404 0 0 1 39.035156 36.726562 A 4.2816404 4.2816404 0 0 1 39.191406 35.591797 L 17.869141 35.591797 L 17.869141 21.449219 A 4.2816404 4.2816404 0 0 1 16.912109 21.5625 A 4.2816404 4.2816404 0 0 1 15.839844 21.421875 z M 43.316406 34.408203 A 2.1408203 2.1408203 0 0 0 41.175781 36.548828 A 2.1408203 2.1408203 0 0 0 43.316406 38.689453 A 2.1408203 2.1408203 0 0 0 45.457031 36.548828 A 2.1408203 2.1408203 0 0 0 43.316406 34.408203 z"/>
</svg>
