<svg xmlns="http://www.w3.org/2000/svg">
  <path d="m 14.040405 20.206061 h 37.010101 c 2.044438 0 3.701013 -1.054661 3.701013 -2.355556 0 -1.300894 -1.656575 -2.355555 -3.701013 -2.355555 H 14.040405 c -2.043945 0 -3.701011 1.054661 -3.701011 2.355555 0 1.300895 1.657066 2.355556 3.701011 2.355556 z m 37.010101 8.711111 H 14.040405 c -2.043945 0 -3.701011 1.05466 -3.701011 2.355555 0 1.301209 1.657066 2.355555 3.701011 2.355555 h 37.010101 c 2.044438 0 3.701013 -1.054346 3.701013 -2.355555 0 -1.300895 -1.656575 -2.355555 -3.701013 -2.355555 z m 0 13.422223 H 14.040405 c -2.043945 0 -3.701011 1.054343 -3.701011 2.355553 0 1.30121 1.657066 2.355557 3.701011 2.355557 h 37.010101 c 2.044438 0 3.701013 -1.054347 3.701013 -2.355557 0 -1.30121 -1.656575 -2.355553 -3.701013 -2.355553 z"/>
</svg>
