<svg xmlns="http://www.w3.org/2000/svg">
  <path d="m 48.457052 24.89893 c -3.664095 0 -6.639527 2.979785 -6.639527 6.657441 0 3.676103 2.975948 6.658993 6.639527 6.658993 3.665643 0 6.642108 -2.98289 6.642108 -6.658993 0 -3.677656 -2.976465 -6.657441 -6.642108 -6.657441 z m -16.404085 0 c -3.665127 0 -6.637464 2.979785 -6.637464 6.657441 0 3.676103 2.972337 6.658993 6.637464 6.658993 3.666674 0 6.640043 -2.98289 6.640043 -6.658993 0 -3.677656 -2.972853 -6.657441 -6.640043 -6.657441 z m -16.400474 0 c -3.668222 0 -6.642107 2.979785 -6.642107 6.657441 0 3.676103 2.973885 6.658993 6.642107 6.658993 3.663579 0 6.639528 -2.98289 6.639528 -6.658993 0 -3.677656 -2.975949 -6.657441 -6.639528 -6.657441 z"/>
</svg>
