<svg xmlns="http://www.w3.org/2000/svg">
  <path d="M110.9 238.9v128c.1 70.7 57.4 128 128 128h34.2c70.6 0 127.9-57.3 128-128v-128H288.9c-3.8 15.1-17.4 25.6-32.9 25.6s-29.1-10.5-32.9-25.6H110.9ZM256 145.1c-9.4 0-17.1 7.6-17.1 17v68.3c0 9.4 7.7 17.1 17.1 17.1s17.1-7.7 17.1-17.1V162.1c0-9.4-7.7-17-17.1-17Zm8.5-93.9v78c15.1 3.9 25.6 17.4 25.6 32.9v59.8h111V179.2c-.1-70.7-57.4-127.9-128-128h-8.6Zm-25.6 0c-4.3 0-8.6.2-12.8.6v.1c-22.6 2.2-43.4 10.5-61 22.9-.1.1-.2.2-.3.3-3.3 2.3-6.5 4.8-9.6 7.5-10.7 9.3-19.8 20.3-27 32.7-.1.2-.2.4-.3.6-2 3.4-3.8 7-5.5 10.7-.1.2-.2.3-.3.5v.1c-4.5 10.2-7.8 21.2-9.6 32.6 0 .3 0 .6-.1.9-.9 6-1.5 12.2-1.5 18.5v20.6 22.1h46.2 35.6 24.2 5V191.3 167.1v-5s0 0 0 0 0 0 0 0c0-1 0-2 .1-3 0 0 0 0 0 0 .7-7.1 3.6-13.8 8.3-19.2h-.1s0 0 0 0c3.8-4.4 8.7-7.8 14.4-9.8.9-.3 1.9-.6 2.9-.9V97.4 73.3 51.2h-8.6Zm0-17.1h34.2c80 .1 144.9 65 145 145.1V366.9c-.1 80.1-65 145-145 145.1H238.9c-80-.1-144.9-65-145-145.1V179.2c.1-80.1 65-145 145-145.1Z"/>
</svg>
