<svg xmlns="http://www.w3.org/2000/svg">
  <path d="m43 30c-2.9 0-5 1.3-5 3s2.1 3 5 3 5-1.3 5-3-2.1-3-5-3zm0 4c-1.9 0-3-.8-3-1s1.1-1 3-1 3 .8 3 1-1.1 1-3 1zm-1-6V15c0-.4-.2-.8-.6-.9-.4-.2-.8-.1-1.1.2L37 17.6c-6.1-5.2-13.5-6.9-20-4.5-6.6 2.5-11.3 8.7-12.7 16.9-2.5.2-4.3 1.4-4.3 3 0 1.7 2.1 3 5 3s5-1.3 5-3c0-1.3-1.3-2.4-3.2-2.8 2.4-5.3 6-8.8 10.4-9.9 4.3-1.1 9 .3 13.3 3.8l-3.2 3.2c-.3.3-.4.7-.2 1.1s.5.6.9.6h13c.6 0 1-.4 1-1zM8 33c0 .2-1.1 1-3 1s-3-.8-3-1 .7-.7 2-.9c0 .4.3.8.8.9s1-.2 1.2-.6c0-.1.1-.2.1-.3 1.3.2 2 .7 2 .9zm32-6h-9.6l2.3-2.3c.4-.4.4-1.1 0-1.4-5-4.5-10.7-6.3-15.9-4.9-3.2.8-6.1 2.7-8.4 5.6 2.1-4.2 5.3-7.4 9.4-8.9 6.1-2.3 12.9-.6 18.6 4.7.4.4 1 .4 1.4 0l2.3-2.3z"/>
</svg>
