<svg xmlns="http://www.w3.org/2000/svg">
  <path d="M 47,28.1 60.6,14.5 c 0.6,-0.6 1.8,-0.5 2.7,0.4 0.8,0.8 1,2 0.4,2.7 L 50,31.2 c -0.6,0.6 -1.8,0.5 -2.7,-0.4 -0.8,-0.9 -1,-2 -0.3,-2.7 z M 36.9,25.8 V 6.6 c 0,-0.9 1,-1.6 2.1,-1.6 1.1,0 2.1,0.7 2.1,1.6 v 19.2 c 0,0.9 -1,1.6 -2.1,1.6 -1.1,0 -2.1,-0.7 -2.1,-1.6 z m -11,15.6 H 6.6 C 5.7,41.4 5,40.4 5,39.3 5,38.2 5.7,37.2 6.6,37.2 h 19.2 c 0.9,0 1.6,1 1.6,2.1 0,1.1 -0.7,2.1 -1.5,2.1 z m 5.5,8.8 -13.6,13.6 c -0.6,0.6 -1.8,0.5 -2.7,-0.4 -0.9,-0.9 -1,-2 -0.4,-2.7 L 28.3,47.1 c 0.6,-0.6 1.8,-0.5 2.7,0.4 0.9,0.9 1,2 0.4,2.7 z M 28.2,31.3 14.6,17.7 C 14,17 14.2,15.8 15,15 c 0.8,-0.8 2,-1 2.7,-0.4 l 13.6,13.6 c 0.6,0.6 0.5,1.8 -0.4,2.7 -0.9,0.8 -2,1 -2.7,0.4 z m 56.566571,-9.651437 c -5.077126,0.411959 -10.180895,2.332308 -15.204502,5.596101 L 56.046955,36.00837 c -0.261675,0.172854 -6.513178,4.258873 -10.769857,11.508966 -4.096751,6.972233 -7.176723,18.088007 1.583804,31.57046 L 76.002865,123.9622 c 0.390935,0.60417 9.80265,14.77569 25.763185,14.78215 5.60372,0 11.22066,-1.77822 16.7883,-5.27934 l 0.52794,-0.31676 4.32906,-2.74526 4.43465,-2.95643 4.7514,-3.06202 c 0.26819,-0.17285 6.51318,-4.25726 10.76986,-11.50896 4.09675,-6.969 7.17349,-18.083161 -1.5838,-31.570461 l -29.14197,-44.8744 c -0.39094,-0.60256 -9.80265,-14.782156 -25.763183,-14.782156 -0.723716,0 -1.386435,-0.05886 -2.111736,0 z m 2.111736,9.819574 c 10.548817,0 17.470873,10.156305 17.527413,10.241924 l 7.60225,11.825722 -22.384404,14.570984 -2.956431,-4.645823 c -0.374281,0.39455 -0.790876,0.757251 -1.267042,1.05587 l -1.161455,0.739106 c -0.66901,0.41956 -1.472632,0.686355 -2.217323,0.844696 L 85.188918,70.957611 62.804511,85.528592 55.096675,73.702867 C 43.893605,56.464521 59.627438,45.44118 61.431884,44.244142 l 4.540232,-2.956431 1.055868,1.689389 c 0.511509,-0.762203 1.199776,-1.394852 2.006151,-1.900561 l 1.161455,-0.739108 c 0.34301,-0.215114 0.689764,-0.382509 1.055868,-0.527934 l -0.950281,-1.37263 4.540233,-2.956431 c 4.119369,-2.676783 8.182463,-4.012299 12.036897,-4.012299 z m -13.726286,9.080468 c -0.93702,0.09114 -1.813551,0.333417 -2.639672,0.844693 l -1.161455,0.739109 C 66.04643,44.177518 65.425596,48.840363 67.87268,52.69109 l 5.173754,8.341359 c 2.447076,3.85073 7.148622,5.318305 10.453095,3.273191 l 1.055868,-0.739109 c 3.30447,-2.045108 4.030883,-6.813543 1.583804,-10.66427 L 80.85986,44.666492 c -1.835316,-2.888047 -4.896784,-4.391336 -7.707839,-4.117887 z m 41.706799,17.316239 18.68887,28.719616 c 11.19983,17.24158 -4.534,28.37212 -6.33521,29.56431 l -13.40953,8.76371 c -4.12099,2.67193 -8.18246,4.0123 -12.0369,4.0123 -10.550428,-0.008 -17.469257,-10.26351 -17.527412,-10.34751 L 65.655357,89.963238 114.85882,57.864844 z"/>
</svg>
