<svg xmlns="http://www.w3.org/2000/svg">
  <path d="m 29.478938,13.139214 c 3.762378,0 6.231224,3.622382 6.25139,3.652919 l 2.711446,4.217807 -7.983702,5.196938 -6.891593,-10.582173 1.619336,-1.054451 c 1.469229,-0.95471 2.918385,-1.43104 4.293123,-1.43104 z m 9.967878,9.405155 6.647466,10.215316 c 3.983684,6.132678 -1.612702,10.091712 -2.253378,10.515765 l -4.769651,3.117174 c -1.465798,0.950385 -2.91043,1.427139 -4.281419,1.427139 -3.752696,-0.0029 -6.213661,-3.650638 -6.234347,-3.680518 L 21.908021,33.92393 39.446816,22.544369 z m -17.426126,-5.89634 6.872804,10.553322 -7.999493,5.182771 -2.704054,-4.206307 C 14.205113,22.046286 19.763944,18.125383 20.405769,17.699606 L 22.02069,16.648029 z M 29.494395,9.625 c -2.059357,0 -4.154672,0.701296 -6.19679,2.028041 l -4.769651,3.117173 c -0.09308,0.06148 -2.354236,1.514844 -3.8683,4.093637 -1.457179,2.479963 -2.515141,6.433747 0.600901,11.229336 l 10.365541,15.96143 c 0.139053,0.214899 3.486716,5.255584 9.163738,5.257883 1.969966,0 3.938217,-0.623635 5.89634,-1.840259 l 0.262895,-0.150225 1.539808,-0.976464 1.577365,-1.051577 1.690034,-1.089133 c 0.09539,-0.06148 2.316678,-1.51427 3.830743,-4.093637 1.457179,-2.478814 2.551548,-6.469578 -0.563345,-11.266892 L 38.658134,14.882883 C 38.519082,14.668558 35.171417,9.625 29.494395,9.625 z"/>
</svg>
