<svg xmlns="http://www.w3.org/2000/svg">
  <path d="m 65.277378,40.284919 13.6,-13.6 c 0.6,-0.6 1.8,-0.5 2.7,0.4 0.8,0.8 1,2 0.4,2.7 l -13.7,13.6 c -0.6,0.6 -1.8,0.5 -2.7,-0.4 -0.8,-0.9 -1,-2 -0.3,-2.7 z m -10.1,-2.3 v -19.2 c 0,-0.9 1,-1.6 2.1,-1.6 1.1,0 2.1,0.7 2.1,1.6 v 19.2 c 0,0.9 -1,1.6 -2.1,1.6 -1.1,0 -2.1,-0.7 -2.1,-1.6 z m -11,15.6 h -19.3 c -0.9,0 -1.6,-1 -1.6,-2.1 0,-1.1 0.7,-2.1 1.6,-2.1 h 19.2 c 0.9,0 1.6,1 1.6,2.1 0,1.1 -0.7,2.1 -1.5,2.1 z m 5.5,8.8 -13.6,13.6 c -0.6,0.6 -1.8,0.5 -2.7,-0.4 -0.9,-0.9 -1,-2 -0.4,-2.7 l 13.6,-13.6 c 0.6,-0.6 1.8,-0.5 2.7,0.4 0.9,0.9 1,2 0.4,2.7 z m -3.2,-18.9 -13.6,-13.6 c -0.6,-0.7 -0.4,-1.9 0.4,-2.7 0.8,-0.8 2,-1 2.7,-0.4 l 13.6,13.6 c 0.6,0.6 0.5,1.8 -0.4,2.7 -0.9,0.8 -2,1 -2.7,0.4 z M 104.86014,32.808756 c -5.904257,0 -11.911609,2.010643 -17.766442,5.814474 l -13.67478,8.937059 c -0.266864,0.176266 -6.749688,4.343118 -11.09057,11.73662 -4.17779,7.110153 -7.211009,18.445809 1.722807,32.194953 l 29.718419,45.762058 c 0.398671,0.61612 9.996556,15.06797 26.272806,15.07456 5.64797,0 11.29102,-1.78799 16.90504,-5.2761 l 0.75373,-0.4307 4.41469,-2.79956 4.52237,-3.01491 4.84539,-3.12259 c 0.27349,-0.17627 6.64201,-4.34147 10.9829,-11.73662 4.17779,-7.10686 7.31539,-18.54854 -1.61514,-32.30263 L 131.13295,47.883315 C 130.73428,47.268837 121.13639,32.808756 104.86014,32.808756 z M 83.432732,52.944059 103.13733,83.200853 80.202469,98.060064 72.449839,86.000415 C 61.025161,68.421077 76.962551,57.179692 78.802689,55.958972 l 4.630043,-3.014913 z m 49.961398,16.905042 19.05855,29.287717 c 11.42138,17.582632 -4.62368,28.933342 -6.46052,30.149122 l -13.67478,8.93706 c -4.2025,2.72479 -8.34432,4.09166 -12.275,4.09166 -10.75913,-0.008 -17.81482,-10.46652 -17.87412,-10.55219 L 83.109705,102.47475 133.39413,69.849101 z"/>
</svg>
