<svg xmlns="http://www.w3.org/2000/svg">
  <path d="M 94.05 81.533 69.249 56.732 C 67.817 55.3 65.906 54.628 64.02 54.703 73.071 41.304 71.672 22.95 59.812 11.09 46.358 -2.363 24.545 -2.363 11.09 11.09 c -13.453 13.454 -13.453 35.268 0 48.722 11.86 11.86 30.213 13.259 43.613 4.209 -0.074 1.886 0.597 3.796 2.028 5.228 l 24.802 24.803 c 2.723 2.722 7.178 2.722 9.9 -0.001 l 2.616 -2.616 c 2.723 -2.724 2.723 -7.179 10e-4 -9.902 z M 19.702 51.199 c -8.698 -8.697 -8.697 -22.799 0 -31.496 8.698 -8.699 22.8 -8.699 31.498 0 8.697 8.697 8.697 22.799 0 31.496 -8.698 8.698 -22.8 8.698 -31.498 0 z"/>
</svg>
