<svg xmlns="http://www.w3.org/2000/svg">
  <path d="M28 0C18.6 0 11 7.6 11 17V39c0 9.4 7.6 17 17 17h4c9.4 0 17-7.6 17-17V17C49 7.6 41.4 0 32 0H28zm.4 2H29V5.6l-16 16V17.4L28.4 2zM31 2h1c8.3 0 15 6.7 15 15v5H34V15c0-1.8-1.2-3.4-3-3.9V2zm-5.7.3-12 12c1.1-6.1 5.9-10.9 12-12zM29 8.4v2.7c-1.8.5-3 2.1-3 3.9v.6L19.6 22H15.4L29 8.4zM30 13c1.1 0 2 .9 2 2v8c0 1.1-.9 2-2 2s-2-.9-2-2V15c0-1.1.9-2 2-2zm-4 5.4V22H22.4L26 18.4zM13 24H26.1c.5 1.8 2.1 3 3.9 3s3.4-1.2 3.9-3H47V39c0 8.3-6.7 15-15 15H28c-8.3 0-15-6.7-15-15V24zm17 4.1c-.6 0-1.2.3-1.6.7L25.2 33c-.5.5-.5 1.2-.2 1.8.3.7 1 1.1 1.7 1.1h6.6c.7 0 1.4-.4 1.7-1.1.3-.6.3-1.3-.2-1.8l-3.2-4.2c-.4-.4-1-.7-1.6-.7zm0 1.7s0 0 0 0c.1 0 .1.1.2.1l3 4c.1 0 .1.1 0 .2 0 0 0 .1-.1.1H26.9c-.1 0-.2-.1-.2-.1 0-.1 0-.2 0-.2l3.1-4s.1-.1.2-.1zm-7.2 5.5c-.4-.1-.8.1-1.2.3l-4.1 3.3c-.5.4-.7 1-.7 1.6s.2 1.2.7 1.5l4.1 3.3c.6.4 1.3.5 1.9.2.7-.3 1.1-1 1.1-1.7V37.2c0-.7-.4-1.4-1.1-1.8-.2-.1-.5-.1-.7-.1zm14.4 0c-.2 0-.5 0-.7.1-.7.4-1.1 1.1-1.1 1.8v6.6c0 .7.4 1.4 1.1 1.7.6.3 1.3.2 1.9-.2L42.5 42c.5-.3.7-.9.7-1.5s-.2-1.2-.7-1.6l-4.1-3.3c-.4-.2-.8-.4-1.2-.3zM22.7 37.2s0 0 0 0 0 0 0 0c.1 0 .1.1.1.1v6.3s0 .1-.1.1c0 .1-.1.1-.1 0l-4-3c-.1-.1-.1-.3 0-.4l4-3.1s0 0 .1 0zm14.6 0c.1 0 .1 0 .1 0l4 3.1c.1 0 .1.1.1.2s0 .1-.1.2l-4 3s-.1.1-.1 0c-.1 0-.1-.1-.1-.1V37.3s0-.1.1-.1c0 0 0 0 0 0zM26.7 45.1c-.7 0-1.4.4-1.7 1.1-.3.6-.3 1.3.2 1.8l3.2 4.2c.4.4 1 .7 1.6.7s1.2-.3 1.6-.7L34.8 48c.5-.5.5-1.2.2-1.8-.3-.7-1-1.1-1.7-1.1H26.7zm.2 1.7h6.2c.1 0 .1.1.2.1 0 .1 0 .2-.1.2l-3 4c-.1.1-.3.1-.4 0l-3.1-4s0-.1 0-.2c0 0 .1-.1.2-.1z"/>
</svg>
