<svg xmlns="http://www.w3.org/2000/svg">
  <path d="m 29.494395,9.625 c -2.059357,0 -4.154672,0.701296 -6.19679,2.028041 l -4.769651,3.117173 c -0.09308,0.06148 -2.354236,1.514844 -3.8683,4.093637 -1.457179,2.479963 -2.515141,6.433747 0.600901,11.229336 l 10.365541,15.96143 c 0.139053,0.214899 3.486716,5.255584 9.163738,5.257883 1.969966,0 3.938217,-0.623635 5.89634,-1.840259 l 0.262895,-0.150225 1.539808,-0.976464 1.577365,-1.051577 1.690034,-1.089133 c 0.09539,-0.06148 2.316678,-1.51427 3.830743,-4.093637 1.457179,-2.478814 2.551548,-6.469578 -0.563345,-11.266892 L 38.658134,14.882883 C 38.519082,14.668558 35.171417,9.625 29.494395,9.625 z m -7.473705,7.023029 6.872804,10.553322 -7.999493,5.182771 -2.704054,-4.206307 c -3.984834,-6.131529 1.573997,-10.052432 2.215822,-10.478209 l 1.614921,-1.051577 z m 17.426126,5.89634 6.647466,10.215316 c 3.983684,6.132678 -1.612702,10.091712 -2.253378,10.515765 l -4.769651,3.117174 c -1.465798,0.950385 -2.91043,1.427139 -4.281419,1.427139 -3.752696,-0.0029 -6.213661,-3.650638 -6.234347,-3.680518 L 21.908021,33.92393 39.446816,22.544369 z m -7.024268,15.865479 c -7.52e-4,-0.116942 0.0277,-0.22855 0.07195,-0.345332 l 0.02878,-0.06474 c 0.157951,-0.193307 0.357673,-0.327903 0.618721,-0.330944 l 5.590075,-0.01439 c 0.140327,0.02044 0.21435,0.02733 0.316555,0.08634 0.329303,0.190123 0.441928,0.613169 0.251807,0.942471 l -2.827415,4.906606 c -0.190123,0.329302 -0.613169,0.441928 -0.942473,0.251805 -0.10227,-0.05904 -0.149572,-0.126208 -0.237413,-0.237418 l -2.777052,-4.84186 c -0.06397,-0.113768 -0.09282,-0.23559 -0.09353,-0.352528 z m -1.575582,-0.748222 c 0.001,0.171289 0.0358,0.344164 0.129501,0.510806 l 4.07205,7.100907 c 0.128666,0.162896 0.202729,0.251653 0.352526,0.338138 0.482352,0.278485 1.095653,0.115433 1.374137,-0.366915 l 4.151189,-7.18724 c 0.278486,-0.482351 0.108238,-1.095653 -0.374109,-1.374138 -0.149709,-0.08643 -0.262095,-0.106753 -0.467638,-0.136695 l -8.187268,0.02877 c -0.382377,0.0044 -0.667941,0.198878 -0.899305,0.482028 l -0.05035,0.08634 c -0.06481,0.171063 -0.10177,0.346715 -0.100727,0.518003 z m 8.637825,-3.804405 c 7.52e-4,0.116943 -0.02771,0.228551 -0.07195,0.345333 l -0.02878,0.06474 c -0.157957,0.193304 -0.357677,0.3279 -0.618726,0.330939 l -5.590076,0.01439 c -0.140327,-0.02044 -0.214351,-0.02731 -0.316557,-0.08634 -0.3293,-0.190122 -0.441926,-0.613168 -0.251804,-0.942471 l 2.827415,-4.906605 c 0.19012,-0.329303 0.613167,-0.441929 0.94247,-0.251805 0.102269,0.05903 0.149574,0.126207 0.237417,0.237417 l 2.777052,4.841854 c 0.06397,0.113768 0.09282,0.23559 0.09353,0.352527 z m 1.575581,0.748223 c -0.001,-0.171289 -0.0358,-0.344163 -0.1295,-0.510805 l -4.07205,-7.100908 c -0.128666,-0.162897 -0.202729,-0.251654 -0.352527,-0.338138 -0.482351,-0.278486 -1.095652,-0.115434 -1.374136,0.366914 l -4.151188,7.187241 c -0.278487,0.482351 -0.108239,1.095652 0.374109,1.374138 0.149708,0.08643 0.262092,0.106753 0.467639,0.136695 l 8.187267,-0.02878 c 0.382375,-0.0044 0.667941,-0.198878 0.899302,-0.482027 l 0.05035,-0.08634 c 0.06481,-0.17106 0.10177,-0.346711 0.100728,-0.517999 z"/>
</svg>
