<svg xmlns="http://www.w3.org/2000/svg">
  <path d="M293 300c12.7 0 23 10.3 23 23v92.1c0 12.7-10.3 23-23 23s-23.1-10.3-23.1-23V323c0-12.7 10.4-23 23.1-23Zm-74 0c12.7 0 23.1 10.3 23.1 23v92.1c0 12.7-10.4 23-23.1 23s-23-10.3-23-23V323c0-12.7 10.3-23 23-23ZM110.9 238.9v128c.1 70.7 57.4 128 128 128h34.2c70.6 0 127.9-57.3 128-128v-128H288.9c-3.8 15.1-17.4 25.6-32.9 25.6s-29.1-10.5-32.9-25.6H110.9Zm111-47.6-30.6 30.6h30.6V191.3ZM256 145.1c-9.4 0-17.1 7.6-17.1 17v68.3c0 9.4 7.7 17.1 17.1 17.1s17.1-7.7 17.1-17.1V162.1c0-9.4-7.7-17-17.1-17Zm-8.5-39.2-116 116h35.6l54.8-54.8v-5c0-15.5 10.5-29 25.6-32.9V105.9ZM216.2 53.3c-52.5 9.6-93.6 50.7-103.1 103.2L216.2 53.3Zm48.3-2.1v78c15.1 3.9 25.6 17.4 25.6 32.9v59.8h111V179.2c-.1-70.7-57.4-127.9-128-128h-8.6Zm-22 0L110.9 182.7v35.6L247.5 81.8V51.2h-5Zm-3.6-17.1h34.2c80 .1 144.9 65 145 145.1V366.9c-.1 80.1-65 145-145 145.1H238.9c-80-.1-144.9-65-145-145.1V179.2c.1-80.1 65-145 145-145.1Z"/>
</svg>
