<svg xmlns="http://www.w3.org/2000/svg">
  <path d="M293 300c12.7 0 23 10.3 23 23v92.1c0 12.7-10.3 23-23 23s-23.1-10.3-23.1-23V323c0-12.7 10.4-23 23.1-23Zm-74 0c12.7 0 23.1 10.3 23.1 23v92.1c0 12.7-10.4 23-23.1 23s-23-10.3-23-23V323c0-12.7 10.3-23 23-23ZM110.9 238.9v128c.1 70.7 57.4 128 128 128h34.2c70.6 0 127.9-57.3 128-128v-128H288.9c-3.8 15.1-17.4 25.6-32.9 25.6s-29.1-10.5-32.9-25.6H110.9Zm290.2-39.1L379 221.9h22.1V199.8ZM256 145.1c-9.4 0-17.1 7.6-17.1 17v68.3c0 9.4 7.7 17.1 17.1 17.1s17.1-7.7 17.1-17.1V162.1c0-9.4-7.7-17-17.1-17Zm140.3-.2-77 77h35.6l46-46.1c-.3-10.4-1.8-20.8-4.6-30.9Zm-19.5-40.3-86.7 86.7v30.6h5l94.8-94.8c-3.6-7.9-8-15.5-13.1-22.5ZM346.9 74.8l-65.2 65.1c5.4 6.2 8.4 14.1 8.4 22.2v5l75.8-75.8c-5.8-6.1-12.2-11.6-19-16.5ZM306.2 55.7 264.5 97.4v31.8c1 .3 2 .6 2.9.9l64.5-64.5c-8.2-4.2-16.8-7.5-25.7-9.9Zm-41.7-4.5V73.3l21.4-21.5c-4.2-.4-8.5-.6-12.8-.6h-8.6Zm-25.6 0c-70.6.1-127.9 57.3-128 128v42.7h111V162.1c0-15.5 10.5-29 25.6-32.9v-78h-8.6Zm0-17.1h34.2c80 .1 144.9 65 145 145.1V366.9c-.1 80.1-65 145-145 145.1H238.9c-80-.1-144.9-65-145-145.1V179.2c.1-80.1 65-145 145-145.1Z"/>
</svg>
