<svg xmlns="http://www.w3.org/2000/svg">
  <path d="M47 17C47 8.7 40.3 2 32 2H31v9.1c1.8.5 3 2.1 3 3.9v7H47ZM32 54c8.3 0 15-6.7 15-15V24H33.9c-.5 1.8-2.1 3-3.9 3-1.9 0-3.5-1.2-3.9-3H13V39c0 8.3 6.7 15 15 15h4ZM25.3 2.3c-6.1 1.1-10.9 5.9-12 12l12-12ZM29 2h-.6L13 17.4v4.2l16-16ZM28 23c0 1.1.9 2 2 2s2-.9 2-2V15c0-1.1-.9-2-2-2s-2 .9-2 2Zm-2-8c0-1.8 1.2-3.4 3-3.9V8.4L15.4 22h4.2L26 15.6V15Zm0 3.4L22.4 22H26ZM32 0c9.4 0 17 7.6 17 17V39c0 9.4-7.6 17-17 17H28c-9.4 0-17-7.6-17-17V17C11 7.6 18.6 0 28 0h4ZM16.7 40.4c-.1.2-.1.4 0 .5l4.6 3.5c.1 0 .1 0 .2 0 .1-.1.1-.1.1-.2V37c0-.1 0-.2-.1-.2-.1-.1-.1 0-.2 0l-4.6 3.5Zm-1.3 1.9c-.5-.4-.8-1.1-.8-1.8 0-.7.3-1.4.8-1.8l4.8-3.8c.6-.4 1.4-.5 2.1-.2s1.2 1.1 1.2 2v7.6c.1.8-.4 1.6-1.2 2-.7.4-1.5.3-2.1-.2Zm27.7-2c0-.1 0-.1-.1-.2l-4.6-3.5c-.1 0-.1 0-.2 0-.1.1-.1.1-.1.2V44c0 .1 0 .2.1.2.1.1.1 0 .2 0L43 40.7c.1 0 .1-.1.1-.2Zm-3.6 5.8c-.6.4-1.4.5-2.1.2s-1.2-1.1-1.2-2V36.7c-.1-.8.4-1.6 1.2-2 .7-.4 1.5-.3 2.1.2l4.8 3.8c.5.4.8 1.1.8 1.8 0 .7-.3 1.4-.8 1.8Zm-9.7 5.6c.2.1.4.1.5 0l3.5-4.6c0-.1 0-.1 0-.2-.1-.1-.1-.1-.2-.1H26.4c-.1 0-.2 0-.2.1-.1.1 0 .1 0 .2l3.5 4.6ZM31.7 53c-.4.5-1.1.8-1.8.8s-1.4-.3-1.8-.8l-3.8-4.8c-.4-.6-.5-1.4-.2-2.1s1.1-1.2 2-1.2h7.6c.8-.1 1.6.4 2 1.2.4.7.3 1.5-.2 2.1Zm-2-23.7c-.1 0-.1 0-.2.1L26 34c0 .1 0 .1 0 .2.1.1.1.1.2.1h7.2c.1 0 .2 0 .2-.1.1-.1 0-.1 0-.2l-3.5-4.6c0-.1-.1-.1-.2-.1Zm5.8 3.6c.4.6.5 1.4.2 2.1s-1.1 1.2-2 1.2H26.1c-.8.1-1.6-.4-2-1.2-.4-.7-.3-1.5.2-2.1l3.8-4.8c.4-.5 1.1-.8 1.8-.8s1.4.3 1.8.8Z"/>
</svg>
