<svg xmlns="http://www.w3.org/2000/svg">
  <path d="m 276.52512,276.35921 c -5.09983,-6.18479 -12.69665,-9.767 -20.71288,-9.767 -8.01624,0 -15.61305,3.58221 -20.71289,9.767 l -43.79593,55.14957 c -5.67508,7.02914 -6.78724,16.70085 -2.85575,24.83465 4.42862,8.92195 13.60405,14.49114 23.56286,14.3019 h 87.59186 c 9.96033,0.19493 19.13858,-5.37597 23.56285,-14.3019 3.9318,-8.13209 2.82436,-17.80201 -2.84419,-24.83465 z m -20.71866,13.35383 c 0.9728,-0.0497 1.9201,0.32119 2.60139,1.01743 L 298.874,343.8105 c 0.52536,0.6908 0.6197,1.61751 0.24429,2.39994 -0.37539,0.78244 -1.15727,1.28886 -2.02481,1.31138 h -83.15214 c -0.88008,-0.003 -1.68268,-0.50363 -2.07035,-1.29373 -0.38768,-0.79014 -0.29322,-1.73176 0.24359,-2.42917 l 41.04424,-53.05688 c 0.69521,-0.70527 1.65866,-1.07965 2.64764,-1.029 z M 238.9335,512 h 34.133 c 80.081,-0.089 144.977,-64.986 145.067,-145.067 V 179.2 C 418.0445,99.119 353.1475,34.223 273.0665,34.133 h -34.133 C 158.8525,34.223 93.9565,99.119 93.8665,179.2 v 187.733 c 0.09,80.081 64.986,144.978 145.067,145.067 z m 28.484,-381.892 c -0.947,-0.333 -1.903,-0.64 -2.884,-0.896 V 97.399 l 41.685,-41.685 c 8.893,2.368 17.503,5.696 25.677,9.924 z m -11.417,14.959 c 9.426,0 17.067,7.641 17.067,17.067 V 230.4 c 0,9.426 -7.641,17.067 -17.067,17.067 -9.426,0 -17.067,-7.641 -17.067,-17.067 v -68.267 c 0,-9.425 7.641,-17.066 17.067,-17.066 z m 34.133,46.199 86.707,-86.707 c 5.105,7.065 9.474,14.634 13.039,22.588 l -94.746,94.72 h -5 z m 106.121,-46.387 c 2.815,10.089 4.374,20.488 4.642,30.959 l -46.029,46.029 h -35.601 z m 4.812,54.92 v 22.067 h -22.067 z m -35.157,-108.45 -75.776,75.785 v -5.001 c -0.036,-8.168 -3.024,-16.048 -8.414,-22.187 l 65.152,-65.143 c 6.872,4.88 13.248,10.422 19.038,16.546 z m -79.966,-39.5 -21.41,21.418 V 51.2 h 8.533 c 4.352,0 8.645,0.23 12.877,0.649 z m -47.01,-0.649 h 8.533 v 78.012 c -15.025,3.879 -25.542,17.404 -25.6,32.922 v 59.733 H 110.9335 V 179.2 c 0.08,-70.659 57.341,-127.92 128,-128 z m -128,187.733 h 112.145 c 3.832,15.055 17.387,25.592 32.922,25.592 15.535,0 29.09,-10.537 32.922,-25.592 h 112.145 v 128 c -0.08,70.659 -57.341,127.92 -128,128 h -34.134 c -70.659,-0.08 -127.92,-57.341 -128,-128 z"/>
</svg>
