<svg xmlns="http://www.w3.org/2000/svg">
  <path d="m276.5 276.8c-5.1-6.2-12.7-9.8-20.7-9.8s-15.6 3.6-20.7 9.8l-43.8 55.1c-5.7 7-6.8 16.7-2.9 24.8 4.4 8.9 13.6 14.5 23.6 14.3h87.6c10 .2 19.1-5.4 23.6-14.3 3.9-8.1 2.8-17.8-2.8-24.8zm-20.7 13.4c1 0 1.9.3 2.6 1l40.5 53.1c.5.7.6 1.6.2 2.4-.4.8-1.2 1.3-2 1.3h-83.2c-.9 0-1.7-.5-2.1-1.3s-.3-1.7.2-2.4l41-53.1c.7-.7 1.7-1.1 2.6-1zM93.9 179.2v187.7c.1 80.1 65 145 145.1 145.1h34.1c80.1-.1 145-65 145.1-145.1V179.2c-.2-80.1-65.1-145-145.1-145.1H239c-80.1.1-145 65-145.1 145.1Zm148.6-128h5v30.6L111 218.3v-35.6zm-20.6 170.7h-30.6l30.6-30.6zm0-59.7v5l-54.7 54.7h-35.6L247.5 106v23.3c-15 3.9-25.5 17.4-25.6 32.9zm17.1 0c0-9.4 7.6-17.1 17.1-17.1 9.4 0 17.1 7.6 17.1 17.1v68.2c0 9.4-7.6 17.1-17.1 17.1-9.4 0-17.1-7.6-17.1-17.1zM273.1 495H239c-70.7-.1-127.9-57.3-128-128V239h112.1c3.8 15.1 17.4 25.6 32.9 25.6s29.1-10.5 32.9-25.6H401v128c-.1 70.7-57.3 127.9-128 128zm128-315.7V222H290.2v-59.7c-.1-15.5-10.6-29-25.6-32.9V51.2h8.5c70.7.1 127.9 57.3 128 128zM216.2 53.3 113.1 156.5c9.6-52.5 50.6-93.6 103.1-103.1z"/>
</svg>
