<svg xmlns="http://www.w3.org/2000/svg">
  <path d="m330.6 438.1c12.7 0 23-10.3 23-23V323c0-12.7-10.3-23-23-23s-23 10.3-23 23v92.1c0 12.7 10.3 23 23 23zm-75.3 0c12.7 0 23-10.3 23-23V323c.1-12.7-10.2-23-23-23-12.7 0-23 10.3-23 23v92.1c0 12.7 10.3 23 23 23zm-73.9 0c12.7 0 23-10.3 23-23V323c0-12.7-10.3-23-23-23s-23 10.3-23 23v92.1c0 12.7 10.3 23 23 23zM93.9 179.2v187.7c.1 80.1 65 145 145.1 145.1h34.1c80.1-.1 145-65 145.1-145.1V179.2c-.2-80.1-65.1-145-145.1-145.1H239c-80.1.1-145 65-145.1 145.1Zm148.6-128h5v30.6L111 218.3v-35.6zm-20.6 170.7h-30.6l30.6-30.6zm0-59.7v5l-54.7 54.7h-35.6L247.5 106v23.3c-15 3.9-25.5 17.4-25.6 32.9zm17.1 0c0-9.4 7.6-17.1 17.1-17.1 9.4 0 17.1 7.6 17.1 17.1v68.2c0 9.4-7.6 17.1-17.1 17.1-9.4 0-17.1-7.6-17.1-17.1zM273.1 495H239c-70.7-.1-127.9-57.3-128-128V239h112.1c3.8 15.1 17.4 25.6 32.9 25.6s29.1-10.5 32.9-25.6H401v128c-.1 70.7-57.3 127.9-128 128zm128-315.7V222H290.2v-59.7c-.1-15.5-10.6-29-25.6-32.9V51.2h8.5c70.7.1 127.9 57.3 128 128zM216.2 53.3 113.1 156.5c9.6-52.5 50.6-93.6 103.1-103.1z"/>
</svg>
