<svg xmlns="http://www.w3.org/2000/svg">
  <path d="m56.9 8.7c-3.8 1-6.3 5.1-5.1 8.9.1.2.2.5.3.7.1.2.1.3.2.5.2.4.4.5.7.2.2-.2.5-.3.8-.4 2-.8 4.5 0 6 2 .8 1 1.3 2.2 1.8 3.4.2.5.4.6.8.3 3-1.5 4.8-5 4.3-8.7-.7-5-5.2-8.2-9.7-7.1zM20.5 79.1c2 1.3 4.2 1.8 6.6 2.1.1 0 .2 0 .4 0h0 0c.2 0 .3 0 .5.1 1.7.2 3.4.2 5.1.2.3-0 .6.1.9.3.8.6 1.6 1.2 2.4 1.7.1 0 .1.1.2.2.3.2.6.4 1 .5 0-.3-0-.5-0-.8v-0c-0-.6-0-1.1 0-1.7.1-.9-.2-1.4-.9-1.9-4.3-3.5-6.3-8.1-5.5-13.9.5-3.3 1.9-6.2 4.1-8.7.2-.2.4-.3.7-.2 1 .2 2 .3 3 .4.7 0 .8.2.4.8-.9 1.5-1.3 3.1-1.1 4.9.2 2 1.6 3.8 3.4 4.4 1.5.5 3 .2 4.5-.4.8-.3 1.6-.7 2.4-1h0 0v-0c1.9-.8 3.9-1.6 5.9-2.2 3.1-1 6.2-1.7 9.3-2.1.2-0 .4-0 .5-0 .5-0 1-0 1.4-.3 3.3-2.2 6-5.1 7.7-8.9 1.6-3.4 2.1-7.1 1.6-10.9-0-.3-.1-.7-.1-1l-0-0c-0-.2-0-.3-0-.5l.1-0c3.7 5.5 5.8 11.6 6.2 18.3.3 5-.5 9.8-2.5 14.3-0-0-.1-0-.1-.1-0-0-0-0-0-0l-0-0v-0c-0-.1-0-.2-.1-.3-.4-2.1-1.3-3.9-2.8-5.4-2.2-2.1-5-2.9-7.9-3.1-2.8-.2-5.6.2-8.4.9-4.8 1.1-9.3 2.8-13.4 5.7-.1 0-.1.1-.2.1-.4.3-.9.6-1.3 1.1.8.3 1.5.6 2.1 1.1.9.7 1.6 1.5 2 2.6.1.2.2.5-.1.6-.5.2-1 .4-1.6.3-.2-0-.3-.3-.4-.5-0-.1-.1-.2-.1-.3-.6-1-1.3-1.7-2.3-2.2-2-1-4-.2-5.2 1.9-.9 1.7-1.2 3.5-1.1 5.3.1 3.6 1.6 6.4 4.5 8.4 2.6 1.7 5.5 2.2 8.5 2.4 2.4.1 4.8-0 7.2-.4 4.6-.7 8.9-2.2 12.9-4.6 3.5-2.1 6.4-4.9 8.7-8.4 4-6.1 5.5-12.9 5-20.2-.2-3.3-.9-6.4-1.9-9.5-1.5-5.1-4.1-9.6-7.1-13.8-.5-.8-1.1-1.5-1.6-2.2-1.5-2.1-3-4.1-4.3-6.4-.5-.9-1.2-1.8-1.9-2.6-.2-.3-.4-.3-.6 0-.4.7-.9 1.2-1.4 1.8-.2.3-.2.5-0 .8.2.3.4.6.7.9.2.3.4.6.6.9.3.4.4.8.4 1.3-0 .2-0 .4-0 .7v0 0c-0 .7-0 1.4-.1 2.1-.3 2.4-.8 4.6-1.9 6.7-2 4-5 6.9-8.6 9.3-2.5 1.7-5.2 3.1-8.1 4.2-3.7 1.4-7.5 2.3-11.6 1.7-3.8-.5-7.1-2.2-9.8-5.2-3-3.4-4.1-7.4-3.5-11.9.3-2.4.9-4.6 1.6-6.9 1.7-5.7 4.9-10.2 9.9-13.2 3.1-1.9 6.5-2.9 10.2-3 1.5-0 3.1.1 4.6.4l0 0c.2 0 .4.1.5-.2.4-1 .9-2 1.3-2.9-.2-.2-.4-.3-.6-.3-0-0-.1-0-.1-0-2.4-.6-4.8-.7-7.3-.5-2.8.2-5.5 1-8 2.2-.7.4-1.2.2-1.7-.3-2.3-2-4.9-2.7-7.7-1.6-5.5 2-7.1 9.6-3 14 .2.3.3.5.2.9-1.3 3.5-2.5 7-2.9 10.8-.2 2-.3 4 .1 6 .6 3.3 2.1 6.1 4.1 8.6l.1.1c.3.3.4.5.4.6-0 .1-.1.2-.3.4-.1.1-.1.1-.2.2-1.3 1.3-2.3 2.9-2.7 4.8-.4 1.9-.2 3.8 1.2 5.3.3.3.6.7.8 1.1.3.4.6.9.7 1.5 0 .3-0 .5-.3.5-.1 0-.3.1-.4.1-.4.1-.7.2-1.1.2-.4-1-.9-1.9-1.7-2.6-1.2-1.1-2.7-1.2-3.9-0-.4.4-.8.9-1.1 1.4-.9 1.8-1.1 3.8-1 5.8.3 3.9 2 6.9 5.1 8.9zm28.6-51.9c2.3 1.1 4.1 2.7 5.2 5 1.1 2.2.7 4.7-1 6.5-2.2 2.2-4.9 2.7-7.7.9-2.6-1.6-4.1-4.1-4.1-7.4-0-2 .7-3.7 2.3-4.8 1.4-.9 2.9-.9 4.5-.5.2 0 .3.1.5.2.1 0 .1.1.2.1zm-3.4 3.2c-0 0-.1 0-.1 0-.1 0-.2.1-.3.1-.5.3-.7.7-.7 1.3 0 .6.4 1.1.9 1.3.5.2 1 .1 1.4-.3.4-.4.5-.9.3-1.5-.2-.7-.7-1-1.5-1zm-19 11.1c1.1 1.1 2.5 1.2 4 .2.6-.5 1.1-1 1.5-1.7 1.1-1.6 1.7-3.3 1.8-5.2.1-1.4.1-2.8-.8-4-1.5-2.3-3.9-2.2-5.3.2-1.3 2.2-2.1 4.6-2.4 7.2-.1 1.2.1 2.4 1 3.3zm3.6-8.8c.1-0 .1-0 .2-0 1.1.3 1.5 1.1 1.1 2-.3.6-.8.9-1.4.8-.5-.1-1-.7-1-1.2-.1-.6.3-1.2.8-1.4.1-0 .2-.1.3-.1zm7.9 14.7c-3 1.3-5.3-.9-5.9-3.3-.2-.8.2-1.2.9-1 2 .7 4 .3 5.9-.5.1-0 .2-.1.3-.1l0-0c.2-.1.4-.2.6-.2.8-.3 1.4.2 1.2 1.1-.3 1.8-1.3 3.2-2.9 4zm2.7 2.2c-.1.1-.2.1-.3.2-1.1.4-2 .2-2.9-.4-.4-.3-.8-.3-1.2 0-.4.4-.5.8-.3 1.3.2.5.5.8.9 1.1 1.3.9 2.7 1 4.1.4.8-.3 1.5-.8 1.8-1.6.2-.5.1-1.2-.2-1.5-.4-.3-.9-.3-1.3.1-.2.1-.4.3-.6.4z"/>
</svg>
