<svg xmlns="http://www.w3.org/2000/svg">
  <path d="m 36,40.8 c -1.6,0 -2.9,-1.3 -2.9,-2.9 V 3.4 c 0,-1.6 1.3,-2.9 2.9,-2.9 1.6,0 2.9,1.3 2.9,2.9 V 38 c 0,1.6 -1.3,2.8 -2.9,2.8 z m 0,30.7 C 18.4,71.5 4,57.1 4,39.5 4,26.3 12.3,14.3 24.7,9.6 26.2,9 27.8,9.8 28.4,11.3 29,12.8 28.2,14.4 26.7,15 16.5,18.9 9.7,28.7 9.7,39.6 9.7,54 21.5,65.8 36,65.8 50.5,65.8 62.3,54 62.3,39.5 62.3,28.6 55.5,18.8 45.3,14.9 43.8,14.3 43.1,12.7 43.6,11.2 44.2,9.7 45.8,9 47.3,9.5 59.7,14.3 68,26.3 68,39.5 c 0,17.6 -14.4,32 -32,32 z"/>
</svg>
