<svg xmlns="http://www.w3.org/2000/svg">
  <path d="M18 25.6a1.1 1.1 0 01.1 0h2.2a1.1 1.1 0 010 2.1H18.1A1.1 1.1 0 1118 25.6Zm-4 0a1.1 1.1 0 11-.1 2.1H11.7a1.1 1.1 0 010-2.1h2.2a1.1 1.1 0 01.1 0Zm4-4.3a1.1 1.1 0 01.1 0h2.2a1.1 1.1 0 010 2.2H18.1A1.1 1.1 0 1118 21.3Zm-4 0a1.1 1.1 0 11-.1 2.2H11.7a1.1 1.1 0 010-2.2h2.2a1.1 1.1 0 01.1 0Zm2-9.6a2.1 2.1 0 102.1 2.2A2.1 2.1 0 0016 11.7Zm.2-2.1a4.3 4.3 0 014.1 4.3A4.3 4.3 0 0116 18.1a4.3 4.3 0 11.2-8.5ZM14 4.3a1.1 1.1 0 11-.1 2.1H11.7a1.1 1.1 0 010-2.1h2.2a1.1 1.1 0 01.1 0ZM11.7 2.1A3.2 3.2 0 008.5 5.3V26.7a3.2 3.2 0 003.2 3.2h8.6a3.2 3.2 0 003.2-3.2V5.3A3.2 3.2 0 0020.3 2.1H11.7Zm0-2.1h8.6a5.3 5.3 0 015.3 5.3V26.7A5.3 5.3 0 0120.3 32H11.7A5.3 5.3 0 016.4 26.7V5.3A5.3 5.3 0 0111.7 0Z"/>
</svg>
