<svg xmlns="http://www.w3.org/2000/svg">
  <path d="M79.3 19.2c.7 1.2.3 2.7-.9 3.4-.2.1-.5.3-.8.3l-17 2.7c-1.3.3-2.6-.7-2.8-2-.1-.5 0-1.1.2-1.5l2.2-4.7C49.1 12.1 36.1 13.2 26 20.2c-4 2.8-7.4 6.4-9.9 10.5L10 23.2c3-4.1 6.6-7.7 10.8-10.5C33.6 3.8 50.1 2.4 64.1 9.2l2.2-4.6c.6-1.3 2.1-1.8 3.3-1.2.5.2.9.5 1.1 1l8.6 14.8ZM30.6 79.8c4.4 2.1 9.1 3.3 14 3.4l-3.4 9c-5-.5-9.9-1.9-14.5-4.1C12.6 81.5 3.2 67.8 2 52.3l-5.2.4c-.5.1-1 0-1.4-.3-1.2-.7-1.6-2.2-.9-3.4L3.1 34.1c.2-.2.4-.4.6-.6 1.1-.9 2.6-.7 3.5.3L18 47.1c.4.4.6.9.6 1.4.1 1.4-.9 2.6-2.3 2.7l-5.1.4c.9 12.2 8.4 23 19.4 28.2ZM89.1 45.3c1.2 15.4-5.9 30.4-18.7 39.2l3 4.4c.3.4.5 1 .5 1.5 0 1.3-1.1 2.4-2.5 2.4H54.2c-.3 0-.6-.1-.9-.2-1.2-.5-1.9-1.9-1.4-3.2L58 73.3c.2-.5.5-.9.9-1.2 1.1-.8 2.6-.5 3.4.6l2.9 4.2c10.1-6.9 15.7-18.8 14.7-31-.3-4.8-1.7-9.5-4-13.8l9.5-1.5c2 4.7 3.3 9.6 3.6 14.7ZM32 29.8l3.9 38.9L67.6 45.9Z"/>
</svg>
