<svg xmlns="http://www.w3.org/2000/svg">
  <path d="M980.1 525.7L884 421.2c-13.2-13-34.6-13-47.8 0L740 525.7c-13.2 13.2-13.2 34.4 0 47.5h79.6c-29.9 112.3-118.1 202.9-233.2 233.3c-133.4 35.2-276.1-17.2-355-130.4l-67.2 46.2c77.9 112 205.8 176.3 338.4 176.3c34.8 0 70-4.4 104.5-13.6C758.1 845.2 872 722.9 903.4 573.2h76.6C993.3 560.1 993.3 538.9 980.1 525.7L980.1 525.7zM283.3 471.1c13.2-13.1 13.2-34.4 0-47.5h-89.7c30.7-110.9 118.1-199.9 232.1-230.1c133.6-35.3 276.1 17.2 354.9 130.6l67.2-46.3C749.5 136.5 571.7 71 404.7 115c-149.7 39.6-263 160.3-295.4 308.6H19.9c-13.2 13.2-13.2 34.5 0 47.5l100.8 100.8c13.2 13 34.6 13 47.8 0L283.3 471.1L283.3 471.1z"/>
</svg>
