<svg xmlns="http://www.w3.org/2000/svg">
  <path d="M170.5 0C76.5 0 0 76.5 0 170.5S76.5 341 170.5 341c43.9 0 84-16.7 114.3-44.1l35.5 38-10.9 10.9c-5.7 5.7-5.9 15.1-.2 20.9L443.7 507.4c5.8 6 15.5 6.2 21.5.2l42.4-42.4c5.8-5.8 5.9-15.1.2-21L373.3 303.6c-5.8-6.1-15.5-6.2-21.5-.3l-10.3 10.4-36.3-38.8C327.6 246 341 209.8 341 170.5 341 76.5 264.5 0 170.5 0zm0 30C248 30 311 93 311 170.5S248 311 170.5 311 30 248 30 170.5 93 30 170.5 30zM96 95c-8.3 0-15 6.7-15 15s6.7 15 15 15h90c8.3 0 15-6.7 15-15s-6.7-15-15-15H96zm135 1c-8.3 0-15 6.7-15 15s6.7 15 15 15h15c8.3 0 15-6.7 15-15s-6.7-15-15-15H231zM96 155c-8.3 0-15 6.7-15 15s6.7 15 15 15h15c8.3 0 15-6.7 15-15s-6.7-15-15-15H96zm60 0c-8.3 0-15 6.7-15 15s6.7 15 15 15h90c8.3 0 15-6.7 15-15s-6.7-15-15-15H156zM96 216c-8.3 0-15 6.7-15 15s6.7 15 15 15h90c8.3 0 15-6.7 15-15s-6.7-15-15-15H96zm135 1c-8.3 0-15 6.7-15 15s6.7 15 15 15h15c8.3 0 15-6.7 15-15s-6.7-15-15-15H231zM362.2 335.4 476 454.3l-21.2 21.3L341 356.6l21.2-21.2z"/>
</svg>
