<svg xmlns="http://www.w3.org/2000/svg">
  <path d="m 31.818182 8.4431814 c 0.651846 0 1.31392 0.250953 1.8125 0.75 L 54.443183 30.005681 c 0.499982 0.49858 0.75 1.15785 0.75 1.8125 0 0.654649 -0.250018 1.31392 -0.75 1.8125 l -20.812501 20.8125 c -0.49858 0.498113 -1.161122 0.75 -1.8125 0.75 l -20.96875 0 c -1.3214468 0 -2.4062498 -1.084803 -2.4062498 -2.40625 l 0 -41.9375 c 0 -1.3205126 1.084803 -2.4062496 2.4062498 -2.4062496 l 20.96875 0 z m -2.09375 6.6562496 -14.78125 0 c -0.930669 0 -1.6875 0.773325 -1.6875 1.71875 l 0 30.03125 c 0 0.946093 0.756831 1.6875 1.6875 1.6875 l 14.78125 0 c 0.458753 0 0.93011 -0.174626 1.28125 -0.53125 l 14.65625 -14.875 c 0.352127 -0.35696 0.53125 -0.843803 0.53125 -1.3125 0 -0.4687 -0.179123 -0.92429 -0.53125 -1.28125 l -14.65625 -14.90625 c -0.35114 -0.357295 -0.822168 -0.53125 -1.28125 -0.53125 z"/>
</svg>
