<svg xmlns="http://www.w3.org/2000/svg">
  <path d="M 31.90625 8.53125 C 31.254404 8.53125 30.59233 8.7822027 30.09375 9.28125 L 9.28125 30.09375 C 8.7812682 30.59233 8.53125 31.2516 8.53125 31.90625 C 8.53125 32.560899 8.7812682 33.22017 9.28125 33.71875 L 30.09375 54.53125 C 30.59233 55.029363 31.254872 55.28125 31.90625 55.28125 L 52.875 55.28125 C 54.196447 55.28125 55.28125 54.196447 55.28125 52.875 L 55.28125 10.9375 C 55.28125 9.6169869 54.196447 8.53125 52.875 8.53125 L 31.90625 8.53125 z M 34 15.1875 L 48.78125 15.1875 C 49.711919 15.1875 50.46875 15.960825 50.46875 16.90625 L 50.46875 46.9375 C 50.46875 47.883593 49.711919 48.625 48.78125 48.625 L 34 48.625 C 33.541247 48.625 33.06989 48.450374 32.71875 48.09375 L 18.0625 33.21875 C 17.710373 32.86179 17.53125 32.374947 17.53125 31.90625 C 17.53125 31.43755 17.710373 30.98196 18.0625 30.625 L 32.71875 15.71875 C 33.06989 15.361455 33.540918 15.1875 34 15.1875 z"/>
</svg>
