<svg xmlns="http://www.w3.org/2000/svg">
  <path d="m 55.548416 52.811853 1.53517 0 c 0.757603 0 1.023443 -0.228603 1.023443 -1.064507 l 0 -18.096626 c 0 -0.788002 -0.250743 -1.064508 -1.023443 -1.064508 l -1.53517 0 c -0.793171 0 -1.023443 0.276506 -1.023443 1.064508 l 0 18.096626 c 0 0.803703 0.245882 1.064507 1.023443 1.064507 z M 42.195254 52.481044 c -0.358499 0.237221 -0.796615 0.378815 -1.270717 0.378815 -1.175356 0 -2.132105 -0.870496 -2.133004 -1.945378 l 0.0017 -2.918887 -26.322945 0 c -1.176704 0 -2.131205 -0.871727 -2.131205 -1.945378 l 0 -6.814569 c 0 -1.073241 0.954501 -1.946199 2.131205 -1.946199 l 26.321594 0 -8.15e-4 -2.918477 c 0 -1.074883 0.956298 -1.945788 2.133003 -1.945788 0.473651 0 0.912218 0.142003 1.267567 0.380455 l 10.746882 8.109026 c 1.047609 0.95422 1.047609 2.500262 0 3.454072 L 42.195259 52.481044 z M 21.798897 31.87276 c 0.359592 0.240094 0.801153 0.379637 1.277133 0.379637 1.187007 0 2.148027 -0.871316 2.148027 -1.946609 l 8.96e-4 -2.918068 26.49912 0 c 1.186555 0 2.148933 -0.872136 2.148933 -1.947018 l 0 -6.812519 c 0 -1.073651 -0.961471 -1.944556 -2.148933 -1.944556 l -26.498666 0 -8.96e-4 -2.919299 c 2e-6 -1.075704 -0.961019 -1.946199 -2.147123 -1.946199 -0.477338 0 -0.918445 0.141596 -1.276677 0.379636 L 10.98087 20.308842 c -1.0529523 0.954221 -1.0529523 2.500263 0 3.454073 l 10.818029 8.109845 z m -14.6864577 0.253091 1.5351699 0 c 0.7576028 0 1.0234424 -0.228603 1.0234424 -1.064507 l 0 -18.096626 c 0 -0.788002 -0.2507434 -1.064508 -1.0234424 -1.064508 l -1.5351699 0 c -0.7931711 0 -1.023443 0.276506 -1.023443 1.064508 l 0 18.096626 c 0 0.803703 0.2458808 1.064507 1.023443 1.064507 z"/>
</svg>
