<svg xmlns="http://www.w3.org/2000/svg">
  <path d="M472.9 175.7 353.4 56.2c-6.7-6.7-17.5-6.7-24.1 0-3.2 3.2-5 7.5-5 12.1v51.2H204.8c-9.4 0-17.1 7.6-17.1 17.1 0 9.4 7.6 17.1 17.1 17.1H341.3c9.4 0 17.1-7.6 17.1-17.1V109.5l78.3 78.3-78.3 78.3V239c0-9.4-7.6-17.1-17.1-17.1H153.6v-51.2c0-9.4-7.6-17.1-17.1-17.1-4.5 0-8.9 1.8-12.1 5L5 278.1c-6.7 6.7-6.7 17.5 0 24.1l119.5 119.5c3.2 3.2 7.5 5 12.1 5 2.2 0 4.5-.4 6.5-1.3 6.4-2.6 10.5-8.9 10.5-15.8v-51.2h119.5c9.4 0 17.1-7.6 17.1-17.1 0-9.4-7.6-17.1-17.1-17.1H136.5c-9.4 0-17.1 7.6-17.1 17.1v27.1L41.2 290.1l78.3-78.2V239c0 9.4 7.6 17.1 17.1 17.1h187.7v51.2c0 9.4 7.6 17.1 17.1 17.1 4.5 0 8.9-1.8 12.1-5L472.9 199.8c6.7-6.7 6.7-17.5 0-24.1z"/>
</svg>
