<svg xmlns="http://www.w3.org/2000/svg">
  <path d="m 46.933236 18.845603 c -1.79394 -1.793941 -4.701833 -1.793941 -6.496143 0 l -15.107352 15.108092 -5.025179 -5.025179 0 0 c -0.832781 -0.832782 -1.98336 -1.348137 -3.254175 -1.348137 -2.541632 0 -4.601944 2.060312 -4.601944 4.601943 0 1.272295 0.516466 2.423984 1.351097 3.257136 l 8.270846 8.270845 0.0092 -0.01073 c 1.79357 1.79431 4.701462 1.79431 6.495403 0 L 46.933236 25.342116 c 1.79394 -1.792831 1.79431 -4.702573 0 -6.496513 m 44.934784 38.510208 0 0 -6.50998 -6.510345 6.50998 -6.50998 c 1.774019 -1.774385 1.774019 -4.650717 0 -6.424736 -1.774019 -1.774385 -4.650351 -1.774019 -6.42437 0 l -6.510346 6.50998 -6.510345 -6.510346 c -1.774385 -1.774019 -4.650718 -1.774019 -6.424736 0 -1.774385 1.774019 -1.774019 4.650351 0 6.42437 l 6.511077 6.510712 -6.510712 6.511077 c -1.774018 1.773653 -1.774018 4.64962 0 6.424005 1.774019 1.774384 4.649986 1.774384 6.424005 0 h 3.66e-4 l 6.511077 -6.511078 6.510711 6.510346 c 1.773654 1.774385 4.64962 1.774385 6.424005 0 1.773653 -1.773653 1.773653 -4.64962 -7.32e-4 -6.424005 z"/>
</svg>
