<svg xmlns="http://www.w3.org/2000/svg">
  <path d="m24 15a3 3 0 103 3 3 3 0 00-3-3zm0 4a1 1 0 111-1 1 1 0 01-1 1zm8 0a8 8 0 00-16 0 9 9 0 002.2 5.9l2.3 2.6C17.8 28.3 16 30 16 32c0 2.8 3.5 5 8 5s8-2.2 8-5c0-2-1.8-3.7-4.5-4.5l2.3-2.6A9 9 0 0032 19Zm-2 13c0 1.4-2.5 3-6 3s-6-1.6-6-3c0-1.2 1.7-2.4 4-2.8l1.3 1.5a1 1 0 001.5 0L26 29.2c2.3.4 4 1.6 4 2.8Zm-6-3.5-4.3-4.9A7 7 0 0118 19a6 6 0 0112 0 7 7 0 01-1.7 4.6ZM52.4 42a3.5 3.5 0 00-4.4-.4l-4.9-4.9a23 23 0 10-6.4 6.4l4.9 4.9a3.4 3.4 0 00.4 4.4l8.4 8.4A7.4 7.4 0 1060.8 50.4ZM3 24A21 21 0 1124 45 21 21 0 013 24ZM41.9 38.4 46.6 43 43 46.6l-4.6-4.7a23.3 23.3 0 003.6-3.6zM43 50a1.4 1.4 0 01.4-1L49 43.4a1.4 1.4 0 012 0L52.6 45 45 52.6 43.4 51A1.4 1.4 0 0143 50ZM55.6 61a5.3 5.3 0 01-3.8-1.6L46.4 54 54 46.4l5.4 5.4A5.4 5.4 0 0155.6 61ZM24 6A18 18 0 1042 24 18 18 0 0024 6Zm0 34A16 16 0 1140 24 16 16 0 0124 40Z"/>
</svg>
