<svg xmlns="http://www.w3.org/2000/svg">
  <path d="M19.44,82.77h15.2a15.48,15.48,0,0,0,30.71,0h15.2a8.9,8.9,0,0,0,6.62-14.85L80.34,60.3V46.24A30.4,30.4,0,0,0,62.11,18.45V16.18A12.31,12.31,0,0,0,50.83,3.77,12.12,12.12,0,0,0,37.89,15.86v2.6a30.42,30.42,0,0,0-18.23,27.8v14l-6.84,7.62a8.9,8.9,0,0,0,6.62,14.85ZM50,90.26a9.51,9.51,0,0,1-9.28-7.49H59.28A9.51,9.51,0,0,1,50,90.26ZM17.29,71.93l7.6-8.47a3,3,0,0,0,.77-2V46.26A24.41,24.41,0,0,1,41.89,23.32a3,3,0,0,0,2-2.83V15.86A6.13,6.13,0,0,1,50,9.74h.43a6.3,6.3,0,0,1,5.69,6.42v4.31a3,3,0,0,0,2,2.83A24.39,24.39,0,0,1,74.34,46.24V61.45a3,3,0,0,0,.77,2l7.6,8.47a2.9,2.9,0,0,1-2.16,4.84H19.44a2.9,2.9,0,0,1-2.16-4.84Z"/>
</svg>
