<svg xmlns="http://www.w3.org/2000/svg">
  <path d="m 47.065251 9.4065848 c -0.744012 0.0045 -1.49492 0.1555352 -2.218752 0.5625018 L 14.002749 27.656586 c -0.707558 0.558882 -1.093088 0.880585 -1.468751 1.531245 -1.20964 2.095155 -0.501407 4.759111 1.593749 5.96875 l 31.21875 18.031251 c 2.095156 1.209638 4.759113 0.470154 5.968749 -1.625001 0.375437 -0.650276 0.463687 -1.138433 0.593751 -2.03125 L 51.784 13.969085 C 51.76467 12.308181 50.920149 11.06779 49.690251 10.062835 L 49.31525 9.8440856 C 48.572229 9.5625379 47.809261 9.4020417 47.065251 9.4065848 z m -3.25 6.8437492 c 0.507936 -0.0031 0.992737 0.120289 1.499999 0.312501 l 0.28125 0.124999 c 0.839655 0.686084 1.424299 1.5536 1.437501 2.6875 l 0.0625 24.281249 c -0.08879 0.609529 -0.118689 0.931057 -0.375 1.375001 -0.825823 1.430365 -2.663383 1.919571 -4.09375 1.093752 l -21.3125 -12.281253 c -1.430365 -0.825821 -1.919573 -2.66338 -1.093749 -4.09375 0.256463 -0.444206 0.548198 -0.649696 1.031249 -1.031247 l 21.03125 -12.0625 c 0.494162 -0.277837 1.023314 -0.403149 1.531251 -0.406253 z"/>
</svg>
