<svg xmlns="http://www.w3.org/2000/svg">
  <path d="M11 8c.3 0 .5.1.7.3L14 10.6l2.3-2.3c.4-.4 1-.4 1.4 0 .4.4.4 1 0 1.4L15.4 12l2.3 2.3c.4.4.4 1 0 1.4-.4.4-1 .4-1.4 0L14 13.4l-2.3 2.3c-.4.4-1 .4-1.4 0-.4-.4-.4-1 0-1.4L12.6 12 10.3 9.7c-.4-.4-.4-1 0-1.4.2-.2.4-.3.7-.3ZM8.7 5c-.9 0-1.6.3-2 .9-.1 0-.1 0-.1 0L3.2 9.3s0 0 0 0C2.4 10 2 11 2 12s.4 2 1.1 2.7l3.4 3.4c.6.6 1.4.9 2.1.9H19c1.6 0 3-1.4 3-3V8c0-1.6-1.4-3-3-3H8.7Zm0-2H19c2.8 0 5 2.2 5 5v8c0 2.8-2.2 5-5 5H8.6c-1.3 0-2.5-.5-3.5-1.5L1.7 16.1C.6 15 0 13.6 0 12S.6 9 1.8 7.9L5.2 4.5C6.1 3.5 7.4 3 8.7 3Z"/>
</svg>
