<svg xmlns="http://www.w3.org/2000/svg">
  <path d="m 47.092371 38.3015 -7.365711 -7.39241 7.365711 -7.392558 -3.837021 -3.850858 -7.365562 7.392558 -7.36571 -7.392558 -3.83687 3.850858 7.36571 7.392558 -7.36571 7.39241 3.83687 3.851006 7.36571 -7.392558 7.365562 7.392558 3.837021 -3.851006 z M 3.1738537 36.189383 16.492042 49.556116 c 1.642397 1.648234 3.028841 2.262065 6.005006 2.262065 l 31.249728 0 c 4.109191 0 7.44041 -3.343365 7.44041 -7.467533 l 0 -26.883116 c 0 -4.124168 -3.331219 -7.4675325 -7.44041 -7.4675325 l -31.249728 0 c -2.976165 0 -4.362609 0.6142785 -6.005006 2.2625125 L 3.1738537 25.628797 c -2.90562889 2.916221 -2.90562889 7.644365 0 10.560586 z M 22.497048 47.337662 c -1.488082 0 -2.076171 -0.175039 -2.848189 -0.949721 L 6.3306708 33.021207 c -1.1623403 -1.166429 -1.1623403 -3.057656 0 -4.224234 L 19.648859 15.430687 c 0.772018 -0.774681 1.360107 -0.950169 2.848189 -0.950019 l 31.249728 0 c 1.643736 0 2.976164 1.337286 2.976164 2.987012 l 0 26.883117 c 0 1.64958 -1.332428 2.987013 -2.976164 2.987013 l -31.249728 -1.48e-4 z"/>
</svg>
