<svg xmlns="http://www.w3.org/2000/svg">
  <path d="M14.1 11.5c.2 0 .3.1.5.2.3.3.3.8 0 1.1l-1.5 1.4 1.5 1.5c.3.3.3.8 0 1.1-.3.3-.8.3-1.1 0L12 15.2l-1.5 1.6c-.3.3-.8.3-1.1 0-.3-.3-.3-.8 0-1.1l1.5-1.4-1.5-1.5c-.3-.3-.3-.8 0-1.1.3-.3.8-.3 1.1 0L12 13.2l1.5-1.5c.2-.1.4-.2.6-.2ZM3.8 8.8V19.5c0 .4.3.8.7.8h15c.4 0 .8-.4.8-.8V8.8H3.8Zm.7-5c-.4 0-.7.3-.7.7V5 7.3H20.3V4.5c0-.4-.4-.7-.8-.7H4.5Zm0-1.5h15c1.2 0 2.3 1 2.3 2.2V5 8 19.5c0 1.2-1.1 2.3-2.3 2.3H4.5c-1.2 0-2.2-1.1-2.2-2.3V11 5 4.5c0-1.2 1-2.2 2.2-2.2Z"/>
</svg>
