<svg xmlns="http://www.w3.org/2000/svg">
  <path d="M7.3 12.1c0-.3-.2-.5-.4-.5H2.7L12 2.3l9.3 9.3H17.1c-.3 0-.5.3-.5.5v4.7H7.3ZM17 17.7c.3 0 .5-.2.4-.4V12.6h4.9c.2 0 .4-.2.4-.5 0-.2-.1-.3-.2-.4L12.2 1.4c-.1-.2-.4-.2-.6 0L1.2 11.8c-.1.1-.2.3-.1.5 0 .2.2.3.4.3H6.4v4.7c0 .2.2.4.5.4H17ZM7.3 19.8h9.3v2.1H7.3Zm9.7 3c.3 0 .5-.2.5-.5v-3c0-.3-.2-.5-.5-.5H6.9c-.3 0-.5.2-.5.5v3c0 .3.2.5.5.5H17ZM9.7 13.9c.2 0 .4-.1.4-.2l1.8-4.4 1.8 4.4c.1.2.4.3.6.2s.3-.3.2-.6L12.3 8c-.1-.4-.7-.4-.8 0L9.3 13.3c-.1.2 0 .5.2.6.1 0 .1 0 .2 0Zm2.2-2h1.4V11H11.9Z"/>
</svg>
