<svg xmlns="http://www.w3.org/2000/svg">
  <path d="M 66.667 0 H 65.068 60.14 58.333 21.907 C 15.572 0 10.416 5.155 10.416 11.491 v 77.018 c 0 6.335 5.155 11.491 11.491 11.491 h 56.185 c 6.335 0 11.491 -5.155 11.491 -11.491 V 29.167 26.461 22.319 20.834 L 66.667 0 z m 0 8.333 14.583 12.5 H 69.824 c -1.741 0 -3.157 -1.416 -3.157 -3.158 V 8.333 z M 81.25 88.509 c 0 1.741 -1.416 3.158 -3.158 3.158 H 21.907 c -1.741 0 -3.157 -1.416 -3.157 -3.158 V 11.491 c 0 -1.741 1.416 -3.158 3.157 -3.158 h 36.426 v 1.278 8.065 c 0 6.335 5.155 11.491 11.491 11.491 H 81.25 v 59.342 z"/>
</svg>
