<svg xmlns="http://www.w3.org/2000/svg">
  <path d="m 45.54113,39.007179 c 2.401283,-2.401283 3.556694,-5.576688 3.466186,-8.72289 l 4.151989,4.15199 -3e-5,-4.57091 -6.094504,-6.094536 -6.094578,6.094537 4.2e-5,4.570915 4.258757,-4.258757 c 0.122718,2.215108 -0.662046,4.471107 -2.354226,6.163288 l -0.812149,0.711474 2.682552,2.682549 0.795961,-0.727659 z m -15.381916,12.02267 0,-5.84807 -6.467411,0 0,5.84807 6.467411,0 z m -17.246452,-5.84808 6.467412,0 0,5.84811 -6.467412,0 z m -8.6231786,-2.92411 4.311603,0 0,8.77219 -4.311603,0 z m 8e-6,-14.620273 4.311597,0 0,8.77219 -4.311597,0 z m 56.1210946,8.779607 -4.3116,0 0,-8.77219 4.3116,0 z m -4.31162,14.620266 4.31158,0 3e-5,-8.77219 -4.31161,0 0,8.77219 z m -4.311621,0 -6.467414,0 0,-5.84812 6.467414,0 z m -17.246451,-5.84824 0,5.84816 6.467471,8e-5 0,-5.84816 -6.467471,-8e-5 z m 25.779092,-23.341295 -56.0285036,-1.9e-5 0,-8.878127 56.0285036,1.8e-5 0,8.878128 z"/>
</svg>
