<svg xmlns="http://www.w3.org/2000/svg">
  <path d="M 30,8 C 30,7.204 29.684,6.441 29.121,5.879 28.559,5.316 27.796,5 27,5 H 5 C 4.204,5 3.441,5.316 2.879,5.879 2.316,6.441 2,7.204 2,8 v 16 c 0,0.796 0.316,1.559 0.879,2.121 C 3.441,26.684 4.204,27 5,27 h 22 c 0.796,0 1.559,-0.316 2.121,-0.879 C 29.684,25.559 30,24.796 30,24 Z m -2,0 v 16 c 0,0.265 -0.105,0.52 -0.293,0.707 C 27.52,24.895 27.265,25 27,25 H 5 C 4.735,25 4.48,24.895 4.293,24.707 4.105,24.52 4,24.265 4,24 V 8 C 4,7.735 4.105,7.48 4.293,7.293 4.48,7.105 4.735,7 5,7 h 22 c 0.265,0 0.52,0.105 0.707,0.293 C 27.895,7.48 28,7.735 28,8 Z M 18,22 h 6 c 0.552,0 1,-0.448 1,-1 0,-0.552 -0.448,-1 -1,-1 h -6 c -0.552,0 -1,0.448 -1,1 0,0.552 0.448,1 1,1 z m -10.654,-9.905 4.186,3.614 c 0.11,0.095 0.173,0.234 0.173,0.379 0,0.145 -0.063,0.283 -0.173,0.378 0,0 -4.186,3.615 -4.186,3.615 -0.417,0.361 -0.464,0.993 -0.103,1.411 0.361,0.417 0.993,0.463 1.411,0.103 0,0 2.558,-2.21 4.185,-3.615 0.55,-0.475 0.866,-1.166 0.866,-1.892 0,-0.727 -0.316,-1.417 -0.866,-1.892 L 8.654,10.581 c -0.418,-0.361 -1.05,-0.314 -1.411,0.103 -0.361,0.418 -0.314,1.05 0.103,1.411 z"/>
</svg>
