<svg xmlns="http://www.w3.org/2000/svg">
  <path d="M301.8 241c3.6-8.4 5.2-20.8 4.4-39.2-.8-17.6-4-36.8-8.4-55.2-4.4-17.6-10-33.2-16.8-45.2-22-39.6-47.6-32.8-78-25.2-12.4 3.2-25.2 6.4-39.6 7.6-.4 0-.4 0-.8 0h-4.4c-.4 0-.4 0-.8 0-14-1.2-26.8-4.4-39.2-7.6-30.4-8-56-14.4-78 25.2-6.8 12-12.4 28-16.8 45.2-4.8 18.4-7.6 38-8.4 55.2-.8 18.4.8 30.8 4 38.4 2.4 5.6 5.6 8.8 9.6 10 4.4 1.6 10 .4 16.4-2 13.6-5.2 30-18 46.4-33.2 15.6-14.4 42.4-22 69.2-22 26.8 0 53.6 7.6 68.8 22.8 16 15.2 32.4 27.6 46.4 33.2 6.4 2.4 12 3.2 16.4 2 4-1.2 7.2-4.4 9.6-10ZM321 201c.8 20.8-1.2 35.6-5.6 45.6-4.4 10.4-11.2 16-19.2 18.4-7.6 2-16.4.8-25.6-2.8-15.6-6.4-33.6-20-51.2-36.4-12.4-12-35.6-18-58.8-18s-46.4 6-58.8 18c-17.6 16.4-35.6 30-51.2 36.4-9.2 4-18 4.8-25.6 2.8-8.4-2.4-14.8-8.4-19.2-18C1.4 236.6-.6 221.8.2 201.4c.8-18.4 4-38.8 8.8-58 4.4-18.4 10.8-35.6 18-48.8C55 45 85.4 53 121.8 62.2c11.6 2.8 24 6 36.8 7.2h4c12.8-1.2 25.2-4.4 36.8-7.2 36.4-9.6 66.8-17.2 94.8 32 7.2 13.2 13.2 30.4 18 48.8 4.8 19.2 8 39.6 8.8 58ZM113.8 145.4c1.6-1.6 2.4-3.6 2.4-6s-.8-4.4-2.4-6-3.6-2.4-6-2.4h-5.6c-4.4 0-7.6-3.6-7.6-7.6v-5.6c0-2-.8-4-2-5.6-.4-.4-.4-.4-.4-.4-1.6-1.6-3.6-2.4-6-2.4s-4.4.8-6 2.4c-1.6 1.6-2.4 3.6-2.4 6v5.6c0 4.4-3.6 7.6-7.6 7.6H64.6c-2 0-4 .8-5.6 2-.4.4-.4.4-.4.4-1.6 1.6-2.4 3.6-2.4 6s1.2 4.4 2.4 5.6c1.6 1.6 3.6 2.4 6 2.4h5.6c4.4 0 7.6 3.6 7.6 7.6v5.6c0 2.4.8 4.4 2.4 6s3.6 2.4 6 2.4 4.4-.8 6-2.4c1.6-1.6 2.4-3.6 2.4-6v-5.2c0-4.4 3.6-7.6 7.6-7.6h5.6c2.4 0 4.4-.8 6-2.4Zm10-22.4c4 4 6.8 10 6.8 16.4s-2.4 12-6.8 16.4c-3.6 4-8.8 6.4-14.4 6.8-.4 5.6-3.2 10.4-6.8 14.4-4 4-10 6.8-16.4 6.8s-12-2.4-16.4-6.8c-4-3.6-6.4-8.8-6.8-14.4-6-.4-10.8-2.8-14.8-6.8s-6.8-10-6.8-16.4 2.4-12 6.8-16.4l.4-.4c4-3.6 8.8-6 14.4-6.4.4-5.6 3.2-10.8 6.8-14.4 4-4 10-6.8 16.4-6.8s12 2.4 16.4 6.8l.4.4c3.6 3.6 6 8.8 6.4 14 5.6.4 10.4 3.2 14.4 6.8Zm120.4-12a14 14 0 00-14-14 14 14 0 00-14 14 14 14 0 0014 14 14 14 0 0014-14Zm0 56.8a14 14 0 00-14-14 14 14 0 00-14 14 14 14 0 0014 14 14 14 0 0014-14Zm-28.4-28.4a14 14 0 00-14-14 14 14 0 00-14 14 14 14 0 0014 14 14 14 0 0014-14Zm56.8 0a14 14 0 00-14-14 14 14 0 00-14 14 14 14 0 0014 14 14 14 0 0014-14Z"/>
</svg>
