<svg xmlns="http://www.w3.org/2000/svg">
  <path d="M460 467.7c20.7 0 37.4-16.7 37.5-37.4V151.4H433.6c-34.5 0-62.4-27.9-62.4-62.4V25H206c-20.7.1-37.4 16.8-37.5 37.5V88.6h69.7c3.4-.1 6.6 1.3 9 3.7l.1.1L373.4 218.3c2.3 2.4 3.6 5.6 3.6 8.9V467.8h83ZM250.6 131.1v46.4c.1 20.7 16.8 37.4 37.5 37.5h46.6Zm63.9 425.1c20.7-.1 37.5-16.8 37.6-37.5V239.8h-64c-34.5 0-62.4-27.9-62.4-62.4v-64H160.4c-2.8 1-5.9 1-8.7 0H60.6c-20.7.1-37.4 16.8-37.5 37.5V518.8c0 20.7 16.8 37.4 37.4 37.5H314.6ZM395.9 89c.1 20.7 16.8 37.4 37.5 37.5H480L396 42.6Zm122.9 40.8c2.3 2.4 3.6 5.6 3.6 8.9V430.3c0 34.5-27.9 62.4-62.4 62.4H377v26.1c0 34.5-27.9 62.4-62.4 62.4H60.5c-34.5 0-62.4-27.9-62.4-62.4V150.9c0-34.5 27.9-62.4 62.4-62.4h83.1V62.4C143.6 28 171.5 0 206 0H383.5c3.4 0 6.6 1.3 9 3.8l.1.1ZM73.8 315.7c-6.9 0-12.5-5.6-12.5-12.5s5.6-12.5 12.5-12.5H200.2c6.9 0 12.5 5.6 12.5 12.5s-5.6 12.5-12.5 12.5H73.8Zm227.6 63.6c6.9 0 12.5 5.6 12.5 12.5s-5.6 12.5-12.5 12.5H73.8c-6.9 0-12.5-5.6-12.5-12.5s5.6-12.5 12.5-12.5H301.4Zm0 88.5c6.9 0 12.5 5.6 12.5 12.5s-5.6 12.5-12.5 12.5H73.8c-6.9 0-12.5-5.6-12.5-12.5s5.6-12.5 12.5-12.5H301.4Zm145.4-177c6.9 0 12.5 5.6 12.5 12.5s-5.6 12.5-12.5 12.5H408.7c-6.9 0-12.5-5.6-12.5-12.5s5.6-12.5 12.5-12.5h38.1Zm0 88.5c6.9 0 12.5 5.6 12.5 12.5s-5.6 12.5-12.5 12.5H408.7c-6.9 0-12.5-5.6-12.5-12.5s5.6-12.5 12.5-12.5h38.1Z"/>
</svg>
