<svg xmlns="http://www.w3.org/2000/svg">
  <path d="m465.2 164.5-89.4-89.5c-2.6-2.6-6.2-4.1-10-4.1h-45.4v-26.6c0-7.8-6.3-14.1-14.1-14.1h-183.4v-14.1c0-7.8-6.3-14.1-14.1-14.1s-14.1 6.3-14.1 14.1v416.8c-29.1 6.3-51 31.4-52.1 62.5-.1 3.8 1.9 14.6 14.1 14.6h104.1c12.8 0 14.2-10.8 14.1-14.6-1-31-22.9-56.2-52.1-62.5v-195.5h169.3v26.5c0 7.8 6.3 14.1 14.1 14.1h59.5c3.7 0 7.3-1.5 10-4.1l89.5-89.5c2.6-2.6 4.1-6.2 4.1-10 .1-3.7-1.4-7.3-4.1-9.9zm-321.8 317.3h-69.2c6-13.1 19.2-22.2 34.6-22.2s28.6 9 34.6 22.2zm148.8-272.7h-169.3v-150.7h169.3zm67.7 40.7h-39.5v-150.7h39.5l75.4 75.3z"/>
</svg>
