<svg xmlns="http://www.w3.org/2000/svg">
  <path d="M256 121.4 133.6 256 256 390.6V336c0-8.8 7.2-16 16-16 76 0 149.7 27.2 207.4 76.7l.6.5C478.5 283.8 385.8 192 272 192c-8.8 0-16-7.2-16-16V121.4ZM273.1 64c1.5.1 3.1.4 4.7 1 6.1 2.4 10.2 8.4 10.2 15v80.5C412.9 168.7 512 273 512 400v32c0 6.2-3.6 11.9-9.3 14.5-5.7 2.7-12.4 1.7-17.1-2.3l-27-23.2c-47.9-41-107.9-65.1-170.6-68.6V432c0 6.6-4.1 12.5-10.2 14.9-1.9.7-3.9 1.1-5.8 1.1-4.4 0-8.7-1.9-11.8-5.3l-160-176c-5.6-6.1-5.6-15.4 0-21.5l160-176c3.3-3.6 8.1-5.5 12.9-5.2Zm-97.9 0c4.1-.2 8.3 1.2 11.5 4.1 6.6 6 7.1 16.1 1.1 22.6L37.6 256 187.8 421.2c6 6.6 5.5 16.7-1.1 22.6-3 2.8-6.9 4.2-10.7 4.2-4.4 0-8.7-1.8-11.8-5.3l-160-176c-5.6-6.1-5.6-15.4 0-21.5l160-176c2.9-3.2 7-5 11-5.2Z"/>
</svg>
