<svg xmlns="http://www.w3.org/2000/svg">
  <path d="m 9.3485407,32.370461 c 0,-3.395927 1.4283513,-6.458276 3.7170513,-8.618978 l -5.8718015,-1e-6 3.2321455,-3.232097 8.618951,-2.5e-5 2.9e-5,8.619006 -3.232154,3.232096 0,-6.022792 c -1.653093,1.479543 -2.693413,3.629687 -2.693414,6.022792 l 0.07119,1.077364 -3.7937027,10e-7 -0.048293,-1.077365 z m 25.2059553,5.36814 0,5.848154 6.46747,8.1e-5 0,-5.848154 -6.46747,-8.1e-5 z m -4.38178,5.840825 0,-5.848072 -6.46741,0 0,5.848072 6.46741,0 z m 4.381776,10.333449 0,5.848154 6.46747,8.1e-5 0,-5.848154 -6.46747,-8.1e-5 z m 17.24645,5.84824 -6.46741,0 0,-5.848121 6.46741,0 z m 4.31163,-5e-6 4.31158,0 2e-5,-8.77219 -4.3116,0 0,8.77219 z m 4.31162,-13.240529 -4.31161,0 0,-8.77219 4.31161,0 z m -8.62319,-2.924116 -6.46741,0 0,-5.848113 6.46741,0 z m -38.874676,-5.855474 6.467411,0 0,5.848121 -6.467411,0 z m -4.3116251,-5e-6 -4.311579,0 -2.4e-5,8.772191 4.311603,0 0,-8.772191 z m -4.311616,13.240523 4.311603,0 0,8.77219 -4.311603,0 z m 8.6231801,2.924111 6.467411,0 0,5.848113 -6.467411,0 z m 17.246447,5.84808 0,-5.848072 -6.46741,0 0,5.848072 6.46741,0 z M 23.932029,7.2244318 c -0.997187,0 -1.823512,0.804086 -1.823512,1.8012734 l 0,6.2043868 0,1.934702 0,6.204387 c 0,0.997188 0.80451,1.801273 1.801274,1.801273 l 34.513293,0 c 0.997188,0 1.823512,-0.804085 1.823512,-1.801273 l 0,-6.204387 0,-1.934702 0,-6.2043868 c 0,-0.9971874 -0.80451,-1.8012734 -1.801274,-1.8012734 l -34.513293,0 z m 1.801274,3.6025472 30.888508,0 0,4.403113 0,1.934702 0,4.403113 -30.888508,0 0,-4.403113 0,-1.934702 0,-4.403113 z"/>
</svg>
