<svg xmlns="http://www.w3.org/2000/svg">
  <path d="M466.088,451.252c-5.304,0-10.392,2.107-14.142,5.858L271.4,637.657c-7.811,7.811-7.811,20.475,0,28.285 s20.474,7.811,28.284-0.001l166.404-166.404l166.406,166.405c3.904,3.905,9.023,5.857,14.142,5.857s10.237-1.953,14.143-5.858 c7.81-7.81,7.81-20.474,0-28.284L480.23,457.11C476.48,453.359,471.393,451.252,466.088,451.252z M480.232,575.932c-7.812-7.809-20.474-7.809-28.285,0L336.424,691.456c-7.811,7.811-7.811,20.475,0,28.285 c7.811,7.809,20.474,7.809,28.284,0l101.381-101.382L567.47,719.741c3.905,3.904,9.024,5.857,14.143,5.857 s10.237-1.953,14.143-5.857c7.811-7.811,7.811-20.475,0-28.285L480.232,575.932z"/>
</svg>
