<svg xmlns="http://www.w3.org/2000/svg">
  <path d="M19 8c.3 0 .4.1.4.1.2.1.3.2.4.4 0 0 .1.2.1.4 0 .3 0 .7 0 1.2v3.6c0 .6-0 .9-0 1.2-0 .3-.1.4-.1.4-.1.2-.2.3-.4.4-0 0-.2.1-.4.1-.3 0-.7 0-1.2 0H16c-.6 0-1 .4-1 1s.4 1 1 1h1.8c.5 0 1 0 1.4-0 .4-0 .8-.1 1.2-.3.6-.3 1-.7 1.3-1.3.2-.4.3-.8.3-1.2C22 14.8 22 14.4 22 13.8V10.2c0-.5 0-1-0-1.4-0-.4-.1-.8-.3-1.2-.3-.6-.7-1-1.3-1.3-.4-.2-.8-.3-1.2-.3C18.8 6 18.4 6 17.8 6H16c-.6 0-1 .4-1 1s.4 1 1 1h1.8c.6 0 .9 0 1.2 0ZM6.2 6c-.5-0-1-0-1.4 0-.4 0-.8.1-1.2.3-.6.3-1 .7-1.3 1.3-.2.4-.3.8-.3 1.2C2 9.2 2 9.6 2 10.2v3.7c-0 .5-0 1 0 1.4 0 .4.1.8.3 1.2.3.6.7 1 1.3 1.3.4.2.8.3 1.2.3C5.2 18 5.6 18 6.2 18H8c.6 0 1-.4 1-1s-.4-1-1-1H6.2c-.6 0-.9-0-1.2-0-.3-0-.4-.1-.4-.1-.2-.1-.3-.2-.4-.4-0-0-.1-.2-.1-.4C4 14.7 4 14.4 4 13.8V10.2c0-.6 0-.9 0-1.2 0-.3.1-.4.1-.4.1-.2.2-.3.4-.4 0-0 .2-.1.4-.1C5.3 8 5.6 8 6.2 8H8c.6 0 1-.4 1-1S8.6 6 8 6H6.2ZM8 3c0 .6.4 1 1 1h1c.6 0 1 .4 1 1V19c0 .6-.4 1-1 1H9c-.6 0-1 .4-1 1s.4 1 1 1h1c.8 0 1.5-.3 2-.8.5.5 1.2.8 2 .8h1c.6 0 1-.4 1-1s-.4-1-1-1H14c-.6 0-1-.4-1-1V5c0-.6.4-1 1-1h1c.6 0 1-.4 1-1s-.4-1-1-1H14c-.8 0-1.5.3-2 .8C11.5 2.3 10.8 2 10 2H9c-.6 0-1 .4-1 1Z"/>
</svg>
