<svg xmlns="http://www.w3.org/2000/svg">
  <path d="M 0 0 L 0 2.5253906 L 0 37.794922 L 18.011719 37.794922 L 18.011719 43.431641 L 11.945312 43.431641 L 11.945312 47.091797 L 18.011719 47.091797 L 18.011719 47.132812 L 42.460938 47.132812 L 42.460938 47.091797 L 48.527344 47.091797 L 48.527344 43.431641 L 42.460938 43.431641 L 42.460938 37.794922 L 60.472656 37.794922 L 60.472656 0 L 0 0 z M 5.0488281 5.0488281 L 55.423828 5.0488281 L 55.423828 32.746094 L 5.0488281 32.746094 L 5.0488281 5.0488281 z M 29.291016 13.117188 L 29.291016 17.841797 L 24.566406 17.841797 L 24.566406 19.732422 L 29.291016 19.732422 L 29.291016 24.457031 L 31.181641 24.457031 L 31.181641 19.732422 L 35.90625 19.732422 L 35.90625 17.841797 L 31.181641 17.841797 L 31.181641 13.117188 L 29.291016 13.117188 z M 21.791016 38.3125 L 38.681641 38.3125 L 38.681641 43.353516 L 21.791016 43.353516 L 21.791016 38.3125 z"/>
</svg>
