<svg xmlns="http://www.w3.org/2000/svg">
  <path d="M 4.5351562 0 A 4.5354333 4.5354333 0 0 0 0 4.5351562 A 4.5354333 4.5354333 0 0 0 4.5351562 9.0703125 A 4.5354333 4.5354333 0 0 0 9.0703125 4.5351562 A 4.5354333 4.5354333 0 0 0 4.5351562 0 z M 13.3125 2.2714844 A 9.0708663 9.0708663 0 0 1 13.605469 4.5351562 A 9.0708663 9.0708663 0 0 1 13.369141 6.5605469 L 58.447266 6.5605469 L 58.447266 36.902344 A 9.0708664 9.0708664 0 0 1 60.472656 36.662109 A 9.0708664 9.0708664 0 0 1 62.736328 36.960938 L 62.736328 2.2714844 L 13.3125 2.2714844 z M 2.2636719 13.306641 L 2.2636719 47.625 L 51.613281 47.625 A 9.0708664 9.0708664 0 0 1 51.402344 45.732422 A 9.0708664 9.0708664 0 0 1 51.736328 43.328125 L 6.5605469 43.328125 L 6.5605469 13.365234 A 9.0708663 9.0708663 0 0 1 4.5351562 13.605469 A 9.0708663 9.0708663 0 0 1 2.2636719 13.306641 z M 60.472656 40.818359 A 4.5354333 4.5354333 0 0 0 55.9375 45.353516 A 4.5354333 4.5354333 0 0 0 60.472656 49.890625 A 4.5354333 4.5354333 0 0 0 65.007812 45.353516 A 4.5354333 4.5354333 0 0 0 60.472656 40.818359 z"/>
</svg>
