<svg xmlns="http://www.w3.org/2000/svg">
  <path d="M25.0133 34.9231v8.8781l17.4912 0v-8.8781l-17.4912-0Zm6.5104-23.3413-6.4675-.0001V5.7336l6.4675.0001v5.8482Zm-17.2464-.0001h6.4674V5.7336h-6.4674ZM9.9657 5.7336v8.7722H5.6541l0-8.7722h4.3116ZM5.6541 29.126h4.3116v-8.7722H5.6541Zm0 14.6203h4.3116v-8.7722H5.6541Zm8.6232 0h6.4674v-5.8481h-6.4674Zm38.8747-5.8408h-6.4674v5.8481h6.4674Zm4.3116 5.8481V34.9815h4.3116l-0 8.7722H57.4636Zm4.3116-23.3924H57.4636v8.7722h4.3116Zm0-14.6203H57.4636v8.7722h4.3116Zm-8.6232-0h-6.4674v5.8481h6.4674Zm-17.2465 0h6.4674v5.8481h-6.4674V5.741Zm-1.3819 12.0227.796-.7277 2.6826 2.6826-.8121.7115c-1.6922 1.6922-2.4769 3.9482-2.3542 6.1633l4.2588-4.2588 0 4.5709L33 33l-6.0945-6.0945-0-4.5709 4.152 4.152c-.0905-3.1462 1.0649-6.3216 3.4662-8.7229Z"/>
</svg>
