<svg xmlns="http://www.w3.org/2000/svg">
  <path d="M223.8 146.4c-4-7.3-3.6-16.1.9-23l42.5-65.2H245.6c-12.4 0-22.5-10.1-22.5-22.5s10.1-22.5 22.5-22.5H262c4.1 0 7.5 3.4 7.5 7.5s-3.4 7.5-7.5 7.5H245.6c-4.1 0-7.5 3.4-7.5 7.5s3.4 7.5 7.5 7.5H281c2.8 0 5.3 1.5 6.6 3.9 1.3 2.5 1.2 5.4-.3 7.7l-50 76.8c-3.2 6.5 1.5 11.4 6.3 11.6h66.7c4.1 0 7.5-3.4 7.5-7.5s-3.4-7.5-7.5-7.5h-39c-2.8 0-5.3-1.5-6.6-3.9-1.3-2.5-1.2-5.4.3-7.7l50-76.8c1.5-2.3 1.6-5.3.3-7.7-1.3-2.4-3.8-3.9-6.6-3.9H297c-4.1 0-7.5-3.4-7.5-7.5 0-4.1 3.4-7.5 7.5-7.5h11.7c8.2 0 15.8 4.5 19.7 11.8 4 7.3 3.6 16.1-.9 23L285 113.2h25.2c12.4 0 22.5 10.1 22.5 22.5s-10.1 22.5-22.5 22.5H243.5c-8.3 0-15.9-4.5-19.8-11.8Zm191.7 41.8c4.1 0 7.5-3.4 7.5-7.5s-3.4-7.5-7.5-7.5H389.8c-2.8 0-5.3-1.5-6.6-3.9-1.3-2.5-1.2-5.4.3-7.7l37-56.8c1.5-2.3 1.6-5.3.3-7.7s-3.8-3.9-6.6-3.9H363.7c-4.1 0-7.5 3.4-7.5 7.5s3.4 7.5 7.5 7.5h22.8c2.8 0 5.3 1.5 6.6 3.9 1.3 2.5 1.2 5.4-.3 7.7l-37 56.8c-3.2 6.5 1.5 11.4 6.3 11.6h53.4Zm-0-30c12.4 0 22.5 10.1 22.5 22.5s-10.1 22.5-22.5 22.5H362.1c-17.8.3-28.4-21.2-18.9-34.8l29.5-45.2h-9c-12.4 0-22.5-10.1-22.5-22.5s10.1-22.5 22.5-22.5h50.5c8.3 0 15.9 4.5 19.8 11.8 4 7.3 3.6 16.1-.9 23l-29.5 45.2h11.9ZM264 261.6c-3.2 6.5 1.5 11.4 6.3 11.6h40c4.1 0 7.5-3.4 7.5-7.5s-3.4-7.5-7.5-7.5H297.9c-2.8 0-5.3-1.5-6.6-3.9-1.3-2.5-1.2-5.4.3-7.7l24-36.8c1.5-2.3 1.6-5.3.3-7.7s-3.8-3.9-6.6-3.9H271.4c-4.1 0-7.5 3.4-7.5 7.5s3.4 7.5 7.5 7.5h10.2c2.8 0 5.3 1.5 6.6 3.9 1.3 2.5 1.2 5.4-.3 7.7l-24 36.8Zm-13.6 14.7c-4-7.3-3.6-16.1.9-23l16.6-25.5c-10.7-1.6-19-11-19-22.2 0-12.4 10.1-22.5 22.5-22.5h37.9c8.3 0 15.9 4.5 19.8 11.8 4 7.3 3.6 16.1-.9 23l-16.5 25.3c11.7.8 21 10.6 21 22.5 0 12.4-10.1 22.5-22.5 22.5h-40c-8.3 0-15.9-4.5-19.8-11.8Zm94 30c4.8-2.2 10.6-1.1 14.3 2.8s4.5 9.6 1.9 14.4C327.1 386 262.4 424.8 191.5 424.8c-.2 0-.5 0-.7 0-51.1-.2-99-20.1-135-56.2-36-36-55.8-84-55.8-135C0 197 10.4 161.4 30 130.7c2.3-3.5 6.9-4.5 10.4-2.3 3.5 2.3 4.5 6.9 2.3 10.4C24.6 167.1 15 199.9 15 233.6c0 96.8 78.9 175.9 176 176.1.2 0 .4 0 .6 0 62.9 0 120.5-33 152.2-86.9-18.1 7.3-37.3 11.1-57.1 11.4-8.6.2-17.3-.4-25.7-1.7-4.1-.6-6.9-4.4-6.3-8.5s4.4-6.9 8.5-6.3c7.6 1.2 15.4 1.7 23.2 1.6 20.2-.3 39.7-4.6 57.9-13ZM63.2 112.6c-2.8 3-7.6 3.1-10.6.3s-3.1-7.6-.3-10.6c33.5-35.5 78.8-56.7 127.5-59.6 1.2-.1 3.1-.2 5.8-.2.1 0 .1 0 .2 0 5.3 0 9.9 3.2 11.7 8.2 1.9 5.1.4 10.6-3.8 14C160 92.3 140.8 133 141 176.5c.3 58.2 35.5 110.2 89.8 132.3 3.8 1.6 5.7 6 4.1 9.8-2.3 4.6-7 5.1-9.8 4.1-28.8-11.7-53.4-31.4-71.1-57.1-18.2-26.3-27.9-57.1-28-89-.2-45.7 18.9-88.5 52.7-118.8-44.1 3.1-85 22.5-115.5 54.8Z"/>
</svg>
