<svg xmlns="http://www.w3.org/2000/svg">
  <path d="m277.1 267.4c-5.1-6.2-12.7-9.8-20.7-9.8s-15.6 3.6-20.7 9.8l-43.8 55.1c-5.7 7-6.8 16.7-2.9 24.8 4.4 8.9 13.6 14.5 23.6 14.3h87.6c10 .2 19.1-5.4 23.6-14.3 3.9-8.1 2.8-17.8-2.8-24.8zm-20.7 13.4c1 0 1.9.3 2.6 1l40.5 53.1c.5.7.6 1.6.2 2.4-.4.8-1.2 1.3-2 1.3h-83.2c-.9 0-1.7-.5-2.1-1.3s-.3-1.7.2-2.4l41-53.1c.7-.7 1.7-1.1 2.6-1zM273.1 512c80.1-.1 145-65 145.1-145.1V145.1C418 65 353.1.1 273.1 0H238.9C158.9.1 94 65 93.9 145.1V367c.1 80.1 65 145 145.1 145.1zm128-366.9v59.7h-111V128c-.1-15.5-10.6-29-25.6-32.9v-78h8.5c70.7.1 127.9 57.3 128 128zm-128 39.1-33.5 33.5c-.4-1.4-.6-2.9-.6-4.4v-13.5l34.1-34.1zM256 110.9c1.5 0 2.9.2 4.4.6L238.9 133v-5c0-9.4 7.6-17.1 17.1-17.1zm-17.1 46.2 33.5-33.5c.4 1.4.6 2.9.6 4.4v13.5l-34.1 34.1zm34.1 51.2v5c0 9.4-7.6 17.1-17.1 17.1-1.5 0-2.9-.2-4.4-.6zM238.9 17.1h8.5v78c-15 3.9-25.5 17.4-25.6 32.9v76.8H110.9v-59.7c.1-70.7 57.3-127.9 128-128zM110.9 367V221.9H223c3.8 15.1 17.4 25.6 32.9 25.6S285 237 288.8 221.9h112.1V367c-.1 70.7-57.3 127.9-128 128h-34c-70.6-.1-127.9-57.4-128-128.1Z"/>
</svg>
