<svg xmlns="http://www.w3.org/2000/svg">
  <path d="M238.9 0C158.9.1 94 65 93.9 145.1V366.9c.1 80.1 65 145 145 145.1h34.2c80-.1 144.9-65 145-145.1V145.1C418 65 353.1.1 273.1 0H238.9zm0 17.1h8.6v78c-15.1 3.9-25.6 17.4-25.6 32.9v76.8h-111V145.1c.1-70.7 57.4-128 128-128zm25.6 0h8.6c70.6 0 127.9 57.3 128 128v59.7h-111V128c0-15.5-10.5-29-25.6-32.9v-78zM256 110.9c1.5.1 2.9.3 4.4.7L238.9 133v-5c0-9.4 7.7-17.1 17.1-17.1zm16.4 12.7c.4 1.5.6 2.9.7 4.4v13.5l-34.2 34.2V157.1l33.5-33.5zm.7 42.1v18.5l-33.5 33.5c-.4-1.4-.6-2.9-.7-4.4V199.8l34.2-34.1zm0 42.6v5c0 9.5-7.7 17.1-17.1 17.1-1.5 0-2.9-.2-4.4-.6l21.5-21.5zM110.9 221.9H223.1c3.8 15 17.4 25.6 32.9 25.6s29.1-10.6 32.9-25.6H401.1v145c-.1 70.7-57.4 128-128 128H238.9c-70.6 0-127.9-57.3-128-128v-145zM219 300c-12.7 0-23 10.3-23 23v92.1c0 12.7 10.3 23 23 23s23-10.3 23-23V323c0-12.7-10.3-23-23-23zm74 0c-12.8 0-23.1 10.3-23.1 23v92.1c0 12.7 10.3 23 23.1 23 12.7 0 23-10.3 23-23V323c0-12.7-10.3-23-23-23z"/>
</svg>
