<svg xmlns="http://www.w3.org/2000/svg">
  <path d="M110.7 366.9c.1 70.7 57.3 127.9 128 128h34.1c70.7-.1 127.9-57.3 128-128v-128H288.7c-3.8 15.1-17.4 25.6-32.9 25.6s-29.1-10.5-32.9-25.6H110.8ZM238.9 51.2c-70.7.1-127.9 57.3-128 128v42.6H221.7V162.1c.1-15.5 10.6-29 25.6-32.9v-78h-8.5Zm46.9.6c-4.3-.4-8.5-.6-12.9-.6h-8.5v22l21.4-21.4Zm80 39.5c-5.8-6.1-12.1-11.6-19-16.5l-65.2 65.1c5.4 6.2 8.4 14 8.4 22.2v5l75.8-75.8Zm13.1 130.6H401V199.8Zm-59.7 0h35.6l46-46c-.2-10.5-1.8-20.9-4.6-31Zm-29.1 0h5l94.7-94.7c-3.5-8-7.9-15.5-13-22.6l-86.7 86.7ZM256 145c-9.5 0-17.1 7.7-17.1 17.1v68.3c0 9.5 7.7 17.1 17.1 17.1 9.5 0 17.1-7.7 17.1-17.1V162.2c0-9.5-7.7-17.1-17.1-17.1Zm75.9-79.4c-8.2-4.2-16.8-7.5-25.7-9.9L264.5 97.4v31.8c1 .3 2 .6 2.9.9ZM239 512c-80.1-.1-145-65-145.1-145.1V179.2c.1-80.1 65-145 145.1-145.1h34.1c80 .1 144.9 65 145 145.1V366.9C418 447 353.1 511.9 273 512H238.9Z"/>
</svg>
