<svg xmlns="http://www.w3.org/2000/svg">
  <path d="m 50.05225,40.834016 c -3.94e-4,-0.743198 -0.604021,-1.346824 -1.348403,-1.346824 -0.743592,0 -1.347218,0.603626 -1.347218,1.347218 l 0,5.1326 -19.271496,-19.271497 c 0.962017,-1.323168 1.518331,-2.93849 1.518331,-4.699297 -7.89e-4,-4.431589 -3.593372,-8.024172 -8.024962,-8.024172 -4.431193,-3.95e-4 -8.024172,3.592583 -8.024565,8.024565 3.94e-4,4.431984 3.592189,8.025357 8.024565,8.025356 1.697726,0 3.284266,-0.541727 4.580624,-1.44066 l 19.234435,19.234435 -5.017868,3.95e-4 c -0.743592,0 -1.347612,0.603231 -1.347612,1.346823 -3.93e-4,0.744776 0.603626,1.34722 1.347218,1.34722 l 9.676555,3.94e-4 3.96e-4,-9.676556 z m -34.142553,-18.8378 c 0,-3.130499 2.537123,-5.669201 5.669201,-5.669201 3.131288,1e-6 5.669593,2.538307 5.669595,5.669594 0,3.132078 -2.538307,5.670385 -5.669596,5.670385 -3.132077,0 -5.669595,-2.538308 -5.6692,-5.670778 z m 8.508729,2.840711 c -1.568664,1.568664 -4.11197,1.568664 -5.680634,0 -1.568664,-1.568664 -1.568664,-4.111971 0,-5.680634 1.568664,-1.568665 4.11197,-1.568665 5.680635,0 1.568662,1.568663 1.568662,4.11197 -1e-6,5.680634 z"/>
</svg>
