<svg xmlns="http://www.w3.org/2000/svg">
  <path d="m 32.475055,29.366249 -1.316069,0 0,0.01891 -0.0022,0 0,0.817723 -0.838821,0 0,0.01891 -0.0029,0 0,1.316796 0.84173,0 0,0.83664 1.315343,0 0,-0.01965 0.0029,0 0,-0.816996 0.830092,0 0,-0.01891 0.0029,0 0,-1.316799 -0.833001,0 z m 4.361218,-11.409355 0,0.01965 -0.0015,0 0,1.316069 6.459581,0 0,6.482133 1.31607,0 0,-0.01819 0.0029,0 0,-7.799657 z m 6.461035,17.940741 -0.0029,0 0,6.341723 -6.458125,0 0,0.01819 -0.0015,0 0,1.317525 7.77565,0 0,-0.01891 0.0029,0 0,-7.676707 -1.31607,0 z m -12.138322,3.625279 -0.0022,0 0,7.630876 1.315343,0 0,-0.01819 0.0029,0 0,-7.63233 -1.316069,0 z m -15.724316,-9.447342 -0.0022,0 0,1.315342 7.838943,0 0,-0.01891 0.0029,0 0,-1.316068 -7.839671,0 z m 4.899181,5.802419 -1.318252,0 0,0.01819 -0.0029,0 0,7.678891 7.699989,0 0,-0.01891 0.0029,0 0,-1.316796 -6.381737,0 z m -0.0044,-10.120712 0.0044,0 0,-6.464673 6.377372,0 0,-0.01819 0.0029,0 0,-1.317525 -7.698533,0 0,0.01965 -0.0029,0 0,7.799658 1.316797,0 z m 12.142687,-3.540161 0.0029,0 0,-7.838944 -1.316069,0 0,0.01819 -0.0022,0 0,7.841127 1.315342,0 z m 15.795614,9.173796 0,-1.315342 -0.07566,0 0,-0.01965 -7.631601,0 0,1.31607 0.07639,0 0,0.01891 z"/>
</svg>
