<svg xmlns="http://www.w3.org/2000/svg">
  <path d="m 28.680023,10.589899 c -1.876161,0.152232 -3.762167,0.861863 -5.618551,2.067939 l -4.994267,3.23847 c -0.0967,0.06387 -2.406828,1.57379 -3.979807,4.252931 -1.513881,2.576464 -2.652029,6.684098 0.585266,11.666296 l 10.768889,16.582528 c 0.144463,0.223262 3.622393,5.460093 9.520322,5.46248 2.070753,0 4.146392,-0.657109 6.203816,-1.950885 l 0.195089,-0.117053 1.599726,-1.014461 1.638745,-1.092496 1.755796,-1.131513 c 0.0991,-0.06387 2.406826,-1.573195 3.979807,-4.252932 1.513881,-2.575268 2.650835,-6.682306 -0.585265,-11.666296 L 38.9807,16.052379 c -0.144465,-0.222665 -3.622394,-5.46248 -9.520323,-5.46248 -0.267436,0 -0.512332,-0.02175 -0.780354,0 z m 0.780354,3.628647 c 3.898125,0 6.456047,3.75308 6.476941,3.784719 l 2.809275,4.369983 -8.271755,5.384445 -1.092496,-1.71678 c -0.138309,0.145799 -0.292254,0.279829 -0.468213,0.390178 l -0.429195,0.273123 c -0.24722,0.155041 -0.544184,0.25363 -0.819371,0.312142 l 1.17053,1.794816 -8.271755,5.384444 -2.848292,-4.369984 c -4.139893,-6.370121 1.674262,-10.443599 2.341062,-10.885943 l 1.677762,-1.092496 0.390177,0.624284 c 0.189018,-0.281659 0.443355,-0.515443 0.741337,-0.702318 l 0.429195,-0.273125 c 0.126753,-0.07949 0.254889,-0.141349 0.390176,-0.195088 l -0.351159,-0.507231 1.677762,-1.092496 c 1.522238,-0.989157 3.023682,-1.482673 4.448019,-1.482673 z m -5.072302,3.355524 c -0.346259,0.03368 -0.670166,0.123208 -0.975444,0.312141 l -0.429195,0.273125 c -1.221105,0.755734 -1.450523,2.478804 -0.546247,3.901771 l 1.911868,3.0824 c 0.904273,1.422968 2.641645,1.965283 3.862753,1.209548 l 0.390177,-0.273124 c 1.221107,-0.755733 1.48954,-2.517822 0.585266,-3.940789 L 27.236368,19.095761 C 26.55816,18.028535 25.426849,17.473022 24.388075,17.57407 z m 15.411997,6.398905 6.906135,10.612818 c 4.138698,6.371317 -1.675457,10.484406 -2.341063,10.92496 l -4.955249,3.23847 c -1.522836,0.987366 -3.023682,1.482673 -4.44802,1.482673 -3.898721,-0.003 -6.45545,-3.792694 -6.476941,-3.823735 L 21.617817,35.834359 39.800072,23.972975 z m -7.17515,16.93298 c -8.1e-4,-0.125852 0.0298,-0.245962 0.07743,-0.371642 l 0.03097,-0.06968 c 0.169986,-0.208034 0.384923,-0.352883 0.665858,-0.356156 l 6.015955,-0.01549 c 0.151018,0.02199 0.230682,0.02941 0.340673,0.09291 0.35439,0.204608 0.475595,0.659884 0.27099,1.014273 l -3.042821,5.280416 c -0.204608,0.354391 -0.659883,0.475597 -1.014275,0.270989 -0.110062,-0.06354 -0.160967,-0.135823 -0.255501,-0.255505 l -2.988628,-5.210733 c -0.06884,-0.122436 -0.09989,-0.253538 -0.10066,-0.379385 z m -1.695617,-0.805226 c 0.0011,0.184339 0.03853,0.370384 0.139366,0.549723 l 4.382279,7.641888 c 0.138469,0.175307 0.218175,0.270825 0.379384,0.3639 0.519099,0.2997 1.179125,0.124226 1.478825,-0.394869 l 4.467447,-7.7348 c 0.299703,-0.519098 0.116485,-1.179124 -0.40261,-1.478826 -0.161115,-0.09301 -0.282063,-0.114885 -0.503265,-0.147109 l -8.811015,0.03096 c -0.411508,0.0048 -0.718827,0.214028 -0.967818,0.518751 l -0.05419,0.09291 c -0.06976,0.184094 -0.109524,0.373128 -0.108402,0.557466 z m 9.295896,-4.094243 c 8.1e-4,0.125852 -0.02981,0.245963 -0.07743,0.371643 l -0.03097,0.06967 c -0.169991,0.208032 -0.384927,0.352882 -0.665864,0.356151 l -6.015956,0.01549 c -0.151018,-0.022 -0.230681,-0.02939 -0.340673,-0.09292 -0.354389,-0.204607 -0.475595,-0.659883 -0.270989,-1.014273 l 3.042823,-5.280415 c 0.204603,-0.354391 0.659881,-0.475598 1.014271,-0.270989 0.110061,0.06352 0.16097,0.135822 0.255505,0.255504 l 2.988621,5.210732 c 0.06884,0.122435 0.09989,0.253538 0.10066,0.379384 z m 1.695618,0.805226 c -0.0011,-0.184338 -0.03853,-0.370382 -0.139367,-0.54972 L 37.399174,28.620101 C 37.260705,28.444793 37.181,28.349275 37.01979,28.256203 36.50069,27.9565 35.840664,28.131974 35.540965,28.65107 l -4.467447,7.7348 c -0.299703,0.519099 -0.116484,1.179124 0.402611,1.478826 0.161114,0.09301 0.28206,0.114886 0.503266,0.14711 l 8.811013,-0.03097 c 0.411508,-0.0048 0.718829,-0.214029 0.967816,-0.518749 l 0.05419,-0.09292 c 0.06976,-0.184092 0.109523,-0.373125 0.108402,-0.557463 z"/>
</svg>
