<svg xmlns="http://www.w3.org/2000/svg">
  <path d="M185.6 0c-22.5 0-40.9 18.3-40.9 40.9 0 2.7.3 5.4.8 8-15.9 5.6-30.5 14.5-43 26.6-23.6 22.8-36.6 53.4-36.6 86.2v73.1c0 2.6-2.1 4.7-4.8 4.7-22.1 0-40.9 16.7-43 37.9-1.1 11.8 2.8 23.5 10.8 32.2 7.9 8.7 19.2 13.8 31 13.8h72.2c3 26.8 25.9 47.9 53.5 47.9 27.7 0 50.6-21.1 53.6-47.9h72.2c11.8 0 23.1-5.1 31-13.8 7.9-8.7 11.9-20.4 10.7-32.2-2-21.2-20.9-37.9-43-37.9-2.6 0-4.7-2.1-4.7-4.7V164.3c0-52.4-33.5-98.1-79.7-115.2.5-2.7.8-5.4.8-8.2C226.5 18.3 208.2 0 185.6 0zm0 24c9.4 0 17 7.6 17 16.9 0 .8-.1 1.5-.3 2.3-4-.6-8.2-1-12.3-1.2-7.1-.2-14.1.3-21.1 1.2-.1-.7-.2-1.5-.2-2.2 0-9.4 7.6-17 16.9-17zM299.4 44.5c-3.1 0-6.2 1.2-8.5 3.5-4.7 4.7-4.7 12.3 0 17 19.1 19 32.3 43 38.1 69.3 1.2 5.6 6.2 9.4 11.7 9.4.9 0 1.8-.1 2.6-.3 6.5-1.4 10.5-7.8 9.1-14.2-6.8-30.8-22.2-58.8-44.6-81.2-2.3-2.3-5.4-3.5-8.4-3.5zm-227.6.1c-3 0-6.1 1.2-8.4 3.5C41 70.4 25.6 98.4 18.8 129.2c-1.4 6.5 2.6 12.9 9.1 14.3 1 .2 1.8.2 2.6.2 5.5 0 10.5-3.8 11.7-9.4C48 108 61.1 84.1 80.3 65c4.7-4.6 4.7-12.2 0-16.9-2.3-2.3-5.4-3.5-8.5-3.5zM185.6 65.9c1.2 0 2.4 0 3.6 0 50.8 1.8 92.2 46 92.2 98.4v70.5c0 15.8 12.9 28.7 28.7 28.7 9.9 0 18.3 7.1 19.2 16.1.5 5.2-1.2 10.1-4.6 13.9-3.5 3.8-8.2 5.9-13.3 5.9H59.9c-5.2 0-9.8-2.1-13.3-5.9-3.5-3.7-5.1-8.7-4.6-13.9.9-9 9.3-16.1 19.2-16.1 15.8 0 28.7-12.9 28.7-28.7V161.7c0-26.2 10.4-50.7 29.3-68.9 17.9-17.5 41.4-26.9 66.4-26.9zM156.3 323.4H215c-2.8 13.6-14.9 23.9-29.4 23.9-14.4 0-26.5-10.3-29.3-23.9z"/>
</svg>
