<svg xmlns="http://www.w3.org/2000/svg">
  <path d="M 48.368646 56.518509 H 15.995544 c -1.154068 0 -2.088945 -0.934878 -2.088945 -2.089498 V 33.333662 c 0 -1.153514 0.934877 -2.088391 2.088945 -2.088391 h 2.088391 v -8.938623 c 0 -7.785663 6.311667 -14.0978838 14.098437 -14.0978838 7.785109 0 14.097883 6.3116678 14.097883 14.0978838 v 8.938623 h 2.088391 c 1.153514 0 2.088391 0.934877 2.088391 2.088391 v 21.094795 c 5.54e-4 1.155174 -0.934877 2.090052 -2.088391 2.090052 z M 39.644232 22.723994 c 0 -4.120877 -3.341537 -7.461306 -7.46186 -7.461306 -4.121431 0 -7.46186 3.340429 -7.46186 7.461306 v 8.521277 h 14.924273 v -8.521277 z"/>
</svg>
