<svg xmlns="http://www.w3.org/2000/svg">
  <path d="M12 10a1 1 0 01.1 0 1 1 0 01.1 0 1 1 0 01.1 0 1 1 0 010 .1 1 1 0 01.1 0 1 1 0 01.1 0 1 1 0 010 0 1 1 0 01.1.1 1 1 0 010 0 1 1 0 01.1.1 1 1 0 010 0l3 3A1 1 0 0115 15a1 1 0 01-.7-.3L13 13.4V18a1 1 0 01-1 1 1 1 0 01-1-1V13.4L9.7 14.7A1 1 0 018.3 13.3l3-3a1 1 0 010 0 1 1 0 010 0 1 1 0 01.1-.1 1 1 0 010 0 1 1 0 01.1-.1 1 1 0 010 0 1 1 0 01.1 0 1 1 0 01.1 0 1 1 0 010-.1 1 1 0 01.1 0 1 1 0 01.1 0 1 1 0 01.1 0Zm3-4.6V7h1.6L15 5.4ZM7 4A1 1 0 006 5V19a1 1 0 001 1H17a1 1 0 001-1V9H15A2 2 0 0113 7V4H7ZM7 2h7a1 1 0 01.1 0 1 1 0 010 0 1 1 0 01.1 0 1 1 0 01.1 0 1 1 0 010 .1 1 1 0 01.1 0 1 1 0 01.1 0 1 1 0 010 .1 1 1 0 01.1 0 1 1 0 01.1 0 1 1 0 010 .1l5 5a1 1 0 010 0 1 1 0 01.1.1 1 1 0 010 0 1 1 0 01.1.1 1 1 0 010 .1 1 1 0 010 0 1 1 0 010 .1 1 1 0 01.1 0 1 1 0 010 .1 1 1 0 010 .1A1 1 0 0120 8V19a3 3 0 01-3 3H7A3 3 0 014 19V5A3 3 0 017 2Z"/>
</svg>
