<svg xmlns="http://www.w3.org/2000/svg">
  <path d="M7 2A3 3 0 004 5V19a3 3 0 003 3H17a3 3 0 003-3V8a1 1 0 000-.1 1 1 0 000-.1 1 1 0 000-.1 1 1 0 00-.1 0 1 1 0 000-.1 1 1 0 000 0 1 1 0 000-.1 1 1 0 00-.1-.1 1 1 0 000 0 1 1 0 00-.1-.1 1 1 0 000 0l-5-5a1 1 0 000-.1 1 1 0 00-.1 0 1 1 0 00-.1 0 1 1 0 000-.1 1 1 0 00-.1 0 1 1 0 00-.1 0 1 1 0 000-.1 1 1 0 00-.1 0 1 1 0 00-.1 0 1 1 0 000 0A1 1 0 0014 2H7zM7 4h6V7a2 2 0 002 2h3V19a1 1 0 01-1 1H7A1 1 0 016 19V5A1 1 0 017 4zm8 1.4L16.6 7H15V5.4zM12 10a1 1 0 00-1 1v4.6L9.7 14.3A1 1 0 008.3 15.7l3 3a1 1 0 000 0 1 1 0 000 0 1 1 0 00.1.1 1 1 0 000 0 1 1 0 00.1.1 1 1 0 000 0 1 1 0 00.1 0 1 1 0 00.1 0 1 1 0 000 .1 1 1 0 00.1 0 1 1 0 00.1 0 1 1 0 00.1 0 1 1 0 00.1 0 1 1 0 00.1 0 1 1 0 00.1 0 1 1 0 000-.1 1 1 0 00.1 0 1 1 0 00.1 0 1 1 0 000 0 1 1 0 00.1-.1 1 1 0 000 0 1 1 0 00.1-.1 1 1 0 000 0l3-3A1 1 0 0015 14a1 1 0 00-.7.3L13 15.6V11a1 1 0 00-1-1z"/>
</svg>
