<svg xmlns="http://www.w3.org/2000/svg">
  <path d="M469.6 386.5c4.7 0 8.5-3.8 8.5-8.5V119.9H406.7c-15.7 0-28.5-12.8-28.5-28.5V20H223.6c-4.7 0-8.5 3.8-8.5 8.5v82.9c.8.7 1.7 1.5 2.5 2.3l89.2 90.2c5.3 5.3 8.2 12.5 8.2 20V260h67.8L360 237.1c-3.9-3.9-3.9-10.2 0-14.1 3.9-3.9 10.2-3.9 14.1 0L413 262.1c2.4 1.8 4 4.7 4 8 0 0 0 .1 0 .1s0 .1 0 .1c0 2.7-1 5.2-2.9 7.1l-40 39.8c-2 1.9-4.5 2.9-7.1 2.9s-5.1-.9-7.1-2.9c-3.9-3.9-3.9-10.2 0-14.1l23-22.9h-68V386.6H469.5ZM294.9 280.2h-32c-5.5 0-10-4.5-10-10s4.5-10 10-10h32V225.3H223.5c-15.7 0-28.5-12.8-28.5-28.5V125.4H42.5c-4.7 0-8.5 3.8-8.5 8.5V483.5c0 4.7 3.8 8.5 8.5 8.5H286.4c4.7 0 8.5-3.8 8.5-8.5ZM215 196.8c0 4.7 3.8 8.5 8.5 8.5h56.3L215 139.7ZM398.1 34.3V91.4c0 4.7 3.8 8.5 8.5 8.5h56.3Zm96.8 71.5c2 4 3.1 8.3 3.1 12.9V378.1c0 15.7-12.8 28.5-28.5 28.5H314.9v76.9c0 15.7-12.8 28.5-28.5 28.5H42.5C26.8 512 14 499.2 14 483.5V133.9c0-15.7 12.8-28.5 28.5-28.5H195V28.5C195 12.8 207.8 0 223.5 0H380.3c4 0 7.8.8 11.4 2.4.3.1.6.2.8.4.1 0 .2 0 .2 0 .1.1.1.1.2.1 2.8 1.4 5.5 3.3 7.7 5.6l89.2 90.1c1.8 1.8 3.3 3.8 4.5 6 .2.4.4.8.6 1.2ZM79.2 280c-5.5 0-10-4.5-10-10s4.5-10 10-10H210.8c5.5 0 10 4.5 10 10s-4.5 10-10 10H79.2Zm0 53c-5.5 0-10-4.5-10-10s4.5-10 10-10H188.9c5.5 0 10 4.5 10 10s-4.5 10-10 10H79.2Zm169.5-10a10 10 0 00-10-10 10 10 0 00-10 10 10 10 0 0010 10 10 10 0 0010-10Zm-9.8 43.7c5.5 0 10 4.5 10 10s-4.5 10-10 10H79.2c-5.5 0-10-4.5-10-10s4.5-10 10-10H239Zm0 53.3c5.5 0 10 4.5 10 10s-4.5 10-10 10H79.2c-5.5 0-10-4.5-10-10s4.5-10 10-10H239Z"/>
</svg>
