<svg xmlns="http://www.w3.org/2000/svg">
  <path d="M79.1 8.3c.7 1.3.3 3-1 3.7-.3.1-.6.3-.9.3l-18.5 3c-1.5.3-2.9-.7-3.1-2.2-.1-.6 0-1.1.2-1.6l2.4-5.1C46.1.6 31.8 1.8 20.9 9.4c-4.4 3-8.1 6.9-10.9 11.5L3.4 12.7C6.6 8.2 10.6 4.3 15.2 1.1 29.1-8.6 47.2-10 62.5-2.6l2.4-5.1c.7-1.4 2.3-1.9 3.6-1.3.5.2.9.6 1.2 1.1L79.1 8.3ZM25.9 74.5c4.8 2.2 10 3.5 15.4 3.8l-3.7 9.8c-5.5-.6-10.9-2.1-15.9-4.5C6.3 76.4-4 61.4-5.3 44.5l-5.6.4c-.6 0-1.1-.1-1.6-.4-1.3-.8-1.8-2.4-1-3.7l9.4-16.2c.1-.2.3-.5.6-.7 1.2-.9 2.9-.8 3.8.4L12.2 38.9c.3.4.6 1 .6 1.5.1 1.5-1 2.8-2.5 2.9l-5.6.4c1 13.3 9.1 25.1 21.2 30.8ZM89.7 36.7C91.1 53.6 83.4 70 69.4 79.6l3.3 4.7c.3.4.5 1 .5 1.6 0 1.4-1.2 2.6-2.7 2.6H51.7c-.4 0-.7-.1-1-.2-1.4-.6-2.1-2.1-1.6-3.5l6.7-17.4c.2-.5.6-1 1-1.3 1.2-.8 2.9-.5 3.7.7l3.2 4.6c11-7.6 17.1-20.5 16-33.9-.4-5.2-1.9-10.3-4.4-15l10.4-1.7c2.2 5 3.6 10.4 4 15.9ZM23.3 21.9V58.3H59.6V21.9Z"/>
</svg>
