<svg xmlns="http://www.w3.org/2000/svg">
  <path d="m 27.26077,41.42931 c 0.180017,0 0.405037,-0.045 0.585053,-0.135012 l 14.356318,-8.28076 c 0.360033,-0.180017 0.585053,-0.585054 0.585053,-0.990091 0,-0.405037 -0.22502,-0.76507 -0.585053,-0.990091 l -14.401322,-8.28076 c -0.360032,-0.180015 -0.76507,-0.180015 -1.125103,0 -0.360033,0.180017 -0.585053,0.585054 -0.585053,0.990091 v 16.561519 c 0,0.405038 0.22502,0.765071 0.585053,0.990092 0.180017,0.09001 0.360033,0.135012 0.585054,0.135012 z M 28.385873,25.677865 39.36688,32.023447 28.385873,38.369029 V 25.677865 z m 3.645334,-13.906276 c -5.400495,0 -10.485961,2.115194 -14.311312,5.940545 -3.825351,3.825351 -5.940545,8.910817 -5.940545,14.311313 0,0.630057 0.495046,1.125104 1.125103,1.125104 0.630058,0 1.125104,-0.495047 1.125104,-1.125104 0,-4.815442 1.890173,-9.315854 5.265483,-12.736168 3.420313,-3.37531 7.920726,-5.265483 12.736167,-5.265483 4.815442,0 9.315855,1.890173 12.736169,5.265483 3.37531,3.420314 5.265483,7.920726 5.265483,12.736168 0,4.815441 -1.890173,9.315855 -5.265483,12.736168 -3.420314,3.37531 -7.920727,5.265483 -12.736169,5.265483 -4.410404,0 -8.595788,-1.575144 -11.926093,-4.500413 l 2.115193,-2.115194 c 0.270025,-0.270024 0.405038,-0.720066 0.270025,-1.080099 -0.09001,-0.405037 -0.405037,-0.675062 -0.810074,-0.810074 l -7.96573,-2.115194 c -0.405038,-0.09001 -0.810075,0 -1.080099,0.270025 -0.270025,0.270024 -0.405038,0.720066 -0.270025,1.080099 l 2.115194,8.010735 c 0.09001,0.405036 0.405037,0.675062 0.810074,0.810074 0.09001,0.045 0.180017,0.045 0.270025,0.045 0.315029,0 0.585054,-0.135013 0.810074,-0.315029 l 2.160198,-2.160199 c 3.735342,3.285302 8.460776,5.130471 13.501238,5.130471 5.400496,0 10.485963,-2.115194 14.311314,-5.940545 3.82535,-3.82535 5.940545,-8.910817 5.940545,-14.311312 0,-5.400496 -2.115195,-10.485962 -5.940545,-14.311313 -3.825351,-3.825349 -8.910818,-5.940543 -14.311314,-5.940543 z m -15.886456,34.518167 -1.125104,-4.230388 4.230388,1.125103 -3.105284,3.105285 z"/>
</svg>
