<svg xmlns="http://www.w3.org/2000/svg">
  <path d="M175.7 5c6.6-6.7 17.4-6.7 24.1 0L319.3 124.5c3.2 3.2 5 7.6 5 12.1 0 9.5-7.7 17.1-17.1 17.1H256V341.4c0 9.5-7.7 17.1-17.1 17.1H211.8l78.3 78.3 78.3-78.3H341.3c-9.5 0-17.1-7.7-17.1-17.1V204.9c0-9.5 7.7-17.1 17.1-17.1 9.5 0 17.1 7.7 17.1 17.1V324.4h51.2c6.9 0 13.2 4.1 15.8 10.5.9 2 1.3 4.3 1.3 6.5 0 4.6-1.8 8.9-5 12.1L302.2 473c-6.6 6.7-17.4 6.7-24.1 0L158.6 353.5c-3.2-3.2-5-7.6-5-12.1 0-9.5 7.7-17.1 17.1-17.1h51.2V136.6c0-9.5 7.7-17.1 17.1-17.1h27.1L187.8 41.2l-78.3 78.3h27.1c9.5 0 17.1 7.7 17.1 17.1V273.1c0 9.5-7.7 17.1-17.1 17.1-9.5 0-17.1-7.7-17.1-17.1V153.6H68.3c-4.6 0-8.9-1.8-12.1-5-6.7-6.6-6.7-17.4 0-24.1L175.7 5Z"/>
</svg>
