<svg xmlns="http://www.w3.org/2000/svg">
  <path d="M4.5 2.3c-1.2 0-2.2 1-2.2 2.2V5v6 8.5c0 1.2 1 2.3 2.2 2.3h15c1.2 0 2.3-1.1 2.3-2.3V11 8 5 4.5c0-1.2-1.1-2.2-2.3-2.2H4.5zm0 1.5h15c.4 0 .8.3.8.7V5 7.3H3.8V5 4.5c0-.4.3-.7.7-.7zm-.7 5H20.3V11v8.5c0 .4-.4.8-.8.8H4.5c-.4 0-.7-.4-.7-.8V11 8.8zm6.9 3.1c-.6 0-1.2.6-1.2 1.2 0 1 0 1.9 0 2.9L7.9 14.4l-.6.6 2.1 2.1c.2.2.3.5.6.5.1 0 .2-.1.2-.1.8-.8 1.7-1.6 2.5-2.5l-.7-.6L10.5 16V13.4c-.1-.3 0-.6.3-.6h2.9c.2 0 .5.1.5.4v3.9h1V13.2c0-.6-.5-1.3-1.1-1.3-1.1 0-2.2 0-3.3 0 0 0 0 0-.1 0z"/>
</svg>
