<svg xmlns="http://www.w3.org/2000/svg">
  <path d="M17 8.3c.2 0 .5.1.6.2.7 1 1.2 2.2 1.2 3.5s-.5 2.5-1.2 3.5c-.3.3-.7.3-1.1.1-.3-.3-.3-.7-.1-1.1.5-.6.9-1.5.9-2.5s-.4-1.9-.9-2.5c-.2-.4-.2-.8.1-1.1.2-.1.4-.2.5-.1Zm3-2c.2 0 .4 0 .6.2C21.9 8 22.8 9.9 22.8 12s-.9 4-2.2 5.5c-.3.3-.8.3-1.1.1-.3-.3-.3-.8-.1-1.1 1.2-1.2 1.9-2.8 1.9-4.5s-.7-3.3-1.9-4.5c-.2-.3-.2-.8.1-1.1.1-.1.3-.2.5-.1ZM12.7 4.8c-.1 0-.4 0-.8.4-.6.4-1.4 1.2-2.5 2.3-.6.6-1.1 1.1-1.7 1.3-.7.3-1.4.4-2.2.4-.7 0-1.2 0-1.6 0-.3.1-.5.1-.6.2-.3.2-.4.5-.5 1-.1.3-.1.7 0 1.2 0 .1 0 .2 0 .4s0 .3 0 .4c-.1.5-.1.9 0 1.2.1.5.2.8.5 1 .1.1.3.1.6.2.4 0 .9 0 1.6 0 .8 0 1.5.1 2.2.4.6.2 1.1.7 1.7 1.3 1.1 1.1 1.9 1.9 2.5 2.3.6.5.8.5.9.4 0 0 .2-.1.3-.9s.2-1.9.2-3.5V9.2c0-1.6-.1-2.7-.2-3.5s-.3-.9-.3-.9-.1-.1-.1 0Zm0-1.6c.2.1.4.1.7.2.8.4 1.1 1.2 1.2 2.1s.2 2.1.2 3.6v5.8c0 1.5-.1 2.7-.2 3.6s-.4 1.7-1.2 2.1c-.9.4-1.7 0-2.4-.6-.7-.5-1.6-1.4-2.6-2.4l-.1-.1c-.5-.5-.9-.8-1.2-1-.4-.1-.8-.2-1.6-.2-.7 0-1.3 0-1.7 0-.5-.1-.9-.2-1.3-.5-.8-.5-1.1-1.2-1.2-1.9-.1-.5-.1-1.1 0-1.6 0-.1 0-.2 0-.3s0-.2 0-.3c-.1-.5-.1-1.1 0-1.6.1-.7.4-1.4 1.2-1.9.4-.3.8-.4 1.3-.5.4 0 1 0 1.7 0 .8 0 1.2-.1 1.6-.2.3-.2.7-.5 1.2-1l.1-.1c1-1 1.9-1.9 2.6-2.4.5-.4 1.1-.8 1.7-.8Z"/>
</svg>
