<svg xmlns="http://www.w3.org/2000/svg">
  <path d="M23.8.5c-1.1 0-2 .9-2 2V18c0 .5.2 1 .6 1.4l8.7 8.7c.4.4.9.6 1.4.6s1-.2 1.4-.6l8.7-8.7c.4-.4.6-.9.6-1.4V2.5c0-1.1-.9-2-2-2H23.8zm2 4H39.2V17.2l-6.7 6.7-6.7-6.7V4.5zM2.5 21.8c-1.1 0-2 .9-2 2V41.2c0 1.1.9 2 2 2H18c.5 0 1-.2 1.4-.6l8.7-8.7c.8-.8.8-2 0-2.8l-8.7-8.7c-.4-.4-.9-.6-1.4-.6H2.5zm44.5 0c-.5 0-1 .2-1.4.6l-8.7 8.7c-.8.8-.8 2 0 2.8l8.7 8.7c.4.4.9.6 1.4.6H62.5c1.1 0 2-.9 2-2V23.8c0-1.1-.9-2-2-2H47zm-42.5 4H17.2l6.7 6.7-6.7 6.7H4.5V25.8zm43.3 0H60.5V39.2H47.8l-6.7-6.7 6.7-6.7zM32.5 36.3c-.5 0-1 .2-1.4.6l-8.7 8.7c-.4.4-.6.9-.6 1.4V62.5c0 1.1.9 2 2 2H41.2c1.1 0 2-.9 2-2V47c0-.5-.2-1-.6-1.4l-8.7-8.7c-.4-.4-.9-.6-1.4-.6zm0 4.8 6.7 6.7V60.5H25.8V47.8l6.7-6.7z"/>
</svg>
