<svg xmlns="http://www.w3.org/2000/svg">
  <path d="m235.5 261.1c-2-1.3-3.9-2.6-5.9-4-7.3-5-14.9-10.2-23-14.1-18.4-9-38.1-13.9-58.5-14.4-7.1-.2-14.6.2-23.1 1.2-7.7.9-15.4 2.2-23.7 4.2-14.6 3.4-28.1 9-41.1 14.3l-8 3.3-1.2 4.1c-.7 2.5-51 171.1-51 171.1s17.3-6.3 17.8-6.5c15.6-6.4 29.6-11.1 42.9-14.6 12.6-3.2 23.9-5 34.6-5.5 7.8-.3 15.7.1 23.4 1.3 10.6 1.7 21.2 5 31.6 9.8 8.6 4 17.5 9.1 28.7 16.6l12.5 8.3 49.4-171.5zm-53.9 147.5c-8.8-5.6-16.4-9.7-23.9-13.2-11.9-5.5-24.1-9.2-36.2-11.2-6.9-1.1-14-1.7-21-1.7-2 0-4 0-5.9.1-11.9.5-24.4 2.5-38.2 6-9.6 2.5-19.5 5.6-30.1 9.4 8.9-30.1 38.9-128 40.5-133.4l.2-.1c13-5.3 25.2-10.4 38.5-13.5 7.6-1.8 14.7-3.1 21.7-3.8 7.6-.9 14.4-1.2 20.6-1.1 17.8.5 35.1 4.7 51.2 12.6 7 3.4 14.1 8.2 20.9 12.9.2.2.5.3.7.5-1.7 6.2-29.8 105.3-38.8 136.4zM287.4 62.4c-2-1.3-3.9-2.6-5.9-4-7.3-5-14.9-10.2-23-14.1-18.4-9-38.1-13.9-58.5-14.4-7-.2-14.5.2-23.1 1.2-7.6.9-15.4 2.3-23.7 4.2-14.6 3.4-27.4 8.7-41 14.3l-8.2 3.3-1.2 4.1c-.7 2.6-51.2 171.1-51.2 171.1l16.4-5.9c.6-.2 1-.4 1.5-.5 15.6-6.4 29.6-11.2 43-14.6 12.5-3.2 23.8-5 34.6-5.5 7.8-.3 15.7.1 23.4 1.3 10.6 1.7 21.2 5 31.6 9.8 11 5.1 21.1 11.5 28.6 16.5.7.5 1.4.9 2.1 1.4l10.5 6.9 49.5-171.4zm-53.9 147.4c-6.9-4.4-15.1-9.2-23.9-13.2-11.8-5.5-24-9.2-36.2-11.2-6.9-1.1-14-1.7-21.1-1.7-1.9 0-3.9 0-5.8.1-12 .5-24.5 2.5-38.2 6-9.6 2.5-19.6 5.6-30.1 9.4C87 169.4 117 71.4 118.7 65.8l.3-.1c12.9-5.3 25.1-10.3 38.3-13.4 7.6-1.8 14.7-3 21.7-3.8 7.7-.9 14.5-1.2 20.6-1.1 17.8.5 35 4.7 51.1 12.6 7 3.4 14.1 8.2 20.9 12.9.2.2.5.3.7.5-1.8 6.3-34.8 122.4-38.8 136.4zm206.8 79.6c-.6.2-1 .3-1.4.5-16.3 6.7-31.1 11.4-45.3 14.6-11.1 2.5-21.4 3.9-31.6 4.4-7.9.3-15.7-.1-23.1-1.1-9.4-1.3-18.7-3.8-27.6-7.4-10-4-20.1-9.4-31.8-17.1l-14.7-9.5S242.3 351.1 233 383.4c-2.5 8.8-5.1 18-7.6 26.8-2.8 9.9-5.6 20.1-8.4 29.8l-1.9 6.4s11 7.5 12.3 8.3c16.4 10.5 31 17.4 46.1 21.8 10.2 2.9 20.4 4.7 30.4 5.3 2.5.1 5.1.2 7.9.2 2.5 0 5.2-.1 8-.2 4.8-.2 10.3-.5 15.7-1.4 8.7-1.5 16.5-3 23.6-4.8 14-3.5 26.5-8.4 40.9-14.7l3.8-1.7 1.1-4c4.2-14.5 49.7-171.2 49.7-171.2zm-51 157.2c-12.1 5.2-22.8 9.2-34.3 12.1-6.7 1.7-14 3.1-22.3 4.5-4.4.7-9.1 1-13.5 1.2-5.5.2-10 .2-14.2 0-8.7-.5-17.6-2-26.5-4.6-13.4-3.9-26.5-10.1-41.5-19.7-.4-.2-.8-.6-1.3-.9 2.3-8 4.6-16.1 6.8-24.1 2.5-8.8 24.2-84.6 32.6-113.6 10.6 6.6 20.2 11.6 29.8 15.4 10.2 4.1 20.9 6.9 31.6 8.4 8.5 1.2 17.4 1.7 26.3 1.3 11.3-.5 22.7-2 34.8-4.8 10.4-2.4 21.2-5.5 32.5-9.6 0 0-36.8 120.8-40.7 134.3zM496 93.4c-16.3 6.7-31.1 11.4-45.3 14.7-11.1 2.5-21.4 3.9-31.6 4.4-7.9.3-15.6 0-23.1-1.1-9.5-1.4-18.7-3.8-27.6-7.4-10.1-4.1-20.2-9.5-31.9-17.2l-14.7-9.6S276.9 233.9 274 243.6l-1.9 6.4 5.7 3.5c.3.2 35 21.5 52.7 26.6 10.2 2.9 20.4 4.7 30.4 5.3 2.5.1 5.2.2 7.9.2 2.5 0 5.2-.1 8-.2 5-.2 10.4-.5 15.7-1.4 8.8-1.5 16.5-3.1 23.6-4.8 13.9-3.5 26.5-8.4 41-14.7l3.8-1.7 1.1-4c4.2-14.5 49.8-171.7 49.8-171.7s-15.7 6.1-16 6.2zM446.4 250c-12.1 5.2-22.8 9.3-34.4 12.1-6.7 1.7-14 3.1-22.3 4.5-4.3.7-9.1 1-13.5 1.2-5.2.2-9.9.2-14.2 0-8.7-.5-17.6-2-26.5-4.6-10.7-3.1-31.9-15-42.6-21.2 2.2-7.7 4.4-15.6 6.5-23.2 2.5-8.9 24.3-84.9 32.6-113.8 10.6 6.6 20.1 11.6 29.8 15.4 10.2 4.1 20.8 6.9 31.7 8.5 8.5 1.2 17.4 1.6 26.3 1.3 11.3-.5 22.7-2 34.8-4.8 10.4-2.4 21.2-5.5 32.5-9.6 0 0-36.8 120.8-40.7 134.3z"/>
</svg>
