<svg xmlns="http://www.w3.org/2000/svg">
  <path d="M452 276H336c-33.1 0-60 26.9-60 60v116c0 33.1 26.9 60 60 60h116c33.1 0 60-26.9 60-60V336c0-33.1-26.9-60-60-60zm20 176c0 11-9 20-20 20H336c-11 0-20-9-20-20V336c0-11 9-20 20-20h116c11 0 20 9 20 20zM176.8 276H59.2C26.6 276 0 302.6 0 335.2V452.8C0 485.4 26.6 512 59.2 512H176.8c32.6 0 59.2-26.6 59.2-59.2V335.2c0-32.6-26.6-59.2-59.2-59.2ZM196 452.8c0 10.6-8.6 19.2-19.2 19.2H59.2C48.6 472 40 463.4 40 452.8V335.2c0-10.6 8.6-19.2 19.2-19.2H176.8c10.6 0 19.2 8.6 19.2 19.2ZM452 0H336c-33.1 0-60 26.9-60 60v116c0 33.1 26.9 60 60 60h116c33.1 0 60-26.9 60-60V60c0-33.1-26.9-60-60-60Zm20 176c0 11-9 20-20 20H336c-11 0-20-9-20-20V60c0-11 9-20 20-20h116c11 0 20 9 20 20zM176.8 0H59.2C26.6 0 0 26.6 0 59.2V176.8C0 209.4 26.6 236 59.2 236H176.8c32.6 0 59.2-26.6 59.2-59.2V59.2C236 26.6 209.4 0 176.8 0ZM196 176.8c0 10.6-8.6 19.2-19.2 19.2H59.2C48.6 196 40 187.4 40 176.8V59.2C40 48.6 48.6 40 59.2 40H176.8c10.6 0 19.2 8.6 19.2 19.2Z"/>
</svg>
